<svg width="20" height="24" viewBox="0 0 20 24" fill="none" xmlns="http://www.w3.org/2000/svg">
<g id="Group">
<path id="Vector" d="M3.02595 23.99C1.63718 23.99 0.5 22.9683 0.5 21.7062V5.52921C0.560381 4.18698 1.66737 3.11519 3.02595 3.10518H4.96822L5.03866 3.03506V2.28381C5.03866 1.93322 5.35064 1.69282 5.8035 1.69282H7.30296C7.79608 0.641069 8.78231 0 9.87924 0H9.97987C11.1875 0 12.1536 0.621035 12.5763 1.65275L14.1663 1.69282C14.5588 1.69282 14.9613 1.89315 14.9613 2.28381V3.03506L15.0318 3.10518H16.974C18.3226 3.11519 19.4396 4.18698 19.5 5.52921V21.7162C19.5 22.9783 18.3628 24 16.974 24H3.01589L3.02595 23.99ZM3.02595 4.50751C2.44227 4.51753 1.96928 4.95826 1.91896 5.53923V21.7062C1.91896 22.2471 2.49258 22.5776 3.02595 22.5776H16.9841C17.5175 22.5776 18.0911 22.2471 18.0911 21.7062V5.52921C18.0408 4.95826 17.5577 4.52755 16.9841 4.51753H15.0418L14.9714 4.58765V5.80968C14.9211 6.20033 14.599 6.49082 14.2166 6.49082H5.81356C5.41102 6.49082 5.08898 6.21035 5.04873 5.8197V4.57763L4.97828 4.50751H3.03602H3.02595ZM9.96981 1.3222C9.29555 1.34224 8.71186 1.81302 8.56091 2.48414C8.50053 2.81469 8.23888 3.06511 7.89671 3.10518H6.53814L6.46769 3.17529V5.00835L6.53814 5.07846H13.482L13.5524 5.00835V3.17529L13.482 3.10518H12.0832C11.7209 3.07513 11.4391 2.82471 11.3787 2.48414C11.2378 1.82304 10.6642 1.35225 9.97987 1.33222L9.96981 1.3222Z" fill="#6A6666"/>
<path id="Vector_2" d="M5.19974 15.9465C5.01859 15.9465 4.83745 15.8664 4.71668 15.7262L3.55938 14.5442C3.28766 14.2637 3.28766 13.813 3.55938 13.5325C3.70027 13.4123 3.86128 13.3422 4.04243 13.3422C4.23364 13.3422 4.42484 13.4223 4.55567 13.5626L5.16955 14.1936H5.27018L6.93067 12.621C7.06149 12.5008 7.23257 12.4307 7.41372 12.4307C7.60493 12.4307 7.79614 12.5108 7.92696 12.651C8.07792 12.8113 8.14836 12.9816 8.1383 13.1719C8.1383 13.3522 8.05779 13.5225 7.9169 13.6427L5.70292 15.7262C5.57209 15.8564 5.40101 15.9365 5.2098 15.9365H5.18967L5.19974 15.9465Z" fill="#6A6666"/>
<path id="Vector_3" d="M9.43656 15.2454C9.04408 15.2454 8.72205 14.9248 8.72205 14.5342C8.72205 14.1435 9.04408 13.823 9.43656 13.823H15.9577C16.3502 13.823 16.6723 14.1435 16.6723 14.5342C16.6723 14.9248 16.3502 15.2454 15.9577 15.2454H9.43656Z" fill="#6A6666"/>
<path id="Vector_4" d="M5.19974 11.4289C5.00853 11.4289 4.83745 11.3488 4.71668 11.2086L3.55938 10.0266C3.28766 9.74614 3.28766 9.29538 3.55938 9.01492C3.70027 8.89472 3.86128 8.8246 4.04243 8.8246C4.23364 8.8246 4.42484 8.90473 4.55567 9.04497L5.16955 9.68604H5.27018L6.93067 8.11342C7.06149 7.99322 7.23257 7.9231 7.41372 7.9231C7.60493 7.9231 7.79614 8.00323 7.92696 8.14346C8.07792 8.30373 8.14836 8.47402 8.1383 8.66433C8.1383 8.84463 8.04772 9.01492 7.9169 9.13512L5.70292 11.2186C5.57209 11.3488 5.40101 11.4289 5.2098 11.4289H5.18967H5.19974Z" fill="#6A6666"/>
<path id="Vector_5" d="M9.43656 10.7278C9.04408 10.7278 8.72205 10.4073 8.72205 10.0166C8.72205 9.62595 9.04408 9.30542 9.43656 9.30542H15.9577C16.3502 9.30542 16.6723 9.62595 16.6723 10.0166C16.6723 10.4073 16.3502 10.7278 15.9577 10.7278H9.43656Z" fill="#6A6666"/>
<path id="Vector_6" d="M5.19974 20.4641C5.01859 20.4641 4.83745 20.384 4.71668 20.2437L3.55938 19.0618C3.28766 18.7813 3.28766 18.3305 3.55938 18.0501C3.6902 17.9299 3.86128 17.8598 4.04243 17.8598C4.23364 17.8598 4.42484 17.9399 4.55567 18.0801L5.16955 18.7112H5.27018L6.93067 17.1386C7.06149 17.0184 7.23257 16.9482 7.41372 16.9482C7.60493 16.9482 7.79614 17.0284 7.92696 17.1686C8.06785 17.3189 8.1383 17.5092 8.1383 17.6995C8.1383 17.8798 8.05779 18.0401 7.92696 18.1603L5.71298 20.2437C5.58215 20.374 5.41107 20.4541 5.21986 20.4541H5.19974V20.4641Z" fill="#6A6666"/>
<path id="Vector_7" d="M9.43656 19.7629C9.04408 19.7629 8.72205 19.4424 8.72205 19.0518C8.72205 18.6611 9.04408 18.3406 9.43656 18.3406H15.9577C16.3502 18.3406 16.6723 18.6611 16.6723 19.0518C16.6723 19.4424 16.3502 19.7629 15.9577 19.7629H9.43656Z" fill="#6A6666"/>
</g>
</svg>
