<svg width="24" height="24" viewBox="0 0 24 24" fill="none" xmlns="http://www.w3.org/2000/svg">
<g id="DefaultBox" clip-path="url(#clip0_2509_4038)">
<g id="Group">
<path id="Vector" d="M23.7796 8.71451L22.9182 7.16193C22.7078 6.76126 22.3773 6.47078 21.9866 6.31051V6.19031H2.01333V6.31051C1.62268 6.47078 1.29212 6.76126 1.08177 7.16193L0.220339 8.71451C-0.0601288 9.21535 -0.0701455 9.82637 0.190289 10.3472C0.420672 10.828 0.831357 11.1285 1.30214 11.1786V21.9666C1.30214 23.0885 2.11349 24 3.11516 24H20.8848C21.8864 24 22.6978 23.0885 22.6978 21.9666V11.1786C23.1686 11.1285 23.5793 10.828 23.8197 10.3472C24.0701 9.82637 24.0601 9.21535 23.7796 8.71451ZM1.41233 9.53588L2.27376 7.9833C2.35389 7.85308 2.48411 7.77295 2.62435 7.77295H14.2237L13.3222 9.38563C13.2521 9.52587 13.1118 9.606 12.9716 9.606L1.41233 9.53588ZM14.7846 22.4274H3.11516C2.8948 22.4274 2.70448 22.217 2.70448 21.9666V11.1886H12.9716C13.6127 11.1886 14.1836 10.828 14.5242 10.217L14.7846 9.74623V22.4274ZM21.2854 21.9666C21.2854 22.217 21.1051 22.4274 20.8748 22.4274H16.1869V9.74623L16.4474 10.217C16.788 10.828 17.3589 11.1886 18 11.1886H21.2854V21.9666ZM18 9.606C17.8497 9.606 17.7195 9.52587 17.6494 9.38563L16.7479 7.77295H21.3756C21.5158 7.77295 21.646 7.85308 21.7262 7.9833L22.5476 9.606H18Z" fill="#6A6666"/>
<path id="Vector_2" d="M4.06677 19.6427C3.67612 19.6427 3.3656 19.2921 3.3656 18.8514C3.3656 18.4106 3.68613 18.0601 4.06677 18.0601H9.89649C10.2871 18.0601 10.5977 18.4106 10.5977 18.8514C10.5977 19.2921 10.2771 19.6427 9.89649 19.6427H4.06677Z" fill="#6A6666"/>
<path id="Vector_3" d="M9.89649 18.4608H4.06677C3.86644 18.4608 3.71619 18.6311 3.71619 18.8515C3.71619 19.0718 3.87645 19.2421 4.06677 19.2421H9.89649C10.0968 19.2421 10.2471 19.0718 10.2471 18.8515C10.2471 18.6311 10.0868 18.4608 9.89649 18.4608Z" fill="#6A6666"/>
<path id="Vector_4" d="M4.06677 21.6862C3.67612 21.6862 3.3656 21.3356 3.3656 20.8948C3.3656 20.4541 3.68613 20.1035 4.06677 20.1035H6.14023C6.53088 20.1035 6.84139 20.4541 6.84139 20.8948C6.84139 21.3356 6.52086 21.6862 6.14023 21.6862H4.06677Z" fill="#6A6666"/>
<path id="Vector_5" d="M6.15024 20.5042H4.07678C3.87645 20.5042 3.7262 20.6744 3.7262 20.8948C3.7262 21.1152 3.88646 21.2855 4.07678 21.2855H6.15024C6.35057 21.2855 6.50082 21.1152 6.50082 20.8948C6.50082 20.6744 6.34055 20.5042 6.15024 20.5042Z" fill="#6A6666"/>
<path id="Vector_6" d="M7.5426 21.6862C7.15195 21.6862 6.84143 21.3356 6.84143 20.8948C6.84143 20.4541 7.16197 20.1035 7.5426 20.1035H8.1436C8.53425 20.1035 8.84477 20.4541 8.84477 20.8948C8.84477 21.3356 8.52424 21.6862 8.1436 21.6862H7.5426Z" fill="#6A6666"/>
<path id="Vector_7" d="M8.13347 20.5042H7.53247C7.33214 20.5042 7.18188 20.6744 7.18188 20.8948C7.18188 21.1152 7.34215 21.2855 7.53247 21.2855H8.13347C8.3338 21.2855 8.48406 21.1152 8.48406 20.8948C8.48406 20.6744 8.32379 20.5042 8.13347 20.5042Z" fill="#6A6666"/>
</g>
<path id="Vector_8" d="M21.9866 0.781302V6.19032H20.5742V1.57262H19.202V6.19032H17.7896V1.57262H12.7011V6.19032H11.2988V3.55593H9.91648V6.19032H8.51414V3.55593H3.42566V6.19032H2.01331V2.76461C2.01331 2.33389 2.33384 1.98331 2.71447 1.98331H11.2988V0.781302C11.2988 0.350584 11.6093 0 11.9999 0H21.2754C21.6661 0 21.9866 0.350584 21.9866 0.781302Z" fill="#6A6666"/>
</g>
<defs>
<clipPath id="clip0_2509_4038">
<rect width="24" height="24" fill="white"/>
</clipPath>
</defs>
</svg>
