<svg width="25" height="24" viewBox="0 0 25 24" fill="none" xmlns="http://www.w3.org/2000/svg">
<g id="ActiveBox " clip-path="url(#clip0_2509_4204)">
<g id="Group">
<path id="Vector" d="M24.7396 8.71451L23.8781 7.16193C23.6678 6.76126 23.3372 6.47078 22.9466 6.31051V6.19031H2.97329V6.31051C2.58264 6.47078 2.25209 6.76126 2.04174 7.16193L1.1803 8.71451C0.899832 9.21535 0.889815 9.82637 1.15025 10.3472C1.38063 10.828 1.79132 11.1285 2.2621 11.1786V21.9666C2.2621 23.0885 3.07345 24 4.07512 24H21.8447C22.8464 24 23.6578 23.0885 23.6578 21.9666V11.1786C24.1285 11.1285 24.5392 10.828 24.7796 10.3472C25.03 9.82637 25.02 9.21535 24.7396 8.71451ZM2.37229 9.53588L3.23372 7.9833C3.31386 7.85308 3.44407 7.77295 3.58431 7.77295H15.1836L14.2821 9.38563C14.212 9.52587 14.0718 9.606 13.9316 9.606L2.37229 9.53588ZM15.7446 22.4274H4.07512C3.85476 22.4274 3.66444 22.217 3.66444 21.9666V11.1886H13.9316C14.5726 11.1886 15.1436 10.828 15.4841 10.217L15.7446 9.74623V22.4274ZM22.2454 21.9666C22.2454 22.217 22.0651 22.4274 21.8347 22.4274H17.1469V9.74623L17.4073 10.217C17.7479 10.828 18.3189 11.1886 18.9599 11.1886H22.2454V21.9666ZM18.9599 9.606C18.8097 9.606 18.6795 9.52587 18.6093 9.38563L17.7078 7.77295H22.3356C22.4758 7.77295 22.606 7.85308 22.6861 7.9833L23.5075 9.606H18.9599Z" fill="#201A1A"/>
<path id="Vector_2" d="M5.02673 19.6427C4.63608 19.6427 4.32556 19.2921 4.32556 18.8514C4.32556 18.4106 4.6461 18.0601 5.02673 18.0601H10.8564C11.2471 18.0601 11.5576 18.4106 11.5576 18.8514C11.5576 19.2921 11.2371 19.6427 10.8564 19.6427H5.02673Z" fill="#201A1A"/>
<path id="Vector_3" d="M10.8564 18.4608H5.02673C4.8264 18.4608 4.67615 18.6311 4.67615 18.8515C4.67615 19.0718 4.83641 19.2421 5.02673 19.2421H10.8564C11.0568 19.2421 11.207 19.0718 11.207 18.8515C11.207 18.6311 11.0468 18.4608 10.8564 18.4608Z" fill="#201A1A"/>
<path id="Vector_4" d="M5.02673 21.6862C4.63608 21.6862 4.32556 21.3356 4.32556 20.8948C4.32556 20.4541 4.6461 20.1035 5.02673 20.1035H7.10019C7.49084 20.1035 7.80135 20.4541 7.80135 20.8948C7.80135 21.3356 7.48082 21.6862 7.10019 21.6862H5.02673Z" fill="#201A1A"/>
<path id="Vector_5" d="M7.1102 20.5042H5.03674C4.83641 20.5042 4.68616 20.6744 4.68616 20.8948C4.68616 21.1152 4.84642 21.2855 5.03674 21.2855H7.1102C7.31053 21.2855 7.46078 21.1152 7.46078 20.8948C7.46078 20.6744 7.30051 20.5042 7.1102 20.5042Z" fill="#201A1A"/>
<path id="Vector_6" d="M8.50256 21.6862C8.11191 21.6862 7.80139 21.3356 7.80139 20.8948C7.80139 20.4541 8.12193 20.1035 8.50256 20.1035H9.10356C9.49421 20.1035 9.80473 20.4541 9.80473 20.8948C9.80473 21.3356 9.4842 21.6862 9.10356 21.6862H8.50256Z" fill="#201A1A"/>
<path id="Vector_7" d="M9.09343 20.5042H8.49243C8.2921 20.5042 8.14185 20.6744 8.14185 20.8948C8.14185 21.1152 8.30211 21.2855 8.49243 21.2855H9.09343C9.29377 21.2855 9.44402 21.1152 9.44402 20.8948C9.44402 20.6744 9.28375 20.5042 9.09343 20.5042Z" fill="#201A1A"/>
</g>
<path id="Vector_8" d="M22.9466 0.781302V6.19032H21.5342V1.57262H20.1619V6.19032H18.7496V1.57262H13.6611V6.19032H12.2587V3.55593H10.8764V6.19032H9.4741V3.55593H4.38562V6.19032H2.97327V2.76461C2.97327 2.33389 3.2938 1.98331 3.67444 1.98331H12.2587V0.781302C12.2587 0.350584 12.5693 0 12.9599 0H22.2354C22.626 0 22.9466 0.350584 22.9466 0.781302Z" fill="#B52046"/>
</g>
<defs>
<clipPath id="clip0_2509_4204">
<rect width="24" height="24" fill="white" transform="translate(0.959961)"/>
</clipPath>
</defs>
</svg>
