<svg width="164" height="118" viewBox="0 0 164 118" fill="none" xmlns="http://www.w3.org/2000/svg">
<g id="logoipsum-241 1">
<path id="Vector" d="M13.3591 106.959V82.9189H9.46143V106.959H13.3591Z" fill="#152C4F"/>
<path id="Vector_2" d="M15.7446 98.946C15.7446 103.857 19.0034 107.347 23.9552 107.347C28.9071 107.347 32.1658 103.857 32.1658 98.946C32.1658 94.0345 28.9071 90.5449 23.9552 90.5449C19.0034 90.5449 15.7446 94.0345 15.7446 98.946ZM19.6742 98.946C19.6742 96.0702 21.3675 94.0669 23.9552 94.0669C26.5429 94.0669 28.2362 96.0702 28.2362 98.946C28.2362 101.789 26.5429 103.825 23.9552 103.825C21.3675 103.825 19.6742 101.789 19.6742 98.946Z" fill="#152C4F"/>
<path id="Vector_3" d="M33.4771 98.6221C33.4771 103.275 36.4481 106.636 40.8889 106.636C43.1892 106.636 45.1699 105.698 46.1602 104.148V106.862C46.1602 109.479 44.531 111.224 41.8153 111.224C39.3874 111.224 37.7261 110.028 37.5025 107.928H33.5729C34.084 112.096 37.2468 114.81 41.5917 114.81C46.7035 114.81 49.962 111.418 49.962 106.151V90.9966H46.5117L46.2881 93.1614C45.3297 91.4812 43.3489 90.4795 41.0166 90.4795C36.512 90.4795 33.4771 93.9369 33.4771 98.6221ZM37.4386 98.5252C37.4386 95.8756 39.0999 93.9369 41.5599 93.9369C44.2435 93.9369 46.0325 95.908 46.0325 98.5252C46.0325 101.175 44.2435 103.21 41.5599 103.21C39.1317 103.21 37.4386 101.207 37.4386 98.5252Z" fill="#152C4F"/>
<path id="Vector_4" d="M51.8906 98.946C51.8906 103.857 55.1493 107.347 60.1012 107.347C65.053 107.347 68.3118 103.857 68.3118 98.946C68.3118 94.0345 65.053 90.5449 60.1012 90.5449C55.1493 90.5449 51.8906 94.0345 51.8906 98.946ZM55.8202 98.946C55.8202 96.0702 57.5135 94.0669 60.1012 94.0669C62.6889 94.0669 64.3822 96.0702 64.3822 98.946C64.3822 101.789 62.6889 103.825 60.1012 103.825C57.5135 103.825 55.8202 101.789 55.8202 98.946Z" fill="#152C4F"/>
<path id="Vector_5" d="M72.5297 87.7331C73.8077 87.7331 74.862 86.699 74.862 85.3742C74.862 84.0818 73.8077 83.0479 72.5297 83.0479C71.22 83.0479 70.2295 84.0818 70.2295 85.3742C70.2295 86.699 71.22 87.7331 72.5297 87.7331ZM70.581 106.959H74.4787V90.9966H70.581V106.959Z" fill="#152C4F"/>
<path id="Vector_6" d="M77.8936 114.359H81.6952V104.762C82.6857 106.41 84.8262 107.38 87.1903 107.38C91.8547 107.38 94.6342 103.761 94.5701 98.7845C94.4744 93.7762 91.6311 90.5127 87.1583 90.5127C84.7623 90.5127 82.5898 91.579 81.6313 93.4208L81.4077 90.9974H77.8936V114.359ZM81.8549 98.9784C81.8549 96.1027 83.5803 94.0993 86.2957 94.0993C89.0113 94.0993 90.6406 96.1349 90.6406 98.9784C90.6406 101.822 89.0113 103.825 86.2957 103.825C83.5803 103.825 81.8549 101.854 81.8549 98.9784Z" fill="#152C4F"/>
<path id="Vector_7" d="M95.5596 102.177C95.6875 105.344 98.1154 107.38 101.885 107.38C105.591 107.38 108.115 105.376 108.115 102.274C108.115 99.9801 106.709 98.4291 104.122 97.7829L101.342 97.1043C100.16 96.7812 99.3614 96.3612 99.3614 95.3273C99.3614 94.2286 100.224 93.4531 101.63 93.4531C103.099 93.4531 104.058 94.2932 104.058 95.6827H107.604C107.476 92.516 105.144 90.5127 101.726 90.5127C98.3391 90.5127 95.8152 92.516 95.8152 95.5534C95.8152 97.6214 96.9972 99.3338 100.032 100.142L102.78 100.853C103.802 101.143 104.441 101.628 104.441 102.533C104.441 103.793 103.259 104.375 101.821 104.375C100.096 104.375 99.1058 103.567 99.1058 102.177H95.5596Z" fill="#152C4F"/>
<path id="Vector_8" d="M116.2 107.379C118.341 107.379 120.385 106.377 121.312 104.891L121.567 106.959H125.209V90.9971H121.312V99.3658C121.312 102.242 120.225 103.857 117.67 103.857C115.689 103.857 114.315 102.888 114.315 99.5919V90.9971H110.417V100.981C110.417 104.794 112.462 107.379 116.2 107.379Z" fill="#152C4F"/>
<path id="Vector_9" d="M132.547 106.959V97.7829C132.547 95.1979 134.048 93.9701 135.902 93.9701C137.754 93.9701 138.968 95.1656 138.968 97.4275V106.959H142.77V97.8151C142.77 95.1979 144.24 93.9701 146.093 93.9701C147.978 93.9701 149.192 95.1656 149.192 97.4275V106.959H152.962V96.5227C152.962 92.8392 150.949 90.5127 147.115 90.5127C144.719 90.5127 142.834 91.6759 142.067 93.5501C141.205 91.6759 139.48 90.5127 136.86 90.5127C135.007 90.5127 133.346 91.3851 132.419 92.8068L132.227 90.9974H128.649V106.959H132.547Z" fill="#152C4F"/>
<path id="Vector_10" d="M71.7295 61.1567C66.5947 70.5007 56.1398 74.9463 45.5685 74.9463H3.15381C47.3077 69.3652 78.0577 47.0409 82 15.9463C85.9423 47.0409 116.692 69.3652 160.846 74.9463H118.431C107.86 74.9463 97.4052 70.5007 92.2705 61.1567C86.7128 51.0433 83.1719 39.5995 82 27.1085C80.828 39.5995 77.2872 51.0433 71.7295 61.1567Z" fill="#1A4688"/>
<path id="Vector_11" d="M47.4734 57.8542C44.9966 59.2643 42.3912 60.5888 39.6631 61.8225C38.1135 56.4095 37.5432 50.7304 37.998 45.0731C38.5996 37.5888 40.9765 30.3735 44.9182 24.0664C48.86 17.7593 54.2448 12.5548 60.5957 8.91417C66.9466 5.27356 74.0676 3.30906 81.3279 3.19475C88.5882 3.08041 95.7637 4.81978 102.219 8.25876C108.674 11.6977 114.209 16.7301 118.335 22.9103C122.46 29.0905 125.049 36.2275 125.87 43.6893C126.542 49.7926 126.016 55.9592 124.337 61.8225C121.609 60.5888 119.003 59.2642 116.527 57.8541C117.571 53.5675 117.864 49.108 117.377 44.6897C116.714 38.6725 114.627 32.9172 111.301 27.9336C107.974 22.95 103.51 18.8917 98.3045 16.1186C93.099 13.3454 87.3127 11.9428 81.458 12.035C75.6032 12.1271 69.8609 13.7113 64.7397 16.647C59.6183 19.5828 55.2759 23.7797 52.0973 28.8658C48.9187 33.9519 47.0019 39.7703 46.5169 45.8056C46.1908 49.8623 46.5181 53.933 47.4734 57.8542Z" fill="#7FB5E6"/>
</g>
</svg>
