<svg width="18" height="18" viewBox="0 0 18 18" fill="none" xmlns="http://www.w3.org/2000/svg">
<g id="Icon / bx-badge-check">
<path id="Vector" d="M3.02625 11.6093C3.00895 11.7388 3.00018 11.8693 3 12C3 13.7835 4.6035 15.213 6.39075 14.973C6.9105 15.8985 7.9005 16.5 9 16.5C10.0995 16.5 11.0895 15.8985 11.6093 14.973C13.3927 15.213 15 13.7835 15 12C15 11.8702 14.991 11.7397 14.9738 11.6093C15.8985 11.0895 16.5 10.0988 16.5 9C16.5 7.90125 15.8985 6.9105 14.9738 6.39075C14.991 6.26025 15 6.12975 15 6C15 4.2165 13.3927 2.784 11.6093 3.027C11.0895 2.1015 10.0995 1.5 9 1.5C7.9005 1.5 6.9105 2.1015 6.39075 3.027C4.6035 2.784 3 4.2165 3 6C3 6.12975 3.009 6.26025 3.02625 6.39075C2.1015 6.9105 1.5 7.90125 1.5 9C1.5 10.0988 2.1015 11.0895 3.02625 11.6093ZM4.10775 7.557L4.93425 7.33725L4.60875 6.5475C4.53736 6.37377 4.50042 6.18782 4.5 6C4.5 5.17275 5.17275 4.5 6 4.5C6.18525 4.5 6.37425 4.5375 6.5475 4.60875L7.338 4.93425L7.55775 4.10775C7.64239 3.78987 7.82968 3.50886 8.09049 3.3084C8.35131 3.10795 8.67105 2.99927 9 2.99927C9.32895 2.99927 9.64869 3.10795 9.90951 3.3084C10.1703 3.50886 10.3576 3.78987 10.4423 4.10775L10.662 4.93425L11.4525 4.60875C11.6258 4.5375 11.8147 4.5 12 4.5C12.8273 4.5 13.5 5.17275 13.5 6C13.5 6.18525 13.4625 6.375 13.3912 6.5475L13.0658 7.33725L13.8923 7.557C14.2094 7.64269 14.4895 7.83047 14.6892 8.0913C14.8889 8.35214 14.9971 8.67149 14.9971 9C14.9971 9.32851 14.8889 9.64787 14.6892 9.9087C14.4895 10.1695 14.2094 10.3573 13.8923 10.443L13.0658 10.6628L13.3912 11.4525C13.4625 11.625 13.5 11.8147 13.5 12C13.5 12.8273 12.8273 13.5 12 13.5C11.8147 13.5 11.6258 13.4625 11.4525 13.3912L10.662 13.0658L10.4423 13.8923C10.3576 14.2101 10.1703 14.4911 9.90951 14.6916C9.64869 14.8921 9.32895 15.0007 9 15.0007C8.67105 15.0007 8.35131 14.8921 8.09049 14.6916C7.82968 14.4911 7.64239 14.2101 7.55775 13.8923L7.338 13.0658L6.5475 13.3912C6.37376 13.4626 6.18782 13.4995 6 13.5C5.17275 13.5 4.5 12.8273 4.5 12C4.5 11.8147 4.5375 11.625 4.60875 11.4525L4.93425 10.6628L4.10775 10.443C3.79062 10.3573 3.51054 10.1695 3.31084 9.9087C3.11113 9.64787 3.00291 9.32851 3.00291 9C3.00291 8.67149 3.11113 8.35214 3.31084 8.0913C3.51054 7.83047 3.79062 7.64269 4.10775 7.557Z" fill="#B52046"/>
<path id="Vector_2" d="M11.8065 8.03277L10.7505 6.96777L8.25223 9.44202L7.28023 8.47002L6.21973 9.53052L8.24773 11.5585L11.8065 8.03277Z" fill="#B52046"/>
</g>
</svg>
