<svg width="22" height="24" viewBox="0 0 22 24" fill="none" xmlns="http://www.w3.org/2000/svg">
<g id="Group 1">
<path id="Vector" d="M0.877863 24C0.45457 24 0.109985 23.6554 0.109985 23.2321C0.109985 20.7159 1.08711 18.3383 2.86091 16.5367C4.64382 14.7264 7.00744 13.7296 9.51648 13.7296H12.396C14.9051 13.7296 17.2687 14.7264 19.0516 16.5367C20.8254 18.3378 21.8025 20.7159 21.8025 23.2321C21.8025 23.6554 21.4579 24 21.0346 24H0.877863ZM9.51648 15.2654C5.5336 15.2654 2.09495 18.4041 1.68701 22.4114L1.68173 22.4642H20.2303L20.225 22.4114C19.8176 18.4045 16.3784 15.2654 12.3955 15.2654H9.516H9.51648Z" fill="#6A6666"/>
<path id="Vector_2" d="M10.9562 13.0539C10.9073 13.0539 10.8583 13.0534 10.8094 13.0525C9.12819 13.0155 7.543 12.3355 6.34511 11.1381C5.1477 9.94065 4.46765 8.35498 4.4307 6.67381C4.39183 4.90434 5.05268 3.23228 6.29184 1.96577C7.53196 0.697808 9.18818 0 10.9562 0C11.0052 0 11.0541 0.000479923 11.1031 0.00143977C12.7842 0.0383939 14.3694 0.718445 15.5673 1.91585C16.7647 3.11326 17.4448 4.69893 17.4817 6.3801C17.5206 8.14958 16.8598 9.82163 15.6206 11.0886C14.3809 12.3561 12.7243 13.0539 10.9567 13.0539H10.9562ZM10.9562 1.53575C10.9015 1.53575 10.8458 1.53671 10.7906 1.53863C8.17122 1.62358 6.05284 3.74244 5.96789 6.36138C5.92374 7.72484 6.4219 9.01536 7.37119 9.99632C8.32096 10.9778 9.59419 11.5182 10.9562 11.5182C11.0109 11.5182 11.0666 11.5172 11.1218 11.5153C13.7412 11.4303 15.8596 9.31147 15.9445 6.69253C15.9887 5.32907 15.4905 4.03855 14.5412 3.05759C13.5915 2.07615 12.3182 1.53575 10.9562 1.53575Z" fill="#6A6666"/>
</g>
</svg>
