<svg width="250" height="250" viewBox="0 0 250 250" fill="none" xmlns="http://www.w3.org/2000/svg">
<path d="M142.167 152.817H182.241C178.852 138.377 165.905 127.618 150.437 127.618C132.407 127.618 117.778 142.245 117.778 160.292C117.778 178.338 132.405 192.951 150.437 192.951C160.518 192.951 169.525 188.389 175.507 181.22L191.569 187.708C182.706 200.975 167.599 209.722 150.437 209.722C123.136 209.722 101.007 187.593 101.007 160.292C101.007 132.991 123.136 110.861 150.437 110.861C175.204 110.861 195.711 129.067 199.303 152.817C199.68 155.25 199.868 157.741 199.868 160.289C199.868 162.838 199.68 165.329 199.303 167.762H142.169V152.815L142.167 152.817Z" fill="white"/>
<path d="M106.81 116.662C95.155 128.315 88.7383 143.808 88.7383 160.289C88.7383 176.771 95.155 192.264 106.81 203.917C108.94 206.046 111.197 208 113.567 209.773H60.2013C54.4929 209.773 50.0253 204.856 50.567 199.174L60.8679 91.412C61.3425 86.4491 65.5138 82.6574 70.5022 82.6574H72.7152V91.537C72.7152 96.1829 76.4814 99.9491 81.1272 99.9491C85.773 99.9491 89.5392 96.1829 89.5392 91.537V82.6574H122.891V91.537C122.891 96.1829 126.657 99.9491 131.303 99.9491C135.949 99.9491 139.715 96.1829 139.715 91.537V82.6574H141.704C146.69 82.6574 150.861 86.4491 151.336 91.412L152.023 98.6111C151.495 98.5972 150.967 98.5903 150.437 98.5903C133.956 98.5903 118.463 105.009 106.81 116.662Z" fill="white"/>
<path d="M131.303 95.4421C129.146 95.4421 127.398 93.6921 127.398 91.537V68.8056C127.398 57.125 117.896 47.6227 106.215 47.6227C94.5347 47.6227 85.0324 57.125 85.0324 68.8056V91.537C85.0324 93.6944 83.2824 95.4421 81.1273 95.4421C78.9722 95.4421 77.2222 93.6921 77.2222 91.537V68.8056C77.2222 52.8194 90.2291 39.8125 106.215 39.8125C122.201 39.8125 135.208 52.8194 135.208 68.8056V91.537C135.208 93.6944 133.458 95.4421 131.303 95.4421Z" fill="white"/>
</svg>
