<svg width="24" height="24" viewBox="0 0 24 24" fill="none" xmlns="http://www.w3.org/2000/svg">
<g id="Apple 1" clip-path="url(#clip0_1635_2018)">
<g id="Clip path group">
<mask id="mask0_1635_2018" style="mask-type:luminance" maskUnits="userSpaceOnUse" x="0" y="0" width="24" height="24">
<g id="clip0_143_95">
<path id="Vector" d="M24 0H0V24H24V0Z" fill="white"/>
</g>
</mask>
<g mask="url(#mask0_1635_2018)">
<g id="Group">
<path id="Vector_2" d="M18.5296 12.7651C18.4966 9.73364 21.0099 8.25649 21.1312 8.19035C19.7091 6.11794 17.5045 5.83133 16.7328 5.80929C14.8809 5.61087 13.084 6.91163 12.1471 6.91163C11.2101 6.91163 9.73292 5.82031 8.16759 5.85338C6.1503 5.88645 4.26529 7.05494 3.24011 8.86278C1.11258 12.5556 2.69996 17.9792 4.7393 20.9665C5.76448 22.4326 6.95501 24.0641 8.52034 23.998C10.0526 23.9318 10.6258 23.0279 12.4667 23.0279C14.3077 23.0279 14.8258 23.998 16.4242 23.9649C18.0666 23.9428 19.1029 22.4988 20.0839 21.0216C21.2635 19.3461 21.7375 17.6925 21.7595 17.6154C21.7264 17.6044 18.5737 16.4028 18.5407 12.7651H18.5296Z" fill="#181818"/>
<path id="Vector_3" d="M15.5199 3.84709C16.3467 2.82191 16.9089 1.42194 16.7435 -9.15527e-05C15.553 0.0550257 14.0648 0.826667 13.205 1.8298C12.4444 2.71168 11.772 4.16677 11.9483 5.53368C13.2822 5.63289 14.6601 4.86125 15.5199 3.84709Z" fill="#181818"/>
</g>
</g>
</g>
</g>
<defs>
<clipPath id="clip0_1635_2018">
<rect width="24" height="24" fill="white"/>
</clipPath>
</defs>
</svg>
