<svg width="30" height="30" viewBox="0 0 30 30" fill="none" xmlns="http://www.w3.org/2000/svg">
<path d="M1.60749 10.1756H28.3932C28.5352 10.1752 28.6712 10.1186 28.7715 10.0183C28.8719 9.91789 28.9285 9.78187 28.9289 9.63992V8.03278C28.9291 7.9317 28.9005 7.83266 28.8464 7.74727C28.7923 7.66188 28.715 7.59367 28.6236 7.55064L15.2307 1.12206C15.1588 1.08767 15.0801 1.06982 15.0004 1.06982C14.9206 1.06982 14.8419 1.08767 14.77 1.12206L1.37714 7.55064C1.28568 7.59367 1.20838 7.66188 1.1543 7.74727C1.10021 7.83266 1.07159 7.9317 1.07178 8.03278V9.63992C1.0722 9.78187 1.12878 9.91789 1.22915 10.0183C1.32953 10.1186 1.46554 10.1752 1.60749 10.1756Z" fill="#0071BC"/>
<path d="M8.5715 11.7828C8.57107 11.6408 8.5145 11.5048 8.41412 11.4044C8.31375 11.3041 8.17773 11.2475 8.03578 11.2471H3.75007C3.60799 11.2471 3.47173 11.3035 3.37126 11.404C3.2708 11.5044 3.21436 11.6407 3.21436 11.7828C3.21436 11.9249 3.2708 12.0611 3.37126 12.1616C3.47173 12.2621 3.60799 12.3185 3.75007 12.3185H8.03578C8.17773 12.3181 8.31375 12.2615 8.41412 12.1611C8.5145 12.0607 8.57107 11.9247 8.5715 11.7828Z" fill="#0071BC"/>
<path d="M26.7859 11.7828C26.7854 11.6408 26.7289 11.5048 26.6285 11.4044C26.5281 11.3041 26.3921 11.2475 26.2501 11.2471H21.9644C21.8223 11.2471 21.6861 11.3035 21.5856 11.404C21.4852 11.5044 21.4287 11.6407 21.4287 11.7828C21.4287 11.9249 21.4852 12.0611 21.5856 12.1616C21.6861 12.2621 21.8223 12.3185 21.9644 12.3185H26.2501C26.3921 12.3181 26.5281 12.2615 26.6285 12.1611C26.7289 12.0607 26.7854 11.9247 26.7859 11.7828Z" fill="#0071BC"/>
<path d="M3.75007 24.6403H8.03578C8.17786 24.6403 8.31413 24.5838 8.41459 24.4834C8.51506 24.3829 8.5715 24.2466 8.5715 24.1046C8.5715 23.9625 8.51506 23.8262 8.41459 23.7258C8.31413 23.6253 8.17786 23.5688 8.03578 23.5688H3.75007C3.60799 23.5688 3.47173 23.6253 3.37126 23.7258C3.2708 23.8262 3.21436 23.9625 3.21436 24.1046C3.21436 24.2466 3.2708 24.3829 3.37126 24.4834C3.47173 24.5838 3.60799 24.6403 3.75007 24.6403Z" fill="#0071BC"/>
<path d="M21.9644 24.6403H26.2501C26.3922 24.6403 26.5285 24.5838 26.6289 24.4834C26.7294 24.3829 26.7859 24.2466 26.7859 24.1046C26.7859 23.9625 26.7294 23.8262 26.6289 23.7258C26.5285 23.6253 26.3922 23.5688 26.2501 23.5688H21.9644C21.8223 23.5688 21.6861 23.6253 21.5856 23.7258C21.4852 23.8262 21.4287 23.9625 21.4287 24.1046C21.4287 24.2466 21.4852 24.3829 21.5856 24.4834C21.6861 24.5838 21.8223 24.6403 21.9644 24.6403Z" fill="#0071BC"/>
<path d="M4.28564 13.3896H7.49993V22.4968H4.28564V13.3896Z" fill="#0071BC"/>
<path d="M22.5 13.3896H25.7143V22.4968H22.5V13.3896Z" fill="#0071BC"/>
<path d="M1.60693 26.2471C1.60689 26.3175 1.62072 26.3872 1.64763 26.4522C1.67454 26.5172 1.714 26.5763 1.76375 26.626C1.8135 26.6758 1.87258 26.7153 1.93759 26.7422C2.00261 26.7691 2.07229 26.7829 2.14265 26.7829H27.8569C27.999 26.7829 28.1353 26.7264 28.2357 26.6259C28.3362 26.5255 28.3927 26.3892 28.3927 26.2471C28.3927 26.1051 28.3362 25.9688 28.2357 25.8683C28.1353 25.7679 27.999 25.7114 27.8569 25.7114H2.14265C2.07229 25.7114 2.00261 25.7252 1.93759 25.7521C1.87258 25.779 1.8135 25.8185 1.76375 25.8682C1.714 25.918 1.67454 25.9771 1.64763 26.0421C1.62072 26.1071 1.60689 26.1768 1.60693 26.2471Z" fill="#0071BC"/>
<path d="M29.4643 27.854H0.535714C0.393634 27.854 0.257373 27.9104 0.156907 28.0109C0.0564413 28.1114 0 28.2476 0 28.3897C0 28.5318 0.0564413 28.6681 0.156907 28.7685C0.257373 28.869 0.393634 28.9254 0.535714 28.9254H29.4643C29.6064 28.9254 29.7426 28.869 29.8431 28.7685C29.9436 28.6681 30 28.5318 30 28.3897C30 28.2476 29.9436 28.1114 29.8431 28.0109C29.7426 27.9104 29.6064 27.854 29.4643 27.854Z" fill="#0071BC"/>
<path d="M13.289 15.1008C13.2393 15.051 13.1802 15.0116 13.1152 14.9846C13.0503 14.9577 12.9806 14.9438 12.9103 14.9438C12.8399 14.9438 12.7702 14.9577 12.7053 14.9846C12.6403 15.0116 12.5812 15.051 12.5315 15.1008L11.1389 16.4934C11.0639 16.5684 11.0129 16.6638 10.9922 16.7677C10.9716 16.8716 10.9822 16.9793 11.0227 17.0772C11.0632 17.1751 11.1319 17.2588 11.22 17.3176C11.3081 17.3765 11.4117 17.4079 11.5176 17.4079H18.4819C18.624 17.4079 18.7602 17.3515 18.8607 17.251C18.9612 17.1505 19.0176 17.0143 19.0176 16.8722C19.0176 16.7301 18.9612 16.5938 18.8607 16.4934C18.7602 16.3929 18.624 16.3365 18.4819 16.3365H12.8108L13.289 15.8583C13.3388 15.8086 13.3782 15.7495 13.4052 15.6845C13.4321 15.6196 13.446 15.5499 13.446 15.4796C13.446 15.4092 13.4321 15.3395 13.4052 15.2746C13.3782 15.2096 13.3388 15.1505 13.289 15.1008Z" fill="#0071BC"/>
<path d="M11.5176 19.5504H17.1887L16.7105 20.0286C16.6608 20.0783 16.6213 20.1374 16.5944 20.2024C16.5675 20.2673 16.5536 20.337 16.5536 20.4073C16.5536 20.4777 16.5675 20.5473 16.5944 20.6123C16.6213 20.6773 16.6608 20.7364 16.7105 20.7861C16.7603 20.8359 16.8193 20.8753 16.8843 20.9022C16.9493 20.9291 17.0189 20.943 17.0893 20.943C17.1596 20.943 17.2293 20.9291 17.2943 20.9022C17.3593 20.8753 17.4183 20.8359 17.4681 20.7861L18.8607 19.3935C18.9356 19.3186 18.9866 19.2231 19.0073 19.1192C19.028 19.0153 19.0174 18.9076 18.9768 18.8097C18.9363 18.7118 18.8676 18.6282 18.7795 18.5693C18.6914 18.5104 18.5879 18.479 18.4819 18.479H11.5176C11.3756 18.479 11.2393 18.5354 11.1388 18.6359C11.0384 18.7364 10.9819 18.8726 10.9819 19.0147C10.9819 19.1568 11.0384 19.2931 11.1388 19.3935C11.2393 19.494 11.3756 19.5504 11.5176 19.5504Z" fill="#0071BC"/>
</svg>
