<svg width="24" height="24" viewBox="0 0 24 24" fill="none" xmlns="http://www.w3.org/2000/svg">
<g id="Shoping Bag/Default">
<path id="Vector" d="M11.9973 24C6.90833 23.9682 4.42894 23.7106 3.1911 22.2697C1.90202 20.7688 2.25556 18.3554 2.8971 13.9735C3.17725 12.0586 3.52618 9.67615 3.81741 6.81277C3.92356 5.74246 4.81433 4.93523 5.88925 4.93523H7.14233V4.85862C7.14187 2.17938 9.32171 0 12.0005 0C14.6793 0 16.8591 2.17938 16.8591 4.85862V4.93523H18.1122C19.188 4.93523 20.0783 5.74246 20.184 6.81323C20.4753 9.67615 20.8237 12.0577 21.1039 13.9717C21.7459 18.3554 22.0989 20.7692 20.8099 22.2697C19.572 23.7111 17.0931 23.9686 12.0046 24H11.9973ZM5.89156 6.41215C5.57725 6.41215 5.31741 6.648 5.28648 6.96092C4.99202 9.85846 4.64033 12.2585 4.35787 14.1868C3.77956 18.1398 3.4611 20.3174 4.31171 21.3074C5.15956 22.2942 7.66848 22.4958 12.0019 22.5231C16.3339 22.4958 18.8419 22.2942 19.6897 21.3074C20.5403 20.3174 20.2219 18.1408 19.6436 14.1891C19.3606 12.2589 19.0089 9.85708 18.7145 6.96138C18.6836 6.648 18.4233 6.41215 18.1094 6.41215H16.8591V8.33261C16.8591 8.73969 16.5277 9.07108 16.1206 9.07108C15.7136 9.07108 15.3822 8.73969 15.3822 8.33261V6.41215H8.61925V8.36492C8.61925 8.772 8.28787 9.10338 7.88079 9.10338C7.47371 9.10338 7.14233 8.772 7.14233 8.36492V6.41215H5.89156ZM12.0005 1.47692C10.1359 1.47692 8.61879 2.994 8.61879 4.85862V4.93523H15.3822V4.85862C15.3822 2.994 13.8651 1.47692 12.0005 1.47692Z" fill="#201A1A" fill-opacity="0.67"/>
<path id="Line" d="M9.5 20H14.5" stroke="#201A1A" stroke-opacity="0.67" stroke-linecap="round"/>
</g>
</svg>
