<svg width="24" height="24" viewBox="0 0 24 24" fill="none" xmlns="http://www.w3.org/2000/svg">
<g id="Shoping Bag/Default">
<path id="Vector" d="M11.9973 24C6.90839 23.9682 4.42901 23.7106 3.19116 22.2697C1.90208 20.7688 2.25562 18.3554 2.89716 13.9735C3.17731 12.0586 3.52624 9.67615 3.81747 6.81277C3.92362 5.74246 4.81439 4.93523 5.88931 4.93523H7.14239V4.85862C7.14193 2.17938 9.32178 0 12.0005 0C14.6793 0 16.8592 2.17938 16.8592 4.85862V4.93523H18.1122C19.1881 4.93523 20.0784 5.74246 20.1841 6.81323C20.4753 9.67615 20.8238 12.0577 21.1039 13.9717C21.7459 18.3554 22.099 20.7692 20.8099 22.2697C19.5721 23.7111 17.0932 23.9686 12.0047 24H11.9973ZM5.89162 6.41215C5.57731 6.41215 5.31747 6.648 5.28654 6.96092C4.99208 9.85846 4.64039 12.2585 4.35793 14.1868C3.77962 18.1398 3.46116 20.3174 4.31178 21.3074C5.15962 22.2942 7.66854 22.4958 12.0019 22.5231C16.3339 22.4958 18.8419 22.2942 19.6898 21.3074C20.5404 20.3174 20.2219 18.1408 19.6436 14.1891C19.3607 12.2589 19.009 9.85708 18.7145 6.96138C18.6836 6.648 18.4233 6.41215 18.1095 6.41215H16.8592V8.33261C16.8592 8.73969 16.5278 9.07108 16.1207 9.07108C15.7136 9.07108 15.3822 8.73969 15.3822 8.33261V6.41215H8.61931V8.36492C8.61931 8.772 8.28793 9.10338 7.88085 9.10338C7.47377 9.10338 7.14239 8.772 7.14239 8.36492V6.41215H5.89162ZM12.0005 1.47692C10.1359 1.47692 8.61885 2.994 8.61885 4.85862V4.93523H15.3822V4.85862C15.3822 2.994 13.8652 1.47692 12.0005 1.47692Z" fill="#201A1A"/>
<path id="Line" d="M9.5 20H14.5" stroke="#201A1A" stroke-linecap="round"/>
</g>
</svg>
