<svg width="24" height="24" viewBox="0 0 24 24" fill="none" xmlns="http://www.w3.org/2000/svg">
<g id="Category/Default" clip-path="url(#clip0_231_317)">
<path id="Vector" d="M1.70252 6.34751C0.763671 6.34751 0 5.58384 0 4.64499V1.70299C0 0.763671 0.763671 0 1.70252 0H22.297C23.2359 0 24 0.763671 24 1.70252V4.64452C24 5.58337 23.2363 6.34704 22.297 6.34704H1.70252V6.34751ZM1.70252 1.44401C1.56001 1.44401 1.44401 1.56001 1.44401 1.70252V4.64452C1.44401 4.78703 1.56001 4.90302 1.70252 4.90302H22.297C22.4395 4.90302 22.5555 4.78703 22.5555 4.64452V1.70252C22.5555 1.56001 22.4395 1.44401 22.297 1.44401H1.70252Z" fill="#201A1A" fill-opacity="0.67"/>
<path id="Vector_2" d="M9.54798 15.1736C8.60913 15.1736 7.84546 14.4099 7.84546 13.4711V10.5291C7.84546 9.59021 8.60913 8.82654 9.54798 8.82654H22.297C23.2358 8.82654 24 9.59021 24 10.5291V13.4711C24 14.4099 23.2363 15.1736 22.297 15.1736H9.54798ZM9.54798 10.2701C9.40547 10.2701 9.28947 10.3861 9.28947 10.5286V13.4706C9.28947 13.6131 9.40547 13.7291 9.54798 13.7291H22.297C22.4395 13.7291 22.5555 13.6131 22.5555 13.4706V10.5286C22.5555 10.3861 22.4395 10.2701 22.297 10.2701H9.54798Z" fill="#201A1A" fill-opacity="0.67"/>
<path id="Vector_3" d="M3.17399 15.1736C1.42366 15.1736 0 13.7499 0 12C0 10.2502 1.42366 8.82605 3.17399 8.82605C4.92433 8.82605 6.34798 10.2497 6.34798 12C6.34798 13.7504 4.92433 15.174 3.17399 15.174V15.1736ZM3.17399 10.2701C2.22047 10.2701 1.44449 11.046 1.44449 11.9996C1.44449 12.9531 2.22047 13.7291 3.17399 13.7291C4.12752 13.7291 4.9035 12.9531 4.9035 11.9996C4.9035 11.046 4.12752 10.2701 3.17399 10.2701Z" fill="#201A1A" fill-opacity="0.67"/>
<path id="Vector_4" d="M1.70252 24C0.763671 24 0 23.2363 0 22.2975V19.3555C0 18.4166 0.763671 17.6525 1.70252 17.6525H14.4515C15.3904 17.6525 16.1545 18.4161 16.1545 19.3555V22.2975C16.1545 23.2363 15.3908 24 14.4515 24H1.70252ZM1.70252 19.0965C1.56001 19.0965 1.44401 19.2125 1.44401 19.355V22.297C1.44401 22.4395 1.56001 22.5555 1.70252 22.5555H14.4515C14.594 22.5555 14.71 22.4395 14.71 22.297V19.355C14.71 19.2125 14.594 19.0965 14.4515 19.0965H1.70252Z" fill="#201A1A" fill-opacity="0.67"/>
<path id="Vector_5" d="M20.826 24C19.0761 24 17.652 22.5763 17.652 20.826C17.652 19.0756 19.0756 17.652 20.826 17.652C22.5763 17.652 24 19.0756 24 20.826C24 22.5763 22.5763 24 20.826 24ZM20.826 19.0965C19.8724 19.0965 19.0965 19.8724 19.0965 20.826C19.0965 21.7795 19.8724 22.5555 20.826 22.5555C21.7795 22.5555 22.5555 21.7795 22.5555 20.826C22.5555 19.8724 21.7795 19.0965 20.826 19.0965Z" fill="#201A1A" fill-opacity="0.67"/>
</g>
<defs>
<clipPath id="clip0_231_317">
<rect width="24" height="24" fill="white"/>
</clipPath>
</defs>
</svg>
