<svg width="30" height="30" viewBox="0 0 30 30" fill="none" xmlns="http://www.w3.org/2000/svg">
<g id="ic_cash">
<path id="Path 12471" d="M20.5092 23.584C20.2172 23.491 20.1582 23.3561 20.1602 23.0791C20.1702 20.3764 20.1702 17.6739 20.1602 14.9712C20.1853 14.6621 20.1431 14.3513 20.0366 14.0601C19.9301 13.7689 19.7618 13.5041 19.5432 13.2842C19.3246 13.0643 19.0609 12.8944 18.7704 12.7861C18.4798 12.6779 18.1693 12.6337 17.8601 12.657H8.10815C7.77958 12.617 7.44616 12.6528 7.13342 12.7612C6.82069 12.8697 6.53691 13.048 6.30359 13.2827C6.07027 13.5175 5.89359 13.8023 5.78711 14.1157C5.68063 14.4291 5.64708 14.7628 5.68909 15.0911V22.2361C5.67409 22.4431 5.54017 22.5102 5.39917 22.3792C5.28158 22.2911 5.14756 22.2275 5.005 22.1921C4.86245 22.1568 4.71419 22.1503 4.56909 22.1731H1.76013C1.12113 22.1731 0.913086 22.3791 0.913086 23.0061V28.7061C0.913086 29.3321 1.13215 29.5571 1.75415 29.5601H4.72412C5.30312 29.5601 5.51608 29.3601 5.55908 28.7761C5.57008 28.6181 5.59108 28.532 5.77808 28.532C6.33947 28.5014 6.90245 28.513 7.46216 28.5662C8.72916 28.7542 10.0001 28.9431 11.2621 29.1521C12.5089 29.4287 13.812 29.2883 14.9711 28.7522C15.3481 28.5642 15.7711 28.4452 16.1631 28.2852C17.6221 27.6952 19.0841 27.1101 20.5391 26.5071C20.8326 26.3894 21.0838 26.1858 21.2595 25.9229C21.4353 25.6599 21.5275 25.35 21.524 25.0337C21.5206 24.7174 21.4217 24.4097 21.2402 24.1506C21.0588 23.8916 20.8031 23.6933 20.5071 23.582L20.5092 23.584ZM3.21814 26.9292C3.31661 26.9242 3.41427 26.9488 3.49854 27C3.5828 27.0512 3.64974 27.1266 3.69067 27.2163C3.7316 27.306 3.74471 27.406 3.72815 27.5032C3.71159 27.6004 3.66622 27.6904 3.5979 27.7615C3.52958 27.8326 3.44143 27.8814 3.34497 27.9019C3.24851 27.9223 3.14815 27.9133 3.05688 27.876C2.96562 27.8387 2.88765 27.7745 2.83313 27.6924C2.77861 27.6102 2.75002 27.5136 2.7511 27.415C2.7527 27.2899 2.80183 27.1701 2.88855 27.0798C2.97527 26.9896 3.09315 26.9358 3.21814 26.9292ZM11.2852 21.0542C11.8512 21.0442 12.4051 21.0542 12.9651 21.0542H14.6061C14.8121 21.0542 14.9111 21.0801 14.9171 21.3291C14.9411 22.2471 14.9531 22.239 14.0441 22.062C13.1351 21.885 12.1851 21.719 11.2551 21.551C11.0781 21.519 10.9212 21.5021 10.9362 21.2461C10.9512 20.9901 11.1471 21.0631 11.2701 21.0591L11.2852 21.0542ZM11.9491 13.2681C12.6024 13.2794 13.2562 13.2794 13.9102 13.2681C14.1192 13.2681 14.1851 13.3251 14.1801 13.5361C14.1671 14.1021 14.1801 14.6812 14.1801 15.2752C14.1011 15.2752 14.0692 15.2752 14.0502 15.2622C13.746 15.0245 13.3729 14.8919 12.9869 14.8845C12.601 14.8771 12.2232 14.9953 11.9102 15.2212C11.7012 15.3682 11.6761 15.2211 11.6801 15.0491C11.6801 14.5421 11.6931 14.0341 11.6801 13.5291C11.6591 13.3141 11.7461 13.2731 11.9421 13.2771L11.9491 13.2681ZM20.3121 25.9512C18.0661 26.8732 15.8282 27.82 13.5352 28.625C13.1453 28.7245 12.7385 28.7375 12.3431 28.6631C10.6431 28.5101 8.9851 28.1732 7.3031 27.9492C6.82459 27.8942 6.34161 27.889 5.86206 27.9341C5.63206 27.9511 5.56213 27.902 5.56213 27.666C5.57513 26.93 5.56213 26.1952 5.56213 25.4602V23.3272C5.56213 23.1862 5.52412 23.0422 5.75012 22.9922C6.53685 22.78 7.3059 22.5067 8.05017 22.1751C8.89896 21.8757 9.81695 21.8325 10.6901 22.051C11.9381 22.2804 13.1852 22.5139 14.4312 22.7512C15.0172 22.8622 15.2811 23.1731 15.2211 23.6641C15.1661 24.1151 14.8141 24.3642 14.2501 24.3372C12.9835 24.2818 11.7138 24.2241 10.4412 24.1641C10.2302 24.1531 10.0171 24.1381 9.96606 24.4031C9.91506 24.6681 10.1301 24.754 10.3221 24.803C12.0462 25.4433 13.9208 25.5604 15.7111 25.1392C16.9861 24.7392 18.2901 24.4542 19.5861 24.1262C19.7274 24.0735 19.879 24.054 20.0291 24.0693C20.1791 24.0847 20.3236 24.1343 20.4513 24.2146C20.579 24.2949 20.6865 24.4036 20.7654 24.5322C20.8443 24.6608 20.8924 24.8058 20.9061 24.9561C20.9326 25.1665 20.8873 25.3798 20.7775 25.5613C20.6677 25.7428 20.4999 25.8818 20.3011 25.9561L20.3121 25.9512Z" fill="#002F35"/>
<path id="Path 12472" d="M28.2634 0.768949H25.3714C25.2124 0.740343 25.0485 0.759839 24.9007 0.824857C24.7528 0.889876 24.6278 0.997573 24.5414 1.13406C24.5231 1.16984 24.4938 1.19872 24.4578 1.2167C24.4219 1.23469 24.381 1.24081 24.3414 1.23404C23.7417 1.27609 23.1395 1.26665 22.5414 1.20596C21.2724 1.01696 20.0074 0.79701 18.7344 0.63101C17.9768 0.453414 17.1926 0.419519 16.4224 0.531034C14.9187 0.905347 13.4589 1.43798 12.0674 2.12002C11.8006 2.23083 11.5714 2.41632 11.4075 2.6542C11.2436 2.89209 11.1519 3.1722 11.1434 3.46097C11.1365 3.56484 11.1088 3.66636 11.0619 3.75931C11.015 3.85225 10.9499 3.93473 10.8704 4.00198C10.4788 4.39257 10.17 4.85823 9.96258 5.371C9.75516 5.88377 9.65331 6.43319 9.66326 6.98623C9.67322 7.53928 9.7947 8.08453 10.0204 8.58951C10.2462 9.09448 10.5715 9.54872 10.977 9.92496C11.3824 10.3012 11.8598 10.5917 12.3802 10.7791C12.9006 10.9665 13.4534 11.047 14.0057 11.0157C14.5579 10.9843 15.0982 10.8417 15.594 10.5966C16.0899 10.3515 16.5312 10.0088 16.8914 9.58902C17.0371 9.37245 17.2335 9.19479 17.4636 9.07156C17.6936 8.94833 17.9504 8.88323 18.2114 8.88199C18.2649 8.88015 18.3184 8.87513 18.3714 8.86697C20.1457 8.7301 21.8883 8.31999 23.5374 7.65103C23.8164 7.52503 24.1164 7.45102 24.4274 7.34402C24.5614 8.02702 24.7164 8.15701 25.3454 8.15701H28.3174C28.9004 8.15701 29.1174 7.93796 29.1174 7.35696V1.61307C29.1124 0.990065 28.8914 0.770949 28.2634 0.768949ZM24.4634 6.49405C24.4634 6.68205 24.4034 6.74304 24.2234 6.78604C23.9002 6.86225 23.5846 6.96762 23.2805 7.10098C21.613 7.76103 19.8549 8.16361 18.0665 8.29495C17.3665 8.38395 16.6594 8.47004 15.9544 8.53604C15.7725 8.55817 15.5884 8.51965 15.4306 8.42654C15.2728 8.33344 15.15 8.19093 15.0814 8.02102C15.0018 7.86446 14.9721 7.68728 14.9963 7.51333C15.0204 7.33939 15.0972 7.177 15.2164 7.048C15.3951 6.86527 15.628 6.74498 15.8804 6.70498L19.4723 5.72195C19.5493 5.70095 19.6254 5.67296 19.7024 5.65396C19.8914 5.60696 20.0794 5.539 20.0604 5.298C20.0414 5.057 19.8723 5.03595 19.6963 4.99795C18.8963 4.82495 18.1065 4.64005 17.3115 4.46805C17.1809 4.44514 17.0618 4.37892 16.9734 4.28006C16.3881 3.54427 15.5642 3.03591 14.644 2.84292C13.7238 2.64994 12.765 2.78444 11.9334 3.22305C11.897 3.23193 11.8599 3.23758 11.8224 3.24002C11.8217 3.13439 11.8538 3.03115 11.9144 2.94461C11.9749 2.85806 12.061 2.79247 12.1605 2.75699C13.576 2.00124 15.0884 1.44311 16.6555 1.09805C17.4428 1.0169 18.2383 1.07308 19.0064 1.26407C20.2664 1.43207 21.5164 1.64098 22.7774 1.82998C23.2567 1.88186 23.7401 1.88186 24.2194 1.82998C24.4194 1.81698 24.4704 1.87702 24.4704 2.06802C24.4564 3.55002 24.4534 5.02829 24.4614 6.50296L24.4634 6.49405ZM26.8394 5.38101C26.9018 5.38336 26.963 5.39839 27.0195 5.42508C27.0759 5.45177 27.1264 5.48955 27.1678 5.53628C27.2092 5.58301 27.2407 5.63768 27.2604 5.69693C27.2801 5.75617 27.2876 5.81879 27.2824 5.88101C27.2848 5.94833 27.2729 6.01544 27.2474 6.07779C27.2219 6.14014 27.1833 6.19636 27.1345 6.2427C27.0856 6.28905 27.0273 6.32446 26.9637 6.34659C26.9 6.36872 26.8325 6.377 26.7654 6.371C26.7011 6.37129 26.6374 6.35835 26.5783 6.33291C26.5192 6.30748 26.4659 6.27009 26.4219 6.22317C26.3779 6.17625 26.344 6.1208 26.3224 6.06021C26.3008 5.99961 26.292 5.93518 26.2964 5.871C26.2964 5.80285 26.3106 5.73547 26.3381 5.67312C26.3656 5.61078 26.4059 5.55486 26.4562 5.50894C26.5066 5.46301 26.5659 5.42808 26.6305 5.4064C26.6952 5.38472 26.7635 5.3767 26.8314 5.38296L26.8394 5.38101Z" fill="#002F35"/>
<path id="Path 12473" d="M6.38535 22.1353C6.38535 19.5953 6.37635 17.1193 6.38535 14.6443C6.39468 14.2643 6.5513 13.9026 6.82224 13.636C7.09318 13.3693 7.45712 13.2183 7.83725 13.2151C8.83725 13.2001 9.84534 13.2151 10.8543 13.2041C11.1243 13.2041 11.1543 13.3141 11.1543 13.5381C11.1433 14.1941 11.1543 14.8581 11.1543 15.5051C11.1543 16.0121 11.3424 16.1672 11.7544 15.9102C12.1221 15.6491 12.5618 15.5088 13.0128 15.5088C13.4638 15.5088 13.9036 15.6491 14.2713 15.9102C14.6803 16.1692 14.8713 16.0103 14.8763 15.5103C14.8763 14.8413 14.8853 14.1712 14.8763 13.5022C14.8763 13.2722 14.9494 13.2082 15.1764 13.2092C16.1764 13.2202 17.1843 13.2092 18.1933 13.2092C18.5736 13.2107 18.9382 13.3608 19.2092 13.6277C19.4802 13.8945 19.636 14.257 19.6433 14.6372C19.6583 17.4882 19.6433 20.3372 19.6433 23.1882C19.6433 23.3162 19.6693 23.4491 19.4753 23.4961C18.2063 23.8151 16.9503 24.1842 15.6683 24.4502C15.6344 24.4503 15.6007 24.4451 15.5683 24.4351C15.7842 24.2034 15.9139 23.9048 15.9355 23.5889C15.9572 23.273 15.8696 22.9592 15.6873 22.7002C15.6262 22.5845 15.6008 22.4534 15.6144 22.3232V20.8372C15.6144 20.5202 15.4933 20.3701 15.1633 20.3711C13.7313 20.3778 12.2979 20.3778 10.8633 20.3711C10.4713 20.3711 10.3753 20.5881 10.4103 20.9141C10.4453 21.2401 10.3674 21.3573 9.99936 21.2913C9.34768 21.1858 8.67942 21.2648 8.07028 21.5193C7.52628 21.7093 6.98535 21.9153 6.38535 22.1353Z" fill="#1C7D88"/>
<path id="Path 12474" d="M4.93799 25.8871V23.1212C4.93799 22.8762 4.89099 22.7632 4.60999 22.7672C3.66699 22.7842 2.738 22.7802 1.802 22.7672C1.551 22.7672 1.48096 22.86 1.48096 23.097C1.48762 24.9424 1.48762 26.7872 1.48096 28.6312C1.48096 28.8682 1.54302 28.9592 1.79602 28.9552C2.72935 28.9425 3.66534 28.9425 4.604 28.9552C4.872 28.9552 4.94199 28.8682 4.93799 28.6122C4.92999 27.7062 4.93799 26.7981 4.93799 25.8871ZM2.73792 27.4242C2.73316 27.36 2.74214 27.2956 2.76416 27.2352C2.78618 27.1748 2.82081 27.1196 2.86572 27.0736C2.91063 27.0275 2.96479 26.9916 3.02466 26.9681C3.08452 26.9446 3.14877 26.934 3.21301 26.9371C3.28013 26.9336 3.34718 26.9439 3.41016 26.9674C3.47313 26.9909 3.53063 27.027 3.5791 27.0736C3.62758 27.1201 3.66602 27.1762 3.69202 27.2381C3.71802 27.3001 3.7311 27.3667 3.73035 27.4339C3.72959 27.5011 3.715 27.5676 3.68762 27.629C3.66024 27.6904 3.62055 27.7454 3.57104 27.7909C3.52154 27.8363 3.46327 27.8711 3.39978 27.8932C3.33629 27.9152 3.26905 27.924 3.20203 27.919C3.13727 27.9216 3.07261 27.9103 3.0127 27.8856C2.95279 27.8609 2.89894 27.8235 2.85486 27.776C2.81077 27.7285 2.77751 27.672 2.75732 27.6105C2.73714 27.5489 2.7305 27.4834 2.73792 27.419V27.4242Z" fill="#1C7D88"/>
<path id="Path 12475" d="M16.3594 9.08197C15.8049 9.79311 14.9942 10.2592 14.1007 10.3807C13.2071 10.5021 12.3014 10.2693 11.5772 9.732C11.0201 9.3491 10.5912 8.80723 10.3463 8.17707C10.1014 7.54691 10.0519 6.85759 10.2043 6.19892C10.3127 5.53826 10.6193 4.92628 11.0837 4.44403C11.5481 3.96179 12.1482 3.63215 12.8043 3.49897C13.4678 3.31451 14.1718 3.33799 14.8215 3.56635C15.4712 3.79471 16.0352 4.21692 16.4374 4.77594C16.6122 4.99555 16.7596 5.23562 16.8763 5.49091C16.9673 5.67891 16.9273 5.77394 16.7063 5.82294C16.3063 5.91294 15.9063 6.03591 15.5063 6.14191C15.1381 6.22061 14.8064 6.4194 14.5633 6.70697C14.5103 6.77497 14.4763 6.89602 14.3463 6.83002C14.0183 6.68302 13.6823 6.54703 13.3623 6.38703C13.288 6.35224 13.2272 6.29398 13.1893 6.22126C13.1514 6.14854 13.1385 6.06538 13.1524 5.98456C13.1664 5.90374 13.2065 5.82974 13.2667 5.77399C13.3269 5.71824 13.4037 5.68378 13.4853 5.67597C13.6264 5.63214 13.7766 5.62647 13.9206 5.65949C14.0647 5.69251 14.1974 5.76303 14.3053 5.86396C14.4653 6.01996 14.6543 6.09903 14.8203 5.88703C14.9863 5.67503 14.8462 5.534 14.6972 5.404C14.6103 5.32027 14.5112 5.25014 14.4033 5.19599C14.1863 5.09599 13.9522 5.05101 13.9732 4.72101C13.9698 4.68718 13.9594 4.65434 13.9427 4.6247C13.9261 4.59506 13.9035 4.56919 13.8764 4.54865C13.8493 4.52811 13.8183 4.51335 13.7853 4.50531C13.7522 4.49728 13.7178 4.49622 13.6843 4.50202C13.6469 4.49989 13.6095 4.50553 13.5744 4.51874C13.5394 4.53196 13.5076 4.55239 13.4809 4.57868C13.4543 4.60496 13.4334 4.63661 13.4197 4.67145C13.4059 4.70629 13.3997 4.74354 13.4013 4.78095C13.4183 5.02395 13.2753 5.08096 13.1013 5.17096C12.9447 5.24247 12.8103 5.35486 12.7121 5.49628C12.614 5.6377 12.5559 5.80297 12.5437 5.97467C12.5315 6.14638 12.5657 6.31813 12.6429 6.47199C12.7201 6.62585 12.8374 6.75606 12.9823 6.84894C13.2558 7.01726 13.5499 7.14973 13.8573 7.24299C14.1403 7.35399 14.3232 7.54292 14.2492 7.84992C14.1752 8.15692 13.8963 8.12697 13.6573 8.12897C13.5233 8.12706 13.391 8.09837 13.2682 8.04462C13.1454 7.99087 13.0347 7.91316 12.9424 7.81598C12.7974 7.67898 12.6273 7.62793 12.4823 7.78193C12.4488 7.81582 12.4234 7.85699 12.4082 7.90216C12.393 7.94734 12.3883 7.9954 12.3945 8.04267C12.4007 8.08993 12.4175 8.13512 12.4438 8.17487C12.4701 8.21462 12.5053 8.24777 12.5464 8.27192C12.6767 8.38672 12.8204 8.48549 12.9743 8.56598C13.1933 8.67498 13.4493 8.71298 13.4233 9.06598C13.4143 9.19598 13.5662 9.28292 13.7232 9.27192C13.7911 9.26729 13.8555 9.23976 13.9056 9.19379C13.9558 9.14782 13.9887 9.0862 13.9992 9.01899C14.1462 8.54599 14.4103 8.46502 14.7813 8.78302C15.0019 8.95391 15.2597 9.07012 15.5338 9.12226C15.8079 9.1744 16.0904 9.16092 16.3583 9.08295L16.3594 9.08197Z" fill="#F0BB62"/>
<path id="Path 12476" d="M28.5252 4.43701V1.75C28.5252 1.49 28.4822 1.37305 28.1802 1.37305C27.2582 1.39205 26.3341 1.39005 25.4121 1.37305C25.1461 1.37305 25.0752 1.45404 25.0762 1.71204C25.0842 3.55737 25.0842 5.40197 25.0762 7.24597C25.0762 7.49097 25.1502 7.56804 25.3972 7.56604C26.3192 7.55504 27.2433 7.55304 28.1653 7.56604C28.4423 7.56604 28.5422 7.48503 28.5422 7.20203C28.5252 6.28503 28.5252 5.35701 28.5252 4.43701ZM26.2952 5.86597C26.2951 5.79726 26.3095 5.7293 26.3374 5.6665C26.3653 5.60371 26.406 5.54748 26.457 5.50146C26.5081 5.45545 26.5682 5.42069 26.6336 5.39941C26.6989 5.37814 26.7679 5.37078 26.8362 5.37793C26.8987 5.38 26.96 5.39479 27.0166 5.42139C27.0732 5.44798 27.1238 5.48592 27.1653 5.53271C27.2068 5.57951 27.2382 5.63423 27.2578 5.6936C27.2774 5.75297 27.2848 5.81565 27.2793 5.87793C27.2817 5.94525 27.2697 6.01236 27.2442 6.07471C27.2186 6.13706 27.1803 6.19328 27.1314 6.23962C27.0825 6.28597 27.0241 6.32138 26.9605 6.34351C26.8968 6.36564 26.8293 6.37404 26.7622 6.36804C26.698 6.36819 26.6344 6.35508 26.5754 6.32959C26.5165 6.3041 26.4633 6.26675 26.4194 6.21985C26.3755 6.17294 26.3419 6.11741 26.3203 6.05688C26.2988 5.99636 26.2898 5.93214 26.2942 5.86804L26.2952 5.86597Z" fill="#1C7D88"/>
<path id="Path 12477" d="M17.4702 5.13721L18.3582 5.32617C17.6232 5.66417 17.6022 5.66121 17.4702 5.13721Z" fill="#EEEEEE"/>
<path id="Path 12478" d="M3.19694 26.3159C2.97713 26.3202 2.76361 26.3896 2.5833 26.5154C2.40299 26.6412 2.26411 26.8176 2.18425 27.0225C2.10438 27.2273 2.08711 27.4514 2.13469 27.666C2.18226 27.8807 2.29253 28.0764 2.45146 28.2283C2.61039 28.3802 2.81081 28.4815 3.02739 28.5193C3.24396 28.5571 3.46688 28.5297 3.66789 28.4407C3.86891 28.3516 4.03902 28.2049 4.15654 28.019C4.27406 27.8332 4.33375 27.6168 4.32805 27.397C4.31516 27.1058 4.19026 26.8308 3.97954 26.6294C3.76881 26.428 3.48844 26.3156 3.19694 26.3159ZM3.19694 27.916C3.08975 27.9085 2.98808 27.866 2.90727 27.7952C2.82646 27.7243 2.77106 27.629 2.74956 27.5237C2.72805 27.4184 2.74158 27.309 2.78813 27.2122C2.83468 27.1153 2.9116 27.0363 3.00725 26.9873C3.1029 26.9383 3.21199 26.9221 3.31779 26.9409C3.42359 26.9598 3.52032 27.0126 3.59318 27.0916C3.66605 27.1705 3.7111 27.2712 3.72136 27.3782C3.73162 27.4851 3.70647 27.5927 3.64995 27.6841C3.60276 27.7604 3.5357 27.8221 3.45586 27.863C3.37601 27.9039 3.28643 27.9223 3.19694 27.916Z" fill="#F0BB62"/>
<path id="Path 12479" d="M26.7951 4.76711C26.5756 4.76573 26.3605 4.8296 26.1774 4.95071C25.9943 5.07181 25.8514 5.24473 25.7668 5.44729C25.6821 5.64985 25.6596 5.87301 25.7021 6.0884C25.7446 6.30379 25.8501 6.50165 26.0053 6.65688C26.1605 6.81212 26.3585 6.91761 26.5739 6.9601C26.7893 7.0026 27.0125 6.98018 27.215 6.89553C27.4176 6.81088 27.5903 6.66788 27.7114 6.48476C27.8325 6.30165 27.8966 6.08662 27.8952 5.86709C27.8896 5.57711 27.7717 5.30056 27.5666 5.09548C27.3615 4.8904 27.0851 4.77274 26.7951 4.76711ZM26.768 6.36709C26.7037 6.36738 26.6401 6.35444 26.581 6.329C26.5219 6.30357 26.4687 6.26618 26.4247 6.21926C26.3807 6.17234 26.3467 6.11689 26.3251 6.0563C26.3035 5.9957 26.2946 5.93127 26.299 5.86709C26.2989 5.79838 26.3134 5.73042 26.3412 5.66762C26.3691 5.60483 26.4099 5.5486 26.4609 5.50259C26.5119 5.45657 26.5721 5.42181 26.6374 5.40053C26.7027 5.37926 26.7717 5.37202 26.84 5.37917C26.9025 5.38124 26.9639 5.39603 27.0204 5.42263C27.077 5.44923 27.1277 5.48704 27.1691 5.53384C27.2106 5.58063 27.2421 5.63535 27.2616 5.69472C27.2812 5.75409 27.2886 5.81689 27.2831 5.87917C27.2855 5.94641 27.2734 6.01331 27.248 6.07558C27.2225 6.13786 27.1842 6.19405 27.1354 6.24038C27.0866 6.2867 27.0285 6.32206 26.965 6.34426C26.9015 6.36646 26.834 6.37501 26.767 6.36916L26.768 6.36709Z" fill="#F0BB62"/>
</g>
</svg>
