<svg width="24" height="24" viewBox="0 0 24 24" fill="none" xmlns="http://www.w3.org/2000/svg">
<g id="Group">
<g id="Page-1_26_">
<g id="blockchain_export_26_">
<path id="search_x2C_-items_x2C_-nodes_x2C_-encryption_x2C_-mining_x2C_-crypto" d="M21.7051 20.7068L23.7932 22.795C24.0689 23.0706 24.0689 23.5176 23.7932 23.7932C23.5176 24.0689 23.0707 24.0689 22.795 23.7932L20.7068 21.7051C19.948 22.2604 19.0123 22.5882 18 22.5882C15.466 22.5882 13.4118 20.534 13.4118 18C13.4118 15.466 15.466 13.4118 18 13.4118C20.534 13.4118 22.5882 15.466 22.5882 18C22.5882 19.0123 22.2604 19.948 21.7051 20.7068ZM18 14.8235C16.2457 14.8235 14.8235 16.2457 14.8235 18C14.8235 19.7543 16.2457 21.1765 18 21.1765C19.7543 21.1765 21.1765 19.7543 21.1765 18C21.1765 16.2457 19.7543 14.8235 18 14.8235ZM2.11763 13.4118H7.7647C8.93423 13.4118 9.88237 14.3599 9.88237 15.5294V21.1765C9.88237 22.346 8.93428 23.2941 7.7647 23.2941H2.11763C0.948095 23.2941 0 22.346 0 21.1765V15.5294C0 14.3599 0.948095 13.4118 2.11763 13.4118ZM2.11763 14.8235C1.72777 14.8235 1.41173 15.1395 1.41173 15.5294V21.1765C1.41173 21.5663 1.72777 21.8824 2.11763 21.8824H7.7647C8.15456 21.8824 8.47059 21.5663 8.47059 21.1765V15.5294C8.47059 15.1395 8.15456 14.8235 7.7647 14.8235H2.11763ZM15.5294 0H21.1765C22.346 0 23.2942 0.948095 23.2942 2.11763V7.7647C23.2942 8.93423 22.3461 9.88237 21.1765 9.88237H15.5294C14.3599 9.88237 13.4118 8.93428 13.4118 7.7647V2.11763C13.4118 0.948095 14.3599 0 15.5294 0ZM15.5294 1.41178C15.1395 1.41178 14.8235 1.72781 14.8235 2.11767V7.76475C14.8235 8.15461 15.1395 8.47064 15.5294 8.47064H21.1765C21.5663 8.47064 21.8824 8.15461 21.8824 7.76475V2.11763C21.8824 1.72777 21.5663 1.41173 21.1765 1.41173L15.5294 1.41178ZM2.11763 0H7.7647C8.93423 0 9.88237 0.948095 9.88237 2.11763V7.7647C9.88237 8.93423 8.93428 9.88237 7.7647 9.88237H2.11763C0.948095 9.88237 0 8.93428 0 7.7647V2.11763C0 0.948095 0.948095 0 2.11763 0ZM2.11763 1.41178C1.72777 1.41178 1.41173 1.72781 1.41173 2.11767V7.76475C1.41173 8.15461 1.72777 8.47064 2.11763 8.47064H7.7647C8.15456 8.47064 8.47059 8.15461 8.47059 7.76475V2.11763C8.47059 1.72777 8.15456 1.41173 7.7647 1.41173L2.11763 1.41178Z" fill="#201A1A" fill-opacity="0.67"/>
</g>
</g>
</g>
</svg>
