<svg width="24" height="24" viewBox="0 0 24 24" fill="none" xmlns="http://www.w3.org/2000/svg">
<g id="Group">
<g id="Clip path group">
<mask id="mask0_218_1525" style="mask-type:luminance" maskUnits="userSpaceOnUse" x="0" y="0" width="24" height="24">
<g id="SVGID_00000151526384355420888530000008017788781505793197_">
<path id="Vector" d="M24 0H0V24H24V0Z" fill="white"/>
</g>
</mask>
<g mask="url(#mask0_218_1525)">
<g id="Group_2">
<path id="Vector_2" d="M7.8 0H2.1C1 0 0 1 0 2.1V7.7C0 8.9 1 9.8 2.1 9.8H7.7C8.9 9.8 9.8 8.8 9.8 7.7V2.1C9.9 1 8.9 0 7.8 0ZM8.5 7.8C8.5 8.2 8.2 8.5 7.8 8.5H2.1C1.7 8.5 1.4 8.2 1.4 7.8V2.1C1.4 1.7 1.7 1.4 2.1 1.4H7.7C8.1 1.4 8.4 1.7 8.4 2.1V7.8H8.5ZM21.2 0H15.6C14.4 0 13.5 1 13.5 2.1V7.7C13.5 8.9 14.5 9.8 15.6 9.8H21.2C22.4 9.8 23.3 8.8 23.3 7.7V2.1C23.3 1 22.3 0 21.2 0ZM21.9 7.8C21.9 8.2 21.6 8.5 21.2 8.5H15.6C15.2 8.5 14.9 8.2 14.9 7.8V2.1C14.9 1.7 15.2 1.4 15.6 1.4H21.2C21.6 1.4 21.9 1.7 21.9 2.1V7.8ZM7.8 13.4H2.1C0.9 13.4 0 14.4 0 15.5V21.1C0 22.3 1 23.2 2.1 23.2H7.7C8.9 23.2 9.8 22.3 9.8 21.1V15.5C9.9 14.4 8.9 13.4 7.8 13.4ZM8.5 21.2C8.5 21.6 8.2 21.9 7.8 21.9H2.1C1.7 21.9 1.4 21.6 1.4 21.2V15.6C1.4 15.2 1.7 14.9 2.1 14.9H7.7C8.1 14.9 8.4 15.2 8.4 15.6V21.2H8.5Z" fill="#201A1A"/>
<path id="Vector_3" d="M23.8 22.8L21.7 20.7C22.2 19.9 22.6 19 22.6 18C22.6 15.5 20.5 13.4 18 13.4C15.5 13.4 13.4 15.5 13.4 18C13.4 20.5 15.5 22.6 18 22.6C19 22.6 20 22.3 20.7 21.7L22.8 23.8C23.1 24.1 23.5 24.1 23.8 23.8C24.1 23.5 24.1 23.1 23.8 22.8ZM18 21.2C16.2 21.2 14.8 19.8 14.8 18C14.8 16.2 16.2 14.8 18 14.8C19.8 14.8 21.2 16.2 21.2 18C21.2 19.8 19.8 21.2 18 21.2Z" fill="#B52046"/>
</g>
</g>
</g>
</g>
</svg>
