<svg width="24" height="24" viewBox="0 0 24 24" fill="none" xmlns="http://www.w3.org/2000/svg">
<g id="My Order" clip-path="url(#clip0_3452_9061)">
<path id="Path 2891" d="M22.8668 3.50232C22.8509 2.63261 22.4973 1.80321 21.8808 1.18958C21.2642 0.575939 20.4332 0.226191 19.5634 0.214318C14.5028 0.202318 9.44917 0.214318 4.38174 0.214318C3.94634 0.210523 3.51571 0.304857 3.12176 0.490316C2.5089 0.747946 1.98957 1.18695 1.63348 1.74835C1.2774 2.30975 1.10163 2.96668 1.12979 3.63089C1.12121 6.79203 1.12979 9.95317 1.12979 13.1143C1.12979 16.3817 1.12979 19.6492 1.12979 22.9166C1.12979 23.5509 1.37482 23.7977 2.00053 23.7977H16.6182C17.2371 23.7977 17.4753 23.556 17.4753 22.9406C17.4753 20.7452 17.4753 18.5503 17.4753 16.356C17.4753 15.3 17.4753 14.2423 17.4753 13.1863C17.4753 13.0149 17.5201 12.9635 17.6932 12.9686C18.0532 12.9823 18.4132 12.9686 18.7732 12.9686C19.8703 12.9686 20.9674 12.9686 22.0645 12.9686C22.5788 12.9686 22.872 12.7012 22.872 12.2212C22.8738 9.31718 22.8857 6.40974 22.8668 3.50232ZM16.0936 3.8726C16.1016 9.95717 16.1044 16.0417 16.1022 22.1263C16.1022 22.3509 16.0663 22.4246 15.8178 22.4246C11.4749 22.4155 7.13476 22.4155 2.79762 22.4246C2.55933 22.4246 2.50465 22.368 2.50465 22.1315C2.5115 15.9817 2.5115 9.83146 2.50465 3.6806C2.47759 3.19058 2.63267 2.70787 2.94033 2.32551C3.248 1.94315 3.68634 1.68818 4.1708 1.60974C4.28447 1.59473 4.39913 1.58728 4.51378 1.58746H16.7622C16.296 2.25586 16.0612 3.05835 16.0936 3.8726ZM21.3206 11.5869C20.1017 11.5869 18.8811 11.5869 17.6605 11.5869C17.4703 11.5869 17.4753 11.496 17.4753 11.3623C17.4753 10.0526 17.4753 8.74289 17.4753 7.43318C17.4753 6.16461 17.4753 4.89432 17.4753 3.62575C17.4672 3.35547 17.5136 3.08632 17.612 2.83445C17.7104 2.58259 17.8587 2.3532 18.0479 2.16005C18.2371 1.9669 18.4636 1.81396 18.7134 1.71043C18.9631 1.6069 19.2313 1.55491 19.5016 1.55757C19.772 1.56022 20.0391 1.61748 20.2868 1.7259C20.5345 1.83432 20.7579 1.99167 20.9433 2.1885C21.1287 2.38534 21.2723 2.6176 21.3658 2.87135C21.4592 3.1251 21.5004 3.39511 21.4869 3.66518C21.4869 5.75318 21.4869 7.84118 21.4869 9.92918C21.4869 10.4212 21.4869 10.9115 21.4869 11.4035C21.4972 11.5389 21.4646 11.5886 21.3206 11.5869Z" fill="#B52046"/>
<path id="Path 2892" d="M12.1283 5.57651C12.0916 5.51585 12.0794 5.44349 12.094 5.37409C12.1086 5.30469 12.1491 5.24346 12.2072 5.20281C12.4746 4.94909 12.7336 4.68852 12.9907 4.42281C13.1198 4.293 13.1921 4.11721 13.1916 3.93412C13.1911 3.75103 13.1178 3.57564 12.988 3.44651C12.8582 3.31739 12.6824 3.24513 12.4993 3.24561C12.3163 3.24609 12.1409 3.31929 12.0118 3.44909C11.7821 3.67023 11.5524 3.89309 11.3381 4.13481C11.225 4.25824 11.1512 4.25481 11.0209 4.15538C10.4116 3.68321 9.66081 3.43017 8.88997 3.4371C8.68208 3.44318 8.4749 3.46264 8.26951 3.49538C7.55123 3.62436 6.8908 3.97342 6.37965 4.49427C5.8685 5.01512 5.53188 5.68198 5.41641 6.40256C5.30095 7.12313 5.4123 7.86178 5.73512 8.51626C6.05794 9.17074 6.57636 9.70869 7.21838 10.0556C7.86039 10.4026 8.59438 10.5414 9.31875 10.4528C10.0431 10.3642 10.722 10.0527 11.2616 9.56127C11.8011 9.06985 12.1744 8.42287 12.3301 7.70989C12.4857 6.99691 12.4157 6.25319 12.13 5.58167L12.1283 5.57651ZM7.07294 8.06738C6.8228 7.65927 6.71682 7.17908 6.77181 6.70358C6.8268 6.22809 7.03948 5.78476 7.37616 5.44452C7.71285 5.10428 8.15392 4.88678 8.62881 4.8268C9.1037 4.76682 9.58501 4.86782 9.99572 5.11366C10.1672 5.21995 10.1981 5.28509 10.0369 5.4308C9.71295 5.7308 9.40442 6.04795 9.09756 6.36681C9.01013 6.45767 8.95355 6.4731 8.86612 6.36681C8.77488 6.26168 8.67578 6.16367 8.56959 6.07366C8.44023 5.95761 8.27146 5.895 8.0977 5.89851C7.92395 5.90201 7.75814 5.97135 7.63356 6.09252C7.50684 6.21159 7.43135 6.37525 7.42304 6.54893C7.41472 6.72262 7.47422 6.89274 7.58898 7.02337C7.89241 7.35595 8.21128 7.6748 8.54385 7.97652C8.60943 8.03608 8.68625 8.08187 8.76986 8.11116C8.85346 8.14046 8.94198 8.15268 9.03039 8.14708C9.1188 8.14148 9.20519 8.1182 9.28444 8.0786C9.36368 8.03899 9.43427 7.98388 9.49182 7.91652C9.92382 7.49309 10.349 7.05938 10.7775 6.63252C10.8341 6.57595 10.8838 6.51081 10.9489 6.4371C11.086 6.96074 11.0171 7.51703 10.7562 7.99131C10.4953 8.46559 10.0623 8.8217 9.54664 8.98624C9.09089 9.13074 8.59988 9.1188 8.15169 8.95232C7.7035 8.78584 7.32384 8.47436 7.07294 8.06738Z" fill="#B52046"/>
<path id="Path 2893" d="M7.08309 13.2499C6.9386 13.3102 6.81859 13.4175 6.74241 13.5543C6.66623 13.6911 6.63831 13.8496 6.6631 14.0042C6.68945 14.1679 6.77508 14.3163 6.90376 14.4209C7.03243 14.5255 7.19511 14.5792 7.36079 14.5716C8.46479 14.5716 9.56897 14.5716 10.6747 14.5716H12.809C13.1775 14.5716 13.5443 14.5716 13.9128 14.5716C14.0284 14.5747 14.144 14.5614 14.2558 14.5322C14.3931 14.4841 14.5115 14.3935 14.594 14.2736C14.6764 14.1537 14.7187 14.0107 14.7145 13.8653C14.7103 13.7198 14.6598 13.5794 14.5705 13.4645C14.4813 13.3496 14.3578 13.266 14.2179 13.2259C14.0417 13.1887 13.861 13.1771 13.6814 13.1916H7.52192C7.37325 13.1827 7.22428 13.2025 7.08309 13.2499Z" fill="#B52046"/>
<path id="Path 2894" d="M13.9506 15.9618H8.47852C8.07738 15.9618 7.67611 15.9532 7.2784 15.9738C7.11324 15.9837 6.95797 16.0556 6.84355 16.1751C6.72912 16.2946 6.66401 16.453 6.66128 16.6184C6.65173 16.7833 6.70332 16.9459 6.80609 17.0753C6.90886 17.2046 7.05574 17.2916 7.21855 17.3195C7.33184 17.3381 7.44654 17.3462 7.56132 17.3435H13.942C14.0732 17.3547 14.2049 17.3297 14.323 17.2714C14.4412 17.2131 14.5412 17.1236 14.6122 17.0126C14.6806 16.9098 14.7184 16.7897 14.7215 16.6663C14.7245 16.5428 14.6926 16.421 14.6294 16.315C14.5626 16.1967 14.4628 16.1003 14.3423 16.0376C14.2218 15.9749 14.0858 15.9486 13.9506 15.9618Z" fill="#B52046"/>
<path id="Path 2895" d="M13.9289 18.7305H7.40091C7.25452 18.7209 7.10895 18.7585 6.98552 18.8378C6.8621 18.9171 6.76729 19.0339 6.71516 19.1711C6.6728 19.2826 6.65989 19.4032 6.6777 19.5212C6.69551 19.6391 6.74346 19.7505 6.81686 19.8446C6.89025 19.9386 6.98674 20.0123 7.09685 20.0582C7.20696 20.1042 7.32699 20.121 7.44548 20.107C9.61691 20.107 11.7848 20.107 13.9494 20.107C14.0486 20.1219 14.15 20.115 14.2463 20.0869C14.3427 20.0588 14.4318 20.0102 14.5075 19.9443C14.5832 19.8785 14.6439 19.797 14.6852 19.7055C14.7264 19.614 14.7471 19.5146 14.7463 19.4143C14.7454 19.3139 14.7227 19.215 14.6799 19.1242C14.6371 19.0334 14.5752 18.953 14.4983 18.8885C14.4214 18.824 14.3314 18.7769 14.2346 18.7505C14.1378 18.7241 14.0364 18.719 13.9375 18.7356L13.9289 18.7305Z" fill="#B52046"/>
<path id="Path 2896" d="M4.57214 18.732C4.48271 18.7323 4.39424 18.7502 4.31181 18.7849C4.22939 18.8196 4.15476 18.8703 4.09209 18.9341C4.02941 18.9979 3.97987 19.0735 3.94665 19.1565C3.91342 19.2396 3.89715 19.3284 3.89852 19.4178C3.89852 19.5078 3.91616 19.597 3.95062 19.6802C3.98508 19.7634 4.03553 19.839 4.0992 19.9027C4.16287 19.9663 4.23845 20.0168 4.32165 20.0513C4.40484 20.0857 4.49401 20.1035 4.58406 20.1035C4.76456 20.0991 4.93645 20.0255 5.06411 19.8978C5.19178 19.7702 5.26547 19.5983 5.26982 19.4178C5.26983 19.3267 5.25167 19.2365 5.21646 19.1526C5.18125 19.0686 5.12969 18.9924 5.06474 18.9286C4.99979 18.8648 4.9229 18.8145 4.83832 18.7807C4.75373 18.747 4.66319 18.7304 4.57214 18.732Z" fill="#B52046"/>
<path id="Path 2897" d="M4.56481 14.5731C4.65672 14.5761 4.74835 14.5605 4.83413 14.5274C4.91992 14.4943 4.99806 14.4443 5.06411 14.3803C5.13017 14.3163 5.18271 14.2397 5.21855 14.155C5.2544 14.0704 5.2728 13.9793 5.27275 13.8874C5.26757 13.7071 5.1937 13.5357 5.06621 13.4082C4.93872 13.2807 4.76743 13.2068 4.5872 13.2017C4.40534 13.2017 4.23094 13.2739 4.10234 13.4025C3.97374 13.5311 3.90145 13.7055 3.90145 13.8874C3.8987 14.0662 3.96688 14.2389 4.09125 14.3674C4.21562 14.496 4.38597 14.5699 4.56481 14.5731Z" fill="#B52046"/>
<path id="Path 2898" d="M4.57715 15.9654C4.39529 15.9654 4.22088 16.0376 4.09229 16.1662C3.96369 16.2948 3.8916 16.4692 3.8916 16.6511C3.8916 16.8329 3.96369 17.0073 4.09229 17.1359C4.22088 17.2645 4.39529 17.3368 4.57715 17.3368C4.76284 17.335 4.94049 17.2603 5.07164 17.1288C5.20279 16.9974 5.27705 16.8196 5.27839 16.6339C5.2717 16.4531 5.19465 16.282 5.06369 16.1571C4.93272 16.0322 4.7581 15.9635 4.57715 15.9654Z" fill="#B52046"/>
</g>
<defs>
<clipPath id="clip0_3452_9061">
<rect width="24" height="24" fill="white"/>
</clipPath>
</defs>
</svg>
