<svg width="512" height="512" viewBox="0 0 512 512" fill="none" xmlns="http://www.w3.org/2000/svg">
<g opacity="0.2">
<path d="M131.19 169.35C125.51 166.68 116.12 171.02 113.13 177.37C107.42 189.5 125.9 207.06 132.62 205.17C140.13 203.06 141.61 174.25 131.19 169.34V169.35Z" stroke="#B52046" stroke-width="2" stroke-miterlimit="10" stroke-linecap="round"/>
<path d="M102.79 196.82C100.76 195.65 79.2998 183.23 67.1598 193.06C58.6298 199.96 58.5498 214.71 64.9598 222.99C77.6498 239.41 117.01 232.05 121.1 220.3C123.85 212.39 110.94 201.53 102.8 196.82H102.79Z" stroke="#B52046" stroke-width="2" stroke-miterlimit="10" stroke-linecap="round"/>
<path d="M130.41 399.51C182.65 386.54 242.01 373.34 334.18 375.59C385.73 376.85 397.41 360.85 436.48 340.96C471.3 323.23 488.4 287.98 477.9 268.01C467.3 247.84 435 255.87 408.54 225.85C396.49 212.18 398.61 202.59 391.66 187.43C369.64 139.42 287.09 101.89 246.38 121.75C192.6 147.99 238.58 261.36 178.46 292.33C140.44 311.92 111.69 274.31 74.1499 303.02C55.5499 317.25 32.7899 337.2 31.0299 358.86C31.0299 358.86 28.5699 411.83 130.4 399.51H130.41Z" stroke="#B52046" stroke-width="2" stroke-miterlimit="10" stroke-linecap="round"/>
<path d="M419.03 340.52C419.03 340.52 409.57 353.07 400.1 370.28C391.57 385.8 385.08 406.72 383.65 424.18C379.63 423.99 375.22 423.81 370.44 423.64C342.17 422.64 301.37 422.01 256 422.01C204.42 422.01 158.74 422.82 130.68 424.07C129.71 424.11 128.77 424.16 127.84 424.2C92.8098 380.78 22.2598 305.13 87.1798 274.01C87.1798 274.01 91.9398 272.56 99.0698 269.45C121.64 259.6 168.01 233.1 162.86 183.12C162.86 183.12 161.1 173.79 161.1 160.82C161.1 130.48 170.71 80.19 234.83 82.48C273.66 83.87 309.43 103.63 331.05 135.26C352.26 166.28 386.17 204.45 413.79 182.66C420.16 177.63 428.59 175.76 436.46 177.98C456.34 183.56 478.92 212.47 419.03 340.51V340.52Z" fill="#B52046"/>
<path d="M419.03 340.52C419.03 340.52 409.57 353.07 400.1 370.28C391.57 385.8 385.08 406.72 383.65 424.18C379.63 423.99 375.22 423.81 370.44 423.64C342.17 422.64 301.37 422.01 256 422.01C204.42 422.01 158.74 422.82 130.68 424.07C129.71 424.11 128.77 424.16 127.84 424.2C92.8098 380.78 22.2598 305.13 87.1798 274.01C87.1798 274.01 91.9398 272.56 99.0698 269.45C121.64 259.6 168.01 233.1 162.86 183.12C162.86 183.12 161.1 173.79 161.1 160.82C161.1 130.48 170.71 80.19 234.83 82.48C273.66 83.87 309.43 103.63 331.05 135.26C352.26 166.28 386.17 204.45 413.79 182.66C420.16 177.63 428.59 175.76 436.46 177.98C456.34 183.56 478.92 212.47 419.03 340.51V340.52Z" fill="white" fill-opacity="0.69"/>
</g>
<path d="M470.6 425.87C470.6 427.92 374.52 429.59 256 429.59C189.13 429.59 129.4 429.06 90.0399 428.23C80.9699 428.04 72.9899 427.83 66.2499 427.61C61.8099 427.47 57.9099 427.31 54.5899 427.16C46.0599 426.76 41.3999 426.33 41.3999 425.87C41.3999 425.29 48.9599 424.75 62.4599 424.26C67.9899 424.06 74.5099 423.87 81.9199 423.69C120.9 422.75 184.35 422.15 256 422.15C319.02 422.15 375.7 422.62 414.96 423.37C449.53 424.03 470.6 424.91 470.6 425.87Z" fill="#E9E8E8"/>
<path d="M282.57 313.63H271.17V342.15H282.57V313.63Z" fill="#B52046"/>
<path d="M282.57 313.63H271.17V342.15H282.57V313.63Z" fill="white" fill-opacity="0.54"/>
<path opacity="0.1" d="M282.57 314.05H271.17V316.49H282.57V314.05Z" fill="#201A1A"/>
<path d="M281.14 308.61H272.58C270.752 308.61 269.27 310.092 269.27 311.92V311.93C269.27 313.758 270.752 315.24 272.58 315.24H281.14C282.968 315.24 284.45 313.758 284.45 311.93V311.92C284.45 310.092 282.968 308.61 281.14 308.61Z" fill="#B52046"/>
<path d="M281.14 308.61H272.58C270.752 308.61 269.27 310.092 269.27 311.92V311.93C269.27 313.758 270.752 315.24 272.58 315.24H281.14C282.968 315.24 284.45 313.758 284.45 311.93V311.92C284.45 310.092 282.968 308.61 281.14 308.61Z" fill="white" fill-opacity="0.54"/>
<path d="M285.42 364.25H368.42L339.35 324.16H256.34L285.42 364.25Z" fill="#B52046"/>
<path d="M285.42 364.25H368.42L339.35 324.16H256.34L285.42 364.25Z" fill="white" fill-opacity="0.54"/>
<path d="M307.65 360.67H229.23V424.16H307.65V360.67Z" fill="#B52046"/>
<path d="M307.65 360.67H229.23V424.16H307.65V360.67Z" fill="white" fill-opacity="0.69"/>
<path d="M357.81 356.99L336.78 328.11L335.31 326.11L334.79 325.39L334.05 324.38L310.3 356.99L307.65 360.63V424.15H360.46V360.63L357.81 356.99Z" fill="#F4F6FC"/>
<path opacity="0.1" d="M360.46 360.63H358.93L357.66 358.88L336.06 329.09L313.2 360.63L313.17 360.67L310.57 364.25V366.67H229.23V360.67H310.25L310.28 360.63L334.61 327.08L334.08 326.36L334.79 325.39L335.31 326.11L336.78 328.11L360.46 360.63Z" fill="#201A1A"/>
<path d="M336.72 324.16L307.65 364.25H224.64L253.71 324.16H336.72Z" fill="#B52046"/>
<path d="M336.72 324.16L307.65 364.25H224.64L253.71 324.16H336.72Z" fill="white" fill-opacity="0.54"/>
<path opacity="0.15" d="M358.96 360.67H360.46V362.5H360.29L358.96 360.67Z" fill="#201A1A"/>
<path d="M347.78 384.86H324.17V424.15H347.78V384.86Z" fill="#B52046"/>
<path d="M347.78 384.86H324.17V424.15H347.78V384.86Z" fill="white" fill-opacity="0.54"/>
<path d="M346.61 403.92C346.61 403.23 346.05 402.67 345.36 402.67C344.67 402.67 344.11 403.23 344.11 403.92V405.09C344.11 405.78 344.67 406.34 345.36 406.34C346.05 406.34 346.61 405.78 346.61 405.09V403.92Z" fill="white"/>
<path d="M321.83 384.86H312.99V399.96H321.83V384.86Z" fill="#B52046"/>
<path d="M321.83 384.86H312.99V399.96H321.83V384.86Z" fill="white" fill-opacity="0.54"/>
<path d="M358.95 384.86H350.11V399.96H358.95V384.86Z" fill="#B52046"/>
<path d="M358.95 384.86H350.11V399.96H358.95V384.86Z" fill="white" fill-opacity="0.54"/>
<path opacity="0.1" d="M321.83 391.95H317.87V384.86H316.95V391.95H312.99V392.87H316.95V399.96H317.87V392.87H321.83V391.95Z" fill="#201A1A"/>
<path opacity="0.1" d="M358.96 391.95H354.99V384.86H354.08V391.95H350.11V392.87H354.08V399.96H354.99V392.87H358.96V391.95Z" fill="#201A1A"/>
<path d="M243.19 390.59H196.06L212.57 368.13H259.69L243.19 390.59Z" fill="#B52046"/>
<path d="M243.19 390.59H196.06L212.57 368.13H259.69L243.19 390.59Z" fill="white" fill-opacity="0.54"/>
<path d="M275.08 388.58H230.56V424.15H275.08V388.58Z" fill="#F4F6FC"/>
<path d="M202.09 386.52L214.03 370.34L214.86 369.22L215.16 368.82L215.57 368.25L229.06 386.52L230.56 388.56V424.15H200.59V388.56L202.09 386.52Z" fill="#B52046"/>
<path d="M202.09 386.52L214.03 370.34L214.86 369.22L215.16 368.82L215.57 368.25L229.06 386.52L230.56 388.56V424.15H200.59V388.56L202.09 386.52Z" fill="white" fill-opacity="0.69"/>
<path opacity="0.1" d="M200.59 388.56H201.45L202.17 387.58L214.43 370.89L227.42 388.56L227.43 388.58L228.91 390.59V391.95H275.08V388.58H229.09L229.07 388.56L215.26 369.76L215.56 369.36L215.16 368.82L214.86 369.22L214.03 370.34L200.59 388.56Z" fill="#201A1A"/>
<path d="M214.06 368.13L230.56 390.59H277.69L261.18 368.13H214.06Z" fill="#B52046"/>
<path d="M214.06 368.13L230.56 390.59H277.69L261.18 368.13H214.06Z" fill="white" fill-opacity="0.54"/>
<path d="M207.79 424.15H221.19V402.13H207.79V424.15Z" fill="#B52046"/>
<path d="M207.79 424.15H221.19V402.13H207.79V424.15Z" fill="white" fill-opacity="0.54"/>
<path d="M178.71 288.55L172.64 291.67L170.03 293.02L168.24 293.94L168.08 294.02L159.05 298.67L157.34 294.26L155.19 288.69L160.9 286.9L167.93 284.7L169.53 284.2L171.59 283.56L172.37 283.31L172.69 283.22L174 282.81L174.03 282.84L175.18 284.25L176.94 286.39L178.44 288.22L178.7 288.53L178.71 288.55Z" fill="#DB965F"/>
<path d="M196.48 260.02C196.46 263.13 192.28 268.04 192.28 268.04L184.93 280.2L181.02 286.67C180.46 287.59 179.63 288.22 178.7 288.53C178.43 288.62 178.14 288.69 177.86 288.72C176.63 288.88 175.33 288.51 174.33 287.57L174.1 284.22L174.01 282.85L174.03 282.83L177.27 279.35L183.75 271.44C184.96 269.8 185.85 267.66 186.35 266.25C186.62 265.49 186.81 264.69 186.87 263.88C187.01 262.24 187.48 260.49 187.92 259.15C188.36 257.81 188.76 256.88 188.76 256.88C189.42 257.11 189.8 257.81 189.64 258.49L188.94 261.33L190.52 258.99C191.05 258.2 191.8 257.56 192.69 257.2C196.01 255.85 196.49 260 196.49 260L196.48 260.02Z" fill="#DB965F"/>
<path d="M171.17 292.96L170.96 293.14L171.3 294.47L171.41 294.88L171.45 295.41L156.88 311.21C155.24 309.74 152.36 306.72 149.81 303.48C149.64 303.26 149.47 303.04 149.3 302.82C149.15 302.62 149 302.42 148.85 302.22C146.51 299.08 144.66 295.89 144.66 293.79C144.66 293.47 144.66 293.15 144.69 292.83C144.74 291.93 145.02 291.06 145.48 290.31C145.6 290.12 145.73 289.93 145.87 289.76C145.96 289.65 146.04 289.55 146.14 289.45C146.49 289.07 146.9 288.74 147.36 288.47C149.27 287.35 151.67 286.45 153.7 285.81C156.04 285.07 157.87 284.67 157.87 284.67L160.12 284.45L167.35 283.75L171.5 283.35L171.62 283.56L172.72 285.53L175 289.62L172.67 291.67L171.2 292.96H171.17Z" fill="white"/>
<path opacity="0.15" d="M149.81 303.48C149.76 304.05 149.63 304.5 149.48 304.84C149.43 304.15 149.37 303.48 149.29 302.82C149.14 302.62 148.99 302.42 148.84 302.22C148.62 299.7 148.18 296.77 148.16 296.65C149.64 299.92 149.93 302.08 149.8 303.48H149.81Z" fill="#201A1A"/>
<path d="M166 413.6L165.26 422.62L169.67 424.31L172.98 420.77L171.6 413.21L166 413.6Z" fill="#DB965F"/>
<path d="M171.179 419.71C171.179 419.71 171.55 417.37 172.32 416.99C172.32 416.99 182.5 420.08 183.97 421.14C183.97 421.14 187.85 423 184 425.53C182.81 426.31 181.45 426.78 180.05 426.92L172.52 427.7C172.52 427.7 162.9 428.57 164.62 423L165.52 419.32C165.52 419.32 168.74 423.9 171.17 419.72L171.179 419.71Z" fill="#201A1A"/>
<path d="M150.06 400.84L146.17 407.36L152.7 412.41L153.94 410.7L155.08 401.5L150.06 400.84Z" fill="#DB965F"/>
<path d="M143.75 407.41C143.75 407.41 142.97 409.17 144.76 413.62C144.76 413.62 145.59 414.73 145.81 417.23C145.81 417.23 147.25 422.87 152.97 424.92C154.02 425.3 155.21 424.86 155.76 423.85C156.25 422.97 156.51 421.5 156.02 419.09C156.02 419.09 154.57 411.92 154.3 407.7C154.3 407.7 150.85 410.13 147.48 404.98C147.48 404.98 145.84 403.81 143.74 407.41H143.75Z" fill="#201A1A"/>
<path d="M170.74 386.95L160.85 398.3L154.56 405.52L148.79 401.06L161.47 380.72C162.44 379.17 162.59 377.21 161.86 375.52L151.72 351.78C145.78 335.94 150.84 326.05 150.84 326.05L171.87 326.46L171.22 330.42L168.34 347.89L174.09 373.49C175.17 378.28 173.91 383.32 170.74 386.96V386.95Z" fill="#201A1A"/>
<path opacity="0.15" d="M170.74 386.95L160.85 398.3L165.26 378.63L158.83 331.16L171.22 330.41L168.34 347.88L174.09 373.48C175.17 378.27 173.91 383.31 170.74 386.95Z" fill="#201A1A"/>
<path d="M181.16 358.26L177.34 382.36L172.69 416.16L166.83 415.69L165.12 415.55L166.47 381.12L160.56 328.62L178.65 327.31C178.65 327.31 182.64 342.59 181.16 358.25V358.26Z" fill="#201A1A"/>
<path d="M169.73 286.75L168.41 293.1L168.24 293.94L168.22 294.02H168.08L163.79 294.12L157.34 294.26L155.57 294.3L152.27 290.43C152.78 289.88 153.14 288.79 153.41 287.42C153.51 286.92 153.59 286.38 153.67 285.81C153.77 285.01 153.85 284.16 153.92 283.3C154.23 279.01 154.07 274.48 154.07 274.48L163.45 277.48L165.59 278.16C165.75 280.46 166.51 282.34 167.33 283.75C167.53 284.1 167.74 284.41 167.94 284.7C168.88 286.04 169.74 286.75 169.74 286.75H169.73Z" fill="#C9885B"/>
<path opacity="0.15" d="M184.93 280.2L181.02 286.67C180.46 287.59 179.63 288.22 178.7 288.53V288.55L172.64 291.68L171.17 292.97L170.02 293.03L168.41 293.11L163.03 293.37L160.9 286.91L160.09 284.46L159.17 281.66L163.44 277.48L165.58 278.16C165.74 280.46 166.5 282.34 167.32 283.75L171.47 283.35L171.59 283.56L172.37 283.32L172.68 283.22L173.76 284.2C173.76 284.2 173.87 284.22 174.09 284.24C174.33 284.26 174.7 284.27 175.17 284.25C177.05 284.16 180.63 283.5 184.91 280.2H184.93Z" fill="#201A1A"/>
<path d="M153.25 266.37C153.25 266.37 154.33 281.93 166.15 280.96C166.66 280.92 167.14 280.71 167.53 280.38C169.19 278.94 173.02 274.28 168.52 264.29C168.52 264.29 157.62 250.4 153.26 266.36L153.25 266.37Z" fill="#DB965F"/>
<path d="M177.1 287.27V303.29H176.53L175.93 286.88L177.1 287.27Z" fill="#262C84"/>
<path d="M202.6 286.74L202.33 286.41L200.82 284.58L197.88 281L196.26 281.5L193.41 282.4L179.07 286.88L182.94 296.86L202.6 286.74Z" fill="#DB965F"/>
<path d="M196.3 292.77L182.37 300.17L177.5 302.76L176.55 303.27L176.24 302.9L166.9 291.93C168.17 288.78 173.37 286.61 177.11 285.42C179.39 284.7 181.13 284.33 181.13 284.33L193.39 280.96L194.66 285.94L195.82 290.5L196.16 291.83L196.27 292.24L196.31 292.77H196.3Z" fill="white"/>
<path d="M181.09 336.43L148.08 337.12C147.89 335.33 148.47 331.92 148.97 328.22C149.74 322.42 149.56 310.2 149.56 310.2C149.65 308.34 149.61 306.55 149.49 304.85C149.44 304.16 149.38 303.49 149.3 302.83C149.15 301.51 148.95 300.25 148.71 299.07C148.54 298.23 148.36 297.42 148.17 296.66C147.41 293.63 146.5 291.26 145.86 289.77C145.84 289.72 145.82 289.68 145.8 289.63C145.91 289.54 145.97 289.51 145.97 289.51L146.13 289.45L147.61 288.94L148.89 288.5L155.6 286.2C159.56 289.76 160.58 286.79 163.16 286.35C167.35 285.64 168.83 285.63 168.83 285.63L172.7 285.52L177.12 285.39H177.16L177.11 287.26L177.3 287.32C177.44 287.36 177.57 287.4 177.7 287.44C177.87 287.49 178.05 287.55 178.21 287.62L178.18 288.34L177.73 300.73L177.7 301.48C177.7 301.48 177.59 301.75 177.5 302.7C177.5 302.71 177.5 302.73 177.5 302.74C177.34 304.41 177.23 308.13 177.83 316.03C177.9 316.88 177.97 317.77 178.05 318.71C178.05 318.74 178.05 318.77 178.05 318.8C178.1 319.02 178.36 320.13 178.71 321.79C178.97 323 179.27 324.51 179.58 326.19C180.16 329.31 180.75 333 181.08 336.43H181.09Z" fill="white"/>
<path d="M160.74 258.02C160.74 258.02 155.92 257.79 152.69 265.66C151.64 268.23 151.07 270.97 150.95 273.74C150.63 281.31 151.59 298.47 168.33 287.57C168.33 287.57 162.36 283.16 164.11 272.73C164.11 272.73 169.46 269.31 168.09 266.34C168.09 266.34 167.61 257.17 160.73 258.02H160.74Z" fill="#201A1A"/>
<path d="M165.51 272.94C165.76 274.02 165.4 275.02 164.7 275.19C164 275.35 163.23 274.61 162.98 273.53C162.73 272.45 163.09 271.45 163.79 271.28C164.49 271.12 165.26 271.86 165.51 272.94Z" fill="#DB965F"/>
<path d="M167.74 269.11C167.74 269.11 168.1 268.51 169.79 264.89C169.79 264.89 166.77 257.53 161.1 258.01C156.29 258.42 167.73 269.11 167.73 269.11H167.74Z" fill="#201A1A"/>
<path opacity="0.15" d="M177.819 316.03C175.439 309.7 174.919 299.5 175.449 300.84C175.809 301.73 176.689 302.33 177.489 302.7C177.489 302.71 177.489 302.73 177.489 302.74C177.329 304.41 177.219 308.13 177.819 316.03Z" fill="#201A1A"/>
<path opacity="0.15" d="M216.37 193.28C195.56 193.28 178.69 209.78 178.69 230.14C178.69 250.5 216.37 305.04 216.37 305.04C216.37 305.04 254.05 250.5 254.05 230.14C254.05 209.78 237.18 193.28 216.37 193.28ZM216.37 235.54C209.13 235.54 203.27 229.81 203.27 222.75C203.27 215.69 209.14 209.96 216.37 209.96C223.6 209.96 229.47 215.69 229.47 222.75C229.47 229.81 223.6 235.54 216.37 235.54Z" fill="#201A1A"/>
<path d="M216.26 193.28C196.16 193.28 179.87 209.21 179.87 228.87C179.87 248.53 216.26 301.19 216.26 301.19C216.26 301.19 252.65 248.53 252.65 228.87C252.65 209.21 236.36 193.28 216.26 193.28ZM216.26 234.08C209.27 234.08 203.61 228.55 203.61 221.73C203.61 214.91 209.27 209.38 216.26 209.38C223.25 209.38 228.91 214.91 228.91 221.73C228.91 228.55 223.25 234.08 216.26 234.08Z" fill="#B52046"/>
<path d="M201.15 277.56L207.63 269.65C208.84 268.01 209.73 265.87 210.23 264.46C210.5 263.7 210.69 262.9 210.75 262.09C210.89 260.45 211.36 258.7 211.8 257.36C212.24 256.02 212.64 255.09 212.64 255.09C213.3 255.32 213.68 256.02 213.52 256.7L212.82 259.54L214.4 257.2C214.93 256.41 215.68 255.77 216.57 255.42C219.89 254.07 220.37 258.22 220.37 258.22C220.35 261.33 216.17 266.24 216.17 266.24L204.92 284.87C204.2 286.06 203.01 286.77 201.76 286.93C200.53 287.09 199.23 286.72 198.23 285.78L197.91 281.07L201.17 277.57L201.15 277.56Z" fill="#DB965F"/>
</svg>
