<svg width="512" height="512" viewBox="0 0 512 512" fill="none" xmlns="http://www.w3.org/2000/svg">
<g opacity="0.2">
<path d="M130.98 169.21C125.29 166.54 115.89 170.88 112.89 177.25C107.17 189.4 125.68 206.99 132.41 205.1C139.93 202.99 141.42 174.12 130.98 169.22V169.21Z" stroke="#B52046" stroke-width="2" stroke-miterlimit="10" stroke-linecap="round"/>
<path d="M102.54 196.72C100.51 195.55 79.0096 183.11 66.8496 192.95C58.3096 199.86 58.2296 214.63 64.6496 222.93C77.3596 239.37 116.79 232 120.88 220.24C123.63 212.32 110.7 201.44 102.55 196.72H102.54Z" stroke="#B52046" stroke-width="2" stroke-miterlimit="10" stroke-linecap="round"/>
<path d="M130.2 399.75C182.53 386.76 241.98 373.54 334.31 375.79C385.94 377.05 397.64 361.03 436.78 341.1C471.66 323.34 488.79 288.04 478.27 268.02C467.65 247.82 435.29 255.86 408.8 225.79C396.73 212.09 398.86 202.49 391.89 187.31C369.83 139.22 287.14 101.63 246.37 121.52C192.5 147.8 238.55 261.36 178.34 292.38C140.25 312 111.46 274.33 73.8598 303.09C55.2298 317.34 32.4398 337.33 30.6698 359.03C30.6698 359.03 28.1998 412.09 130.21 399.75H130.2Z" stroke="#B52046" stroke-width="2" stroke-miterlimit="10" stroke-linecap="round"/>
<path d="M419.3 340.66C419.3 340.66 409.82 353.23 400.34 370.47C391.79 386.02 385.29 406.97 383.86 424.46C379.83 424.27 375.41 424.09 370.63 423.92C342.32 422.92 301.44 422.29 256 422.29C204.33 422.29 158.58 423.1 130.47 424.36C129.5 424.4 128.56 424.45 127.63 424.49C92.5399 381 21.8799 305.22 86.8999 274.05C86.8999 274.05 91.6599 272.6 98.8099 269.48C121.42 259.61 167.87 233.07 162.7 183.01C162.7 183.01 160.94 173.67 160.94 160.67C160.94 130.28 170.56 79.9 234.79 82.2C273.69 83.59 309.51 103.39 331.17 135.07C352.41 166.14 386.38 204.38 414.04 182.55C420.43 177.51 428.87 175.64 436.75 177.86C456.66 183.45 479.28 212.41 419.29 340.66H419.3Z" fill="#B52046"/>
<path d="M419.3 340.66C419.3 340.66 409.82 353.23 400.34 370.47C391.79 386.02 385.29 406.97 383.86 424.46C379.83 424.27 375.41 424.09 370.63 423.92C342.32 422.92 301.44 422.29 256 422.29C204.33 422.29 158.58 423.1 130.47 424.36C129.5 424.4 128.56 424.45 127.63 424.49C92.5399 381 21.8799 305.22 86.8999 274.05C86.8999 274.05 91.6599 272.6 98.8099 269.48C121.42 259.61 167.87 233.07 162.7 183.01C162.7 183.01 160.94 173.67 160.94 160.67C160.94 130.28 170.56 79.9 234.79 82.2C273.69 83.59 309.51 103.39 331.17 135.07C352.41 166.14 386.38 204.38 414.04 182.55C420.43 177.51 428.87 175.64 436.75 177.86C456.66 183.45 479.28 212.41 419.29 340.66H419.3Z" fill="white" fill-opacity="0.69"/>
</g>
<path d="M470.95 426.15C470.95 428.21 374.71 429.87 256 429.87C189.02 429.87 129.19 429.34 89.7698 428.51C80.6898 428.32 72.6898 428.11 65.9398 427.89C61.4898 427.74 57.5798 427.59 54.2598 427.44C45.7098 427.04 41.0498 426.61 41.0498 426.15C41.0498 425.57 48.6298 425.03 62.1498 424.54C67.6898 424.34 74.2198 424.15 81.6398 423.97C120.68 423.03 184.24 422.42 256 422.42C319.13 422.42 375.9 422.89 415.23 423.64C449.86 424.3 470.96 425.18 470.96 426.14L470.95 426.15Z" fill="#E9E8E8"/>
<path d="M231.84 329.61C231.84 343.79 229.1 354.45 223.61 361.57C218.12 368.69 210.07 372.25 199.47 372.25C188.87 372.25 181.43 368.6 175.88 361.29C170.33 353.98 167.56 343.42 167.56 329.61C167.56 301.43 178.2 287.34 199.47 287.34C209.89 287.34 217.89 290.99 223.47 298.3C229.05 305.61 231.84 316.04 231.84 329.61ZM190.86 329.79C190.86 337.62 191.55 343.47 192.94 347.32C194.33 351.17 196.56 353.1 199.65 353.1C205.57 353.1 208.53 345.33 208.53 329.79C208.53 314.37 205.57 306.67 199.65 306.67C196.57 306.67 194.33 308.57 192.94 312.36C191.55 316.15 190.86 321.97 190.86 329.8V329.79ZM295.47 289.28L220.45 424.51H198.25L273.27 289.28H295.47ZM326.55 383.63C326.55 397.75 323.81 408.37 318.32 415.5C312.83 422.62 304.78 426.18 294.18 426.18C283.58 426.18 276.14 422.53 270.59 415.22C265.04 407.91 262.27 397.38 262.27 383.63C262.27 355.45 272.91 341.36 294.18 341.36C304.6 341.36 312.6 345.01 318.18 352.32C323.76 359.63 326.55 370.06 326.55 383.63ZM285.57 383.82C285.57 391.65 286.26 397.5 287.65 401.35C289.04 405.2 291.27 407.13 294.36 407.13C300.28 407.13 303.24 399.36 303.24 383.82C303.24 368.4 300.28 360.7 294.36 360.7C291.28 360.7 289.04 362.6 287.65 366.39C286.26 370.18 285.57 376 285.57 383.83V383.82Z" fill="#B52046"/>
<path d="M228.76 329.61C228.76 343.79 226.02 354.45 220.53 361.57C215.04 368.69 206.99 372.25 196.39 372.25C185.79 372.25 178.35 368.6 172.8 361.29C167.25 353.98 164.48 343.42 164.48 329.61C164.48 301.43 175.12 287.34 196.39 287.34C206.81 287.34 214.81 290.99 220.39 298.3C225.97 305.61 228.76 316.04 228.76 329.61ZM187.78 329.79C187.78 337.62 188.47 343.47 189.86 347.32C191.25 351.17 193.48 353.1 196.57 353.1C202.49 353.1 205.45 345.33 205.45 329.79C205.45 314.37 202.49 306.67 196.57 306.67C193.49 306.67 191.25 308.57 189.86 312.36C188.47 316.15 187.78 321.97 187.78 329.8V329.79ZM292.39 289.28L217.37 424.51H195.17L270.19 289.28H292.39ZM323.47 383.63C323.47 397.75 320.73 408.37 315.24 415.5C309.75 422.62 301.7 426.18 291.1 426.18C280.5 426.18 273.06 422.53 267.51 415.22C261.96 407.91 259.19 397.38 259.19 383.63C259.19 355.45 269.83 341.36 291.1 341.36C301.52 341.36 309.52 345.01 315.1 352.32C320.68 359.63 323.47 370.06 323.47 383.63ZM282.49 383.82C282.49 391.65 283.18 397.5 284.57 401.35C285.96 405.2 288.19 407.13 291.28 407.13C297.2 407.13 300.16 399.36 300.16 383.82C300.16 368.4 297.2 360.7 291.28 360.7C288.2 360.7 285.96 362.6 284.57 366.39C283.18 370.18 282.49 376 282.49 383.83V383.82Z" fill="#B52046"/>
<path d="M228.76 329.61C228.76 343.79 226.02 354.45 220.53 361.57C215.04 368.69 206.99 372.25 196.39 372.25C185.79 372.25 178.35 368.6 172.8 361.29C167.25 353.98 164.48 343.42 164.48 329.61C164.48 301.43 175.12 287.34 196.39 287.34C206.81 287.34 214.81 290.99 220.39 298.3C225.97 305.61 228.76 316.04 228.76 329.61ZM187.78 329.79C187.78 337.62 188.47 343.47 189.86 347.32C191.25 351.17 193.48 353.1 196.57 353.1C202.49 353.1 205.45 345.33 205.45 329.79C205.45 314.37 202.49 306.67 196.57 306.67C193.49 306.67 191.25 308.57 189.86 312.36C188.47 316.15 187.78 321.97 187.78 329.8V329.79ZM292.39 289.28L217.37 424.51H195.17L270.19 289.28H292.39ZM323.47 383.63C323.47 397.75 320.73 408.37 315.24 415.5C309.75 422.62 301.7 426.18 291.1 426.18C280.5 426.18 273.06 422.53 267.51 415.22C261.96 407.91 259.19 397.38 259.19 383.63C259.19 355.45 269.83 341.36 291.1 341.36C301.52 341.36 309.52 345.01 315.1 352.32C320.68 359.63 323.47 370.06 323.47 383.63ZM282.49 383.82C282.49 391.65 283.18 397.5 284.57 401.35C285.96 405.2 288.19 407.13 291.28 407.13C297.2 407.13 300.16 399.36 300.16 383.82C300.16 368.4 297.2 360.7 291.28 360.7C288.2 360.7 285.96 362.6 284.57 366.39C283.18 370.18 282.49 376 282.49 383.83V383.82Z" fill="white" fill-opacity="0.2"/>
<path opacity="0.1" d="M200.42 421.43L272.01 292.37H287.16L215.56 421.43H200.42Z" fill="white"/>
<path opacity="0.2" d="M278.28 292.37H276.33H272.01L270.98 294.22H270.99L200.42 421.43H204.74L275.3 294.22H277.26L278.28 292.37Z" fill="white"/>
<path opacity="0.1" d="M196.38 369.17C187.14 369.17 180.23 365.98 175.25 359.43C170.14 352.71 167.55 342.68 167.55 329.62C167.55 316.56 170.02 306.24 174.91 299.78C177.24 296.7 180.18 294.36 183.67 292.82C187.25 291.24 191.52 290.44 196.39 290.44C201.26 290.44 205.35 291.27 208.92 292.9C212.44 294.51 215.47 296.96 217.94 300.19C223.07 306.91 225.68 316.82 225.68 329.63C225.68 342.44 223.13 353.17 218.09 359.7C215.68 362.83 212.66 365.21 209.13 366.77C205.52 368.37 201.23 369.18 196.39 369.18L196.38 369.17ZM196.57 303.59C193.48 303.59 189.3 304.93 186.97 311.3C185.44 315.47 184.7 321.52 184.7 329.79C184.7 338.06 185.44 344.13 186.96 348.36C189.29 354.82 193.47 356.18 196.57 356.18C208.53 356.18 208.53 336.31 208.53 329.79C208.53 323.27 208.53 303.58 196.57 303.58V303.59Z" fill="white"/>
<path opacity="0.2" d="M170.74 332.7C170.74 345.01 172.94 354.74 177.35 361.88C176.61 361.12 175.91 360.31 175.25 359.43C170.14 352.71 167.55 342.68 167.55 329.62C167.55 316.56 170.03 306.24 174.91 299.77C177.24 296.69 180.18 294.35 183.67 292.81C187.25 291.23 191.52 290.43 196.39 290.43C197.42 290.43 198.42 290.47 199.4 290.55C180.3 291.95 170.75 306 170.75 332.7H170.74Z" fill="white"/>
<path opacity="0.1" d="M291.1 423.14C281.86 423.14 274.95 419.95 269.97 413.4C264.86 406.68 262.27 396.65 262.27 383.59C262.27 370.53 264.74 360.21 269.63 353.75C271.96 350.67 274.9 348.33 278.39 346.79C281.97 345.21 286.24 344.41 291.11 344.41C295.98 344.41 300.07 345.24 303.64 346.87C307.16 348.48 310.19 350.93 312.66 354.16C317.79 360.88 320.4 370.79 320.4 383.6C320.4 396.41 317.85 407.14 312.81 413.67C310.4 416.8 307.38 419.18 303.85 420.74C300.24 422.34 295.95 423.15 291.11 423.15L291.1 423.14ZM291.29 357.56C288.2 357.56 284.02 358.9 281.69 365.27C280.16 369.44 279.42 375.49 279.42 383.76C279.42 392.03 280.16 398.1 281.68 402.33C284.01 408.79 288.19 410.15 291.29 410.15C303.25 410.15 303.25 390.28 303.25 383.76C303.25 377.24 303.25 357.55 291.29 357.55V357.56Z" fill="white"/>
<path opacity="0.2" d="M265.46 386.67C265.46 398.98 267.66 408.71 272.07 415.85C271.33 415.09 270.63 414.28 269.97 413.4C264.86 406.68 262.27 396.65 262.27 383.59C262.27 370.53 264.75 360.21 269.63 353.74C271.96 350.66 274.9 348.32 278.39 346.78C281.97 345.2 286.24 344.4 291.11 344.4C292.14 344.4 293.14 344.44 294.12 344.52C275.02 345.92 265.47 359.97 265.47 386.67H265.46Z" fill="white"/>
<path d="M362.42 415.88L363.39 422.35L359.6 423.77L357.06 421.16L358.12 415.59L362.42 415.88Z" fill="#DB965F"/>
<path d="M359.17 419.7C359.17 419.7 358.28 418.19 357.63 418.14C357.63 418.14 351.14 423.06 350.37 424.2C350.37 424.2 347.31 427.34 353.57 427.41L360.31 425.56C360.31 425.56 366.13 425.04 363.85 420.43L362.94 419.44C362.94 419.44 362.01 421.91 359.16 419.7H359.17Z" fill="#201A1A"/>
<path d="M350.78 375.13L353.71 392.88L357.28 417.77L361.78 417.42L363.09 417.32L362.06 391.97L364.78 353.15L352.71 352.35C352.71 352.35 349.64 363.6 350.78 375.14V375.13Z" fill="#201A1A"/>
<path opacity="0.15" d="M358.75 368.35C358.75 368.35 349.21 390.81 358.71 398.37L361.78 417.43L363.09 417.33L362.06 391.98L364.78 353.16L356.66 352.62L358.76 368.36L358.75 368.35Z" fill="#201A1A"/>
<path d="M374.32 406.57L377.93 410.92L373.47 415.29L372.36 414.17L370.57 407.57L374.32 406.57Z" fill="#DB965F"/>
<path d="M379.66 410.13C379.66 410.13 380.56 411.23 380.05 414.75C380.05 414.75 379.64 415.7 379.94 417.53C379.94 417.53 379.9 422.26 375.42 424.75C375.42 424.75 372.88 425.28 372.69 420.81C372.69 420.81 372.45 415.42 371.87 412.36C371.87 412.36 374.88 413.43 376.44 409.11C376.44 409.11 377.44 407.96 379.67 410.13H379.66Z" fill="#201A1A"/>
<path d="M373.38 350.51C373.38 350.51 378.26 359.89 373.38 370.36L365.59 387.85C365.04 389.1 365.15 390.54 365.89 391.68L375.63 406.66L371.2 409.94L358.77 396.26C356.33 393.58 355.37 389.87 356.2 386.34L360.61 367.49L357.9 351.71L373.37 350.51H373.38Z" fill="#201A1A"/>
<path d="M370.629 305.08C370.629 305.08 374.379 317.24 372.849 321.13C371.319 325.02 371.179 325.09 371.179 325.09C371.179 325.09 365.199 326.41 364.989 326.55C364.779 326.69 357.419 320.23 357.419 320.23L359.369 308.14L365.689 304.04L370.619 305.08H370.629Z" fill="#201A1A"/>
<path d="M358.159 321.58L359.269 326.93L362.529 327L368.579 327.14L371.009 324.29C370.639 323.89 370.369 323.08 370.169 322.07C369.989 321.17 369.879 320.12 369.799 319.04C369.569 315.88 369.689 312.54 369.689 312.54L361.209 315.25C360.929 319.28 358.149 321.57 358.149 321.57L358.159 321.58Z" fill="#C9885B"/>
<path d="M370.39 306.57C370.39 306.57 374 317.47 365.68 320.12C365.32 320.23 364.94 320.23 364.58 320.11C363.05 319.59 359.13 317.49 359.41 309.42C359.41 309.42 362.95 296.91 370.39 306.57Z" fill="#DB965F"/>
<path d="M354.34 322.86V334.65H354.75L355.2 322.57L354.34 322.86Z" fill="#262C84"/>
<path d="M348.979 346.95L352.019 348.51L353.569 349.31L353.849 349.45L353.809 348.69L353.749 347.52L353.609 344.71L353.179 336L353.049 333.29L350.299 332.49L349.299 343.51L349.099 345.7L348.979 346.95Z" fill="#DB965F"/>
<path d="M375.649 344.44L376.449 336.49L378.999 335.19L382.079 345.81L382.689 347.92L383.039 349.13L380.359 351.24L377.789 350.57L375.649 344.44Z" fill="#DB965F"/>
<path d="M402.12 341.49C401.16 343.57 396.87 345.6 396.87 345.6L383.67 354.69C382.82 355.27 381.82 355.39 380.93 355.11C380.06 354.84 379.29 354.2 378.91 353.27L378.4 352.04L378.15 351.42L377.74 350.43L378.18 350.25L379.63 349.65L382.8 348.34L390.12 345.31C391.43 344.58 392.67 343.41 393.44 342.62C393.85 342.19 394.22 341.71 394.51 341.19C394.53 341.15 394.56 341.1 394.59 341.06C395.18 340.05 395.98 339.07 396.65 338.33C397.35 337.56 397.9 337.06 397.9 337.06C398.28 337.41 398.32 338 398 338.4L396.67 340.09L397.83 339.37L398.44 338.99C399.04 338.62 399.73 338.42 400.44 338.45C403.07 338.55 402.14 341.48 402.14 341.48L402.12 341.49Z" fill="#DB965F"/>
<path d="M329.63 339.25C330.63 341.31 334.97 343.25 334.97 343.25L348.35 352.07C349.21 352.63 350.22 352.73 351.1 352.44C351.97 352.16 352.72 351.5 353.08 350.56L353.56 349.32L353.8 348.7L354.19 347.71L353.75 347.54L352.29 346.97L349.09 345.72L341.71 342.84C340.39 342.13 339.12 340.99 338.34 340.22C337.92 339.8 337.54 339.33 337.24 338.81C336.63 337.76 335.76 336.75 335.05 336C334.33 335.25 333.77 334.76 333.77 334.76C333.4 335.12 333.37 335.71 333.7 336.11L335.06 337.78L333.27 336.72C332.66 336.36 331.96 336.18 331.26 336.22C328.63 336.38 329.62 339.28 329.62 339.28L329.63 339.25Z" fill="#DB965F"/>
<path d="M345.65 342.5L349.3 343.51L352.64 344.44L353.61 344.71L353.91 344.79L354.3 344.83L353.96 335.43L353.51 323.11C349.75 324.54 349.25 328.52 349.25 328.52L345.64 342.49L345.65 342.5Z" fill="white"/>
<path opacity="0.15" d="M352.02 348.51C352.12 347.97 352.22 347.45 352.3 346.95C352.44 346.07 352.56 345.23 352.64 344.44C353.2 339.35 353.12 338.23 353.12 338.23L353.4 336.63L353.89 333.16C353.87 334.98 353.57 340.47 353.63 344.72V344.89L353.76 347.52L354.2 347.69L353.81 348.68L353.85 349.45L353.57 349.31L353.09 350.55C352.95 350.92 352.75 351.24 352.5 351.52C352.12 351.95 351.63 352.26 351.1 352.43C351.47 351.05 351.77 349.74 352.01 348.51H352.02Z" fill="#201A1A"/>
<path d="M351.39 359.06C351.63 356.53 352.07 353.81 352.5 351.52C353.04 348.6 353.56 346.37 353.63 346.08C353.63 346.06 353.63 346.04 353.63 346.02C353.63 345.63 353.62 345.26 353.61 344.89C353.61 344.83 353.59 341.21 353.59 341.15C353.55 337.96 353.56 337.52 353.57 336.73C353.58 336.02 353.63 335.32 353.72 334.62L353.88 333.33L353.53 323.66L353.51 323.13C353.63 323.08 353.76 323.04 353.89 323C353.99 322.97 354.09 322.94 354.19 322.91L354.33 322.86L355.19 322.57L358.15 321.58C358.15 321.58 359.82 324.39 362.91 324.92C364.81 325.24 367.25 324.7 370.17 322.07L375.11 323.76L376.05 324.08L377.26 324.49C377.26 324.49 377.3 324.51 377.38 324.58C376.79 325.93 375.86 328.37 375.23 331.53C374.76 333.9 374.46 336.68 374.61 339.73C374.88 340.29 374.99 340.66 375.02 340.78C375.02 340.81 375.02 340.83 375.02 340.86C374.94 342.48 374.9 344.05 374.89 345.55L374.94 346.92H374.89C374.89 349.14 374.96 351.19 375.04 353C375.17 355.75 375.83 358.24 375.69 359.56L351.38 359.05L351.39 359.06Z" fill="white"/>
<path opacity="0.15" d="M374.099 346.84C374.229 348.99 374.519 351.1 375.049 353C374.959 351.19 374.899 349.14 374.899 346.92H374.949L374.899 345.55C374.909 344.04 374.959 342.46 375.029 340.82C375.029 340.82 374.939 340.41 374.609 339.73C374.469 336.68 374.769 333.9 375.229 331.53L375.169 331.5C375.169 331.5 374.539 334.71 374.209 338.98C374.019 341.39 373.929 344.13 374.089 346.83L374.099 346.84Z" fill="#201A1A"/>
<path d="M374.77 341.67L374.96 346.93L375.19 346.95L385.27 343.54L381.03 331.86C379.49 326.54 377.85 324.94 377.4 324.58C376.27 327.16 373.92 333.65 374.78 341.66L374.77 341.67Z" fill="white"/>
<path d="M368.2 306.54C368.2 306.54 364.86 311.4 360 310.22C360 310.22 358.89 312.79 361.53 318.49C361.53 318.49 362.92 321.83 361.88 326.55C361.88 326.55 354.86 323.7 355.9 316.4C355.9 316.4 357.15 298.26 366.95 301.53C366.95 301.53 371.88 300.63 374.04 310.01C374.04 310.01 378.28 323.14 370.01 326.55C370.01 326.55 371.75 322.31 370.46 314.63C370.46 314.63 367.19 308.72 368.2 306.53V306.54Z" fill="#201A1A"/>
<path d="M369.25 314.39C369.1 315.19 369.41 315.92 369.93 316.01C370.45 316.1 370.99 315.53 371.14 314.73C371.29 313.93 370.98 313.2 370.46 313.11C369.94 313.02 369.4 313.59 369.25 314.39Z" fill="#DB965F"/>
<path d="M356.109 317.24C356.109 317.24 355.969 322.66 358.129 325.09C358.129 325.09 355.559 323.01 356.109 317.24Z" fill="#201A1A"/>
<path d="M374.219 313.12C374.219 313.12 375.649 322.08 372.609 326.58C372.609 326.58 376.409 322.56 374.219 313.12Z" fill="#201A1A"/>
<path d="M401.909 334.42L402.289 334.96L403.809 326.58C403.829 326.49 403.769 326.4 403.679 326.39C403.439 326.35 403.189 326.49 403.119 326.72L401.139 332.75C401.119 332.82 401.119 332.89 401.159 332.96L401.919 334.42H401.909Z" fill="#B52046"/>
<path d="M401.909 334.42L402.289 334.96L403.809 326.58C403.829 326.49 403.769 326.4 403.679 326.39C403.439 326.35 403.189 326.49 403.119 326.72L401.139 332.75C401.119 332.82 401.119 332.89 401.159 332.96L401.919 334.42H401.909Z" fill="white" fill-opacity="0.54"/>
<path opacity="0.1" d="M401.789 332.41C401.769 332.53 401.849 332.65 401.969 332.67C402.089 332.69 402.209 332.61 402.229 332.49C402.249 332.37 402.169 332.25 402.049 332.23C401.929 332.21 401.809 332.29 401.789 332.41Z" fill="#201A1A"/>
<path d="M401.809 332.42C401.789 332.53 401.859 332.64 401.979 332.66C402.089 332.68 402.199 332.61 402.219 332.49C402.239 332.38 402.169 332.27 402.049 332.25C401.939 332.23 401.829 332.3 401.809 332.42Z" fill="#B52046"/>
<path opacity="0.1" d="M401.983 332.379C401.978 332.363 401.963 332.354 401.95 332.359C401.937 332.364 401.931 332.38 401.936 332.396L402.011 332.603C402.016 332.618 402.031 332.627 402.044 332.622C402.057 332.618 402.063 332.601 402.058 332.586L401.983 332.379Z" fill="#201A1A"/>
<path d="M399.839 340.37L399.979 339.91C399.999 339.86 400.029 339.81 400.069 339.77C400.889 338.99 401.649 334.88 401.749 334.32C401.749 334.28 401.789 334.26 401.819 334.26L402.449 334.33C402.449 334.33 402.509 334.37 402.509 334.41C402.069 337.31 402.779 338.61 403.049 338.99C403.149 339.13 403.229 339.27 403.289 339.43C403.539 340.09 403.479 340.57 403.479 340.57C403.239 342.14 401.969 342.28 401.969 342.28C400.659 342.43 400.169 341.31 400.169 341.31C400.099 341 399.969 340.78 399.879 340.66C399.819 340.58 399.799 340.47 399.829 340.37H399.839ZM401.529 341.83C402.219 341.95 402.889 341.45 403.019 340.71C403.149 339.97 402.709 339.26 402.019 339.14C401.329 339.02 400.659 339.52 400.529 340.26C400.399 341 400.839 341.71 401.529 341.83Z" fill="#B52046"/>
<g opacity="0.1">
<path d="M402.019 339.09C402.739 339.22 403.199 339.95 403.059 340.72C402.919 341.49 402.229 342.01 401.509 341.88C400.789 341.75 400.329 341.02 400.469 340.25C400.609 339.48 401.299 338.96 402.019 339.09ZM401.519 341.83C402.209 341.95 402.879 341.45 403.009 340.71C403.139 339.97 402.699 339.26 402.009 339.14C401.319 339.02 400.649 339.52 400.519 340.26C400.389 341 400.829 341.71 401.519 341.83Z" fill="#201A1A"/>
<path d="M401.129 332.75L403.109 326.72C403.189 326.48 403.429 326.34 403.669 326.39C403.719 326.39 403.749 326.42 403.779 326.46C403.799 326.49 403.819 326.54 403.809 326.58L402.409 334.33H402.459C402.459 334.33 402.519 334.38 402.519 334.41C402.079 337.32 402.789 338.61 403.059 338.99C403.159 339.13 403.249 339.29 403.309 339.45C403.549 340.1 403.499 340.57 403.499 340.57C403.259 342.14 401.989 342.28 401.989 342.28C400.679 342.43 400.189 341.31 400.189 341.31C400.119 341 399.989 340.78 399.899 340.66C399.839 340.58 399.819 340.47 399.849 340.37L399.989 339.91C400.009 339.86 400.039 339.81 400.079 339.77C400.899 338.99 401.659 334.88 401.759 334.32C401.759 334.28 401.799 334.26 401.829 334.26L401.149 332.95C401.119 332.89 401.109 332.81 401.129 332.74V332.75ZM401.919 334.33H401.819H401.799C401.739 334.65 401.529 335.79 401.229 336.97C400.839 338.51 400.459 339.47 400.109 339.8C400.069 339.83 400.049 339.87 400.029 339.92L399.889 340.38C399.859 340.46 399.879 340.55 399.929 340.62C400.029 340.75 400.149 340.97 400.219 341.28C400.229 341.31 400.319 341.49 400.499 341.68C400.609 341.8 400.739 341.91 400.869 341.99C400.949 342.04 401.039 342.09 401.129 342.12C401.219 342.16 401.319 342.18 401.409 342.2C401.579 342.23 401.769 342.24 401.959 342.21C401.959 342.21 402.269 342.17 402.609 341.95C402.809 341.82 402.969 341.65 403.099 341.45C403.259 341.2 403.379 340.89 403.429 340.54C403.429 340.53 403.449 340.37 403.419 340.13C403.399 339.96 403.349 339.73 403.259 339.46C403.199 339.29 403.109 339.14 403.009 338.99C402.899 338.84 402.729 338.55 402.589 338.09C402.379 337.42 402.189 336.23 402.469 334.39C402.469 334.39 402.469 334.37 402.459 334.37H402.349L403.759 326.55C403.769 326.49 403.729 326.43 403.669 326.42C403.559 326.4 403.449 326.42 403.359 326.48C403.269 326.54 403.199 326.62 403.159 326.72L401.179 332.75C401.159 332.81 401.169 332.87 401.189 332.92L401.919 334.31V334.33Z" fill="#201A1A"/>
</g>
<path d="M400.809 333.97L400.169 334.13L404.569 326.83C404.619 326.75 404.719 326.73 404.799 326.77C405.009 326.9 405.099 327.16 404.999 327.39L402.499 333.22C402.469 333.29 402.419 333.34 402.349 333.36L400.809 333.95V333.97Z" fill="#B52046"/>
<path d="M400.809 333.97L400.169 334.13L404.569 326.83C404.619 326.75 404.719 326.73 404.799 326.77C405.009 326.9 405.099 327.16 404.999 327.39L402.499 333.22C402.469 333.29 402.419 333.34 402.349 333.36L400.809 333.95V333.97Z" fill="white" fill-opacity="0.54"/>
<path opacity="0.1" d="M402.229 332.54C402.169 332.65 402.029 332.68 401.919 332.62C401.809 332.56 401.779 332.42 401.839 332.31C401.899 332.2 402.039 332.17 402.149 332.23C402.259 332.29 402.289 332.43 402.229 332.54Z" fill="#201A1A"/>
<path d="M402.21 332.53C402.15 332.63 402.02 332.66 401.93 332.6C401.84 332.54 401.8 332.41 401.86 332.32C401.92 332.22 402.05 332.19 402.14 332.25C402.23 332.31 402.27 332.44 402.21 332.53Z" fill="#B52046"/>
<path opacity="0.1" d="M401.909 332.49C401.909 332.49 401.929 332.51 401.939 332.5L402.139 332.39C402.139 332.39 402.159 332.37 402.139 332.36C402.139 332.36 402.119 332.34 402.109 332.35L401.909 332.46C401.909 332.46 401.889 332.48 401.909 332.49Z" fill="#201A1A"/>
<path d="M398.429 339.81L398.629 339.37C398.649 339.32 398.659 339.26 398.659 339.2C398.549 338.07 400.709 334.49 400.999 334C401.019 333.97 401.009 333.93 400.979 333.91L400.459 333.55C400.459 333.55 400.389 333.54 400.359 333.57C398.769 336.04 397.389 336.55 396.929 336.65C396.769 336.69 396.609 336.74 396.459 336.82C395.839 337.15 395.559 337.55 395.559 337.55C394.709 338.89 395.559 339.83 395.559 339.83C396.439 340.81 397.549 340.29 397.549 340.29C397.799 340.1 398.039 340.02 398.189 339.99C398.289 339.97 398.369 339.9 398.419 339.81H398.429ZM396.199 339.79C395.599 339.43 395.429 338.61 395.819 337.96C396.209 337.31 397.009 337.08 397.609 337.44C398.209 337.8 398.379 338.62 397.989 339.27C397.599 339.92 396.799 340.15 396.199 339.79Z" fill="#B52046"/>
<g opacity="0.1">
<path d="M397.639 337.4C397.019 337.03 396.179 337.27 395.779 337.94C395.379 338.61 395.549 339.46 396.179 339.84C396.799 340.21 397.639 339.97 398.039 339.3C398.439 338.63 398.269 337.78 397.639 337.4ZM396.199 339.79C395.599 339.43 395.429 338.61 395.819 337.96C396.209 337.31 397.009 337.08 397.609 337.44C398.209 337.8 398.379 338.62 397.989 339.27C397.599 339.92 396.799 340.15 396.199 339.79Z" fill="#201A1A"/>
<path d="M402.499 333.24L404.999 327.41C405.099 327.18 404.999 326.91 404.799 326.79C404.759 326.77 404.719 326.76 404.669 326.77C404.629 326.78 404.589 326.81 404.569 326.85L400.509 333.6L400.469 333.57C400.469 333.57 400.399 333.56 400.369 333.59C398.779 336.06 397.389 336.57 396.939 336.67C396.769 336.71 396.609 336.77 396.449 336.85C395.839 337.18 395.569 337.57 395.569 337.57C394.719 338.91 395.569 339.85 395.569 339.85C396.449 340.83 397.559 340.31 397.559 340.31C397.809 340.12 398.049 340.04 398.199 340.01C398.299 339.99 398.379 339.92 398.429 339.83L398.629 339.39C398.649 339.34 398.659 339.28 398.659 339.22C398.549 338.09 400.709 334.51 400.999 334.02C401.019 333.99 401.009 333.95 400.979 333.93L402.359 333.4C402.429 333.37 402.479 333.32 402.509 333.26L402.499 333.24ZM400.869 333.9L400.949 333.96V333.98C400.779 334.26 400.179 335.26 399.629 336.34C398.899 337.76 398.559 338.72 398.599 339.21C398.599 339.26 398.599 339.31 398.579 339.35L398.379 339.79C398.339 339.87 398.269 339.93 398.189 339.95C398.029 339.99 397.789 340.07 397.529 340.25C397.499 340.26 397.319 340.34 397.059 340.37C396.889 340.39 396.729 340.39 396.569 340.36C396.469 340.34 396.379 340.32 396.289 340.28C396.199 340.25 396.109 340.2 396.019 340.15C395.869 340.06 395.729 339.94 395.599 339.8C395.599 339.8 395.389 339.56 395.289 339.18C395.229 338.95 395.219 338.72 395.249 338.48C395.289 338.18 395.409 337.88 395.599 337.58C395.599 337.58 395.699 337.44 395.879 337.28C396.009 337.17 396.189 337.02 396.439 336.89C396.599 336.8 396.759 336.74 396.939 336.7C397.119 336.66 397.439 336.56 397.859 336.3C398.459 335.93 399.389 335.17 400.389 333.6C400.389 333.6 400.409 333.59 400.409 333.6L400.499 333.66L404.589 326.87C404.619 326.82 404.689 326.8 404.749 326.83C404.839 326.89 404.909 326.97 404.949 327.08C404.979 327.18 404.979 327.29 404.939 327.39L402.439 333.22C402.419 333.27 402.369 333.32 402.319 333.34L400.849 333.9H400.869Z" fill="#201A1A"/>
</g>
<path d="M397.98 338.4L396.65 340.09L397.47 343.73L395.96 343.46L394.57 341.04C395.16 340.03 395.96 339.05 396.63 338.31C397.33 337.54 397.88 337.04 397.88 337.04C398.26 337.39 398.3 337.98 397.98 338.38V338.4Z" fill="#DB965F"/>
<path d="M160.31 223.97H139.77C137.489 223.97 135.64 225.819 135.64 228.1V246.03C135.64 248.311 137.489 250.16 139.77 250.16H160.31C162.591 250.16 164.44 248.311 164.44 246.03V228.1C164.44 225.819 162.591 223.97 160.31 223.97Z" fill="#B52046"/>
<path d="M160.31 223.97H139.77C137.489 223.97 135.64 225.819 135.64 228.1V246.03C135.64 248.311 137.489 250.16 139.77 250.16H160.31C162.591 250.16 164.44 248.311 164.44 246.03V228.1C164.44 225.819 162.591 223.97 160.31 223.97Z" fill="white" fill-opacity="0.54"/>
<path d="M146.1 240.68H157.73L159.93 231.79C160 231.49 159.93 231.18 159.75 230.94C159.56 230.7 159.28 230.56 158.97 230.56H143.6L146.11 240.67L146.1 240.68ZM157.1 239.88H146.73L144.62 231.37H158.97C159.05 231.37 159.1 231.41 159.12 231.44C159.14 231.47 159.17 231.52 159.15 231.6L157.1 239.88Z" fill="#B52046"/>
<path d="M146.1 240.68H157.73L159.93 231.79C160 231.49 159.93 231.18 159.75 230.94C159.56 230.7 159.28 230.56 158.97 230.56H143.6L146.11 240.67L146.1 240.68ZM157.1 239.88H146.73L144.62 231.37H158.97C159.05 231.37 159.1 231.41 159.12 231.44C159.14 231.47 159.17 231.52 159.15 231.6L157.1 239.88Z" fill="white" fill-opacity="0.32"/>
<path d="M145.97 241.97H158.51C158.73 241.97 158.91 241.79 158.91 241.57C158.91 241.35 158.73 241.17 158.51 241.17H145.97C145.58 241.17 145.35 240.99 145.35 240.93C145.35 240.87 145.58 240.69 145.97 240.69H157.47C157.69 240.69 157.87 240.51 157.87 240.29C157.87 240.07 157.69 239.89 157.47 239.89H145.97C145.17 239.89 144.55 240.35 144.55 240.93C144.55 241.51 145.18 241.97 145.97 241.97Z" fill="#B52046"/>
<path d="M145.97 241.97H158.51C158.73 241.97 158.91 241.79 158.91 241.57C158.91 241.35 158.73 241.17 158.51 241.17H145.97C145.58 241.17 145.35 240.99 145.35 240.93C145.35 240.87 145.58 240.69 145.97 240.69H157.47C157.69 240.69 157.87 240.51 157.87 240.29C157.87 240.07 157.69 239.89 157.47 239.89H145.97C145.17 239.89 144.55 240.35 144.55 240.93C144.55 241.51 145.18 241.97 145.97 241.97Z" fill="white" fill-opacity="0.32"/>
<path d="M146.36 240.46C146.36 240.46 146.43 240.46 146.46 240.45C146.67 240.4 146.81 240.18 146.75 239.96L143.98 228.99C143.84 228.43 143.34 228.04 142.76 228.04H140.54C140.32 228.04 140.14 228.22 140.14 228.44C140.14 228.66 140.32 228.84 140.54 228.84H142.76C142.97 228.84 143.15 228.98 143.21 229.19L145.98 240.16C146.03 240.34 146.19 240.46 146.37 240.46H146.36Z" fill="#B52046"/>
<path d="M146.36 240.46C146.36 240.46 146.43 240.46 146.46 240.45C146.67 240.4 146.81 240.18 146.75 239.96L143.98 228.99C143.84 228.43 143.34 228.04 142.76 228.04H140.54C140.32 228.04 140.14 228.22 140.14 228.44C140.14 228.66 140.32 228.84 140.54 228.84H142.76C142.97 228.84 143.15 228.98 143.21 229.19L145.98 240.16C146.03 240.34 146.19 240.46 146.37 240.46H146.36Z" fill="white" fill-opacity="0.32"/>
<path d="M156.93 246.1C158.09 246.1 159.04 245.16 159.04 243.99C159.04 242.82 158.1 241.88 156.93 241.88C155.76 241.88 154.82 242.82 154.82 243.99C154.82 245.16 155.76 246.1 156.93 246.1ZM156.93 242.69C157.65 242.69 158.23 243.27 158.23 243.99C158.23 244.71 157.65 245.29 156.93 245.29C156.21 245.29 155.63 244.71 155.63 243.99C155.63 243.27 156.21 242.69 156.93 242.69Z" fill="#B52046"/>
<path d="M156.93 246.1C158.09 246.1 159.04 245.16 159.04 243.99C159.04 242.82 158.1 241.88 156.93 241.88C155.76 241.88 154.82 242.82 154.82 243.99C154.82 245.16 155.76 246.1 156.93 246.1ZM156.93 242.69C157.65 242.69 158.23 243.27 158.23 243.99C158.23 244.71 157.65 245.29 156.93 245.29C156.21 245.29 155.63 244.71 155.63 243.99C155.63 243.27 156.21 242.69 156.93 242.69Z" fill="white" fill-opacity="0.32"/>
<path d="M146.69 246.1C147.85 246.1 148.8 245.16 148.8 243.99C148.8 242.82 147.86 241.88 146.69 241.88C145.52 241.88 144.58 242.82 144.58 243.99C144.58 245.16 145.52 246.1 146.69 246.1ZM146.69 242.69C147.41 242.69 147.99 243.27 147.99 243.99C147.99 244.71 147.41 245.29 146.69 245.29C145.97 245.29 145.39 244.71 145.39 243.99C145.39 243.27 145.97 242.69 146.69 242.69Z" fill="#B52046"/>
<path d="M146.69 246.1C147.85 246.1 148.8 245.16 148.8 243.99C148.8 242.82 147.86 241.88 146.69 241.88C145.52 241.88 144.58 242.82 144.58 243.99C144.58 245.16 145.52 246.1 146.69 246.1ZM146.69 242.69C147.41 242.69 147.99 243.27 147.99 243.99C147.99 244.71 147.41 245.29 146.69 245.29C145.97 245.29 145.39 244.71 145.39 243.99C145.39 243.27 145.97 242.69 146.69 242.69Z" fill="white" fill-opacity="0.32"/>
<path d="M79.9 299.45H59.36C57.079 299.45 55.23 301.299 55.23 303.58V321.51C55.23 323.791 57.079 325.64 59.36 325.64H79.9C82.1809 325.64 84.03 323.791 84.03 321.51V303.58C84.03 301.299 82.1809 299.45 79.9 299.45Z" fill="#B52046"/>
<path d="M79.9 299.45H59.36C57.079 299.45 55.23 301.299 55.23 303.58V321.51C55.23 323.791 57.079 325.64 59.36 325.64H79.9C82.1809 325.64 84.03 323.791 84.03 321.51V303.58C84.03 301.299 82.1809 299.45 79.9 299.45Z" fill="white" fill-opacity="0.54"/>
<path d="M69.12 312.4L69.87 312.6L64.91 303.97C64.86 303.88 64.74 303.85 64.65 303.9C64.4 304.04 64.29 304.35 64.4 304.62L67.18 311.5C67.21 311.58 67.27 311.64 67.35 311.67L69.13 312.4H69.12Z" fill="white"/>
<path opacity="0.1" d="M67.4999 310.7C67.5699 310.83 67.7299 310.87 67.8599 310.8C67.9899 310.73 68.0299 310.57 67.9599 310.44C67.8899 310.31 67.7299 310.27 67.5999 310.34C67.4699 310.41 67.4299 310.57 67.4999 310.7Z" fill="#201A1A"/>
<path d="M67.51 310.69C67.58 310.81 67.72 310.85 67.84 310.78C67.96 310.71 68 310.57 67.93 310.45C67.86 310.33 67.72 310.29 67.6 310.36C67.48 310.43 67.44 310.57 67.51 310.69Z" fill="#B52046"/>
<path opacity="0.1" d="M67.8599 310.65C67.8599 310.65 67.8299 310.67 67.8199 310.66L67.5899 310.53C67.5899 310.53 67.5699 310.5 67.5799 310.49C67.5799 310.49 67.6099 310.47 67.6199 310.48L67.8499 310.61C67.8499 310.61 67.8699 310.64 67.8599 310.65Z" fill="#201A1A"/>
<path d="M71.7498 319.28L71.5298 318.76C71.4998 318.7 71.4898 318.63 71.4998 318.57C71.6498 317.26 69.2198 313.02 68.8898 312.44C68.8698 312.4 68.8798 312.36 68.9098 312.33L69.5298 311.92C69.5298 311.92 69.6198 311.91 69.6398 311.94C71.4298 314.86 73.0398 315.49 73.5698 315.62C73.7598 315.67 73.9398 315.74 74.1198 315.83C74.8398 316.23 75.1498 316.7 75.1498 316.7C76.1198 318.29 75.0898 319.37 75.0898 319.37C74.0398 320.49 72.7498 319.86 72.7498 319.86C72.4598 319.64 72.1798 319.54 72.0098 319.5C71.8898 319.47 71.7998 319.39 71.7498 319.28ZM74.3598 319.31C75.0698 318.9 75.2898 317.95 74.8498 317.19C74.4098 316.42 73.4798 316.13 72.7698 316.54C72.0598 316.95 71.8398 317.9 72.2798 318.66C72.7198 319.43 73.6498 319.72 74.3598 319.31Z" fill="#B52046"/>
<path d="M71.7498 319.28L71.5298 318.76C71.4998 318.7 71.4898 318.63 71.4998 318.57C71.6498 317.26 69.2198 313.02 68.8898 312.44C68.8698 312.4 68.8798 312.36 68.9098 312.33L69.5298 311.92C69.5298 311.92 69.6198 311.91 69.6398 311.94C71.4298 314.86 73.0398 315.49 73.5698 315.62C73.7598 315.67 73.9398 315.74 74.1198 315.83C74.8398 316.23 75.1498 316.7 75.1498 316.7C76.1198 318.29 75.0898 319.37 75.0898 319.37C74.0398 320.49 72.7498 319.86 72.7498 319.86C72.4598 319.64 72.1798 319.54 72.0098 319.5C71.8898 319.47 71.7998 319.39 71.7498 319.28ZM74.3598 319.31C75.0698 318.9 75.2898 317.95 74.8498 317.19C74.4098 316.42 73.4798 316.13 72.7698 316.54C72.0598 316.95 71.8398 317.9 72.2798 318.66C72.7198 319.43 73.6498 319.72 74.3598 319.31Z" fill="white" fill-opacity="0.32"/>
<g opacity="0.1">
<path d="M72.7398 316.49C73.4798 316.07 74.4498 316.37 74.8998 317.16C75.3598 317.95 75.1298 318.94 74.3898 319.36C73.6498 319.78 72.6798 319.48 72.2298 318.69C71.7698 317.9 71.9998 316.91 72.7398 316.49ZM74.3598 319.31C75.0698 318.9 75.2898 317.95 74.8498 317.19C74.4098 316.42 73.4798 316.13 72.7698 316.54C72.0598 316.95 71.8398 317.9 72.2798 318.66C72.7198 319.43 73.6498 319.72 74.3598 319.31Z" fill="#201A1A"/>
<path d="M67.16 311.5L64.38 304.62C64.27 304.35 64.38 304.04 64.63 303.9C64.68 303.87 64.73 303.87 64.78 303.88C64.83 303.89 64.87 303.92 64.9 303.97L69.49 311.95L69.54 311.92C69.54 311.92 69.63 311.91 69.65 311.94C71.45 314.87 73.06 315.49 73.58 315.62C73.78 315.67 73.97 315.75 74.15 315.85C74.85 316.25 75.16 316.71 75.16 316.71C76.13 318.3 75.1 319.38 75.1 319.38C74.05 320.5 72.76 319.87 72.76 319.87C72.47 319.65 72.19 319.55 72.02 319.51C71.9 319.48 71.81 319.4 71.76 319.29L71.54 318.77C71.51 318.71 71.5 318.64 71.51 318.58C71.66 317.27 69.23 313.03 68.9 312.45C68.88 312.41 68.89 312.37 68.92 312.34L67.33 311.68C67.25 311.65 67.19 311.59 67.16 311.51V311.5ZM69.05 312.31L68.95 312.38C68.95 312.38 68.94 312.4 68.95 312.41C69.14 312.74 69.81 313.92 70.44 315.2C71.25 316.87 71.63 318.01 71.57 318.57C71.57 318.63 71.57 318.68 71.59 318.73L71.81 319.25C71.85 319.34 71.93 319.41 72.03 319.44C72.22 319.49 72.5 319.59 72.79 319.81C72.82 319.83 73.04 319.92 73.34 319.96C73.53 319.99 73.72 319.99 73.91 319.96C74.02 319.94 74.14 319.92 74.24 319.88C74.35 319.84 74.45 319.79 74.55 319.74C74.73 319.64 74.89 319.5 75.05 319.34C75.05 319.34 75.3 319.07 75.43 318.62C75.51 318.36 75.53 318.08 75.49 317.8C75.45 317.45 75.32 317.1 75.1 316.74C75.1 316.73 74.99 316.58 74.78 316.38C74.64 316.25 74.42 316.07 74.13 315.91C73.95 315.81 73.76 315.73 73.56 315.68C73.35 315.63 72.98 315.5 72.5 315.19C71.81 314.75 70.74 313.83 69.6 311.97C69.6 311.97 69.58 311.96 69.57 311.97L69.46 312.04L64.84 304.01C64.8 303.95 64.72 303.92 64.66 303.96C64.55 304.02 64.47 304.12 64.43 304.24C64.39 304.36 64.39 304.49 64.43 304.61L67.21 311.48C67.24 311.54 67.29 311.59 67.35 311.62L69.05 312.31Z" fill="#201A1A"/>
</g>
<path d="M67.2699 312.83L66.6899 313.34L67.3999 303.41C67.3999 303.3 67.4999 303.22 67.6099 303.23C67.8999 303.25 68.1299 303.48 68.1499 303.77L68.6499 311.17C68.6499 311.25 68.6299 311.34 68.5699 311.4L67.2799 312.83H67.2699Z" fill="white"/>
<path opacity="0.1" d="M67.9899 310.59C67.9799 310.73 67.8499 310.84 67.7099 310.83C67.5699 310.82 67.4599 310.69 67.4699 310.55C67.4799 310.41 67.6099 310.3 67.7499 310.31C67.8899 310.32 67.9999 310.45 67.9899 310.59Z" fill="#201A1A"/>
<path d="M67.97 310.59C67.97 310.72 67.8399 310.82 67.7099 310.81C67.5799 310.81 67.4799 310.68 67.4899 310.55C67.4899 310.42 67.6199 310.32 67.7499 310.33C67.8799 310.33 67.98 310.46 67.97 310.59Z" fill="#B52046"/>
<path d="M67.97 310.59C67.97 310.72 67.8399 310.82 67.7099 310.81C67.5799 310.81 67.4799 310.68 67.4899 310.55C67.4899 310.42 67.6199 310.32 67.7499 310.33C67.8799 310.33 67.98 310.46 67.97 310.59Z" fill="white" fill-opacity="0.32"/>
<path opacity="0.1" d="M67.6396 310.7C67.6396 310.7 67.6696 310.7 67.6796 310.7L67.8297 310.48C67.8297 310.48 67.8297 310.45 67.8297 310.44C67.8297 310.44 67.7996 310.44 67.7896 310.44L67.6396 310.66C67.6396 310.66 67.6396 310.69 67.6396 310.7Z" fill="#201A1A"/>
<path d="M67.8901 320.16L67.8601 319.6C67.8601 319.53 67.8401 319.47 67.8001 319.41C67.0901 318.29 67.4301 313.42 67.4801 312.76C67.4801 312.72 67.4501 312.68 67.4101 312.68L66.6701 312.58C66.6701 312.58 66.5901 312.61 66.5801 312.65C66.2401 316.06 65.0601 317.33 64.6501 317.67C64.5001 317.8 64.3601 317.94 64.2501 318.1C63.7801 318.78 63.7001 319.33 63.7001 319.33C63.5201 321.18 64.9201 321.7 64.9201 321.7C66.3601 322.25 67.2401 321.12 67.2401 321.12C67.4001 320.79 67.6101 320.58 67.7501 320.47C67.8401 320.39 67.8901 320.28 67.8901 320.16ZM65.5601 321.32C64.7401 321.26 64.1301 320.5 64.2001 319.62C64.2601 318.74 64.9701 318.07 65.7901 318.13C66.6101 318.19 67.2201 318.95 67.1501 319.83C67.0901 320.71 66.3801 321.38 65.5601 321.32Z" fill="#B52046"/>
<path d="M67.8901 320.16L67.8601 319.6C67.8601 319.53 67.8401 319.47 67.8001 319.41C67.0901 318.29 67.4301 313.42 67.4801 312.76C67.4801 312.72 67.4501 312.68 67.4101 312.68L66.6701 312.58C66.6701 312.58 66.5901 312.61 66.5801 312.65C66.2401 316.06 65.0601 317.33 64.6501 317.67C64.5001 317.8 64.3601 317.94 64.2501 318.1C63.7801 318.78 63.7001 319.33 63.7001 319.33C63.5201 321.18 64.9201 321.7 64.9201 321.7C66.3601 322.25 67.2401 321.12 67.2401 321.12C67.4001 320.79 67.6101 320.58 67.7501 320.47C67.8401 320.39 67.8901 320.28 67.8901 320.16ZM65.5601 321.32C64.7401 321.26 64.1301 320.5 64.2001 319.62C64.2601 318.74 64.9701 318.07 65.7901 318.13C66.6101 318.19 67.2201 318.95 67.1501 319.83C67.0901 320.71 66.3801 321.38 65.5601 321.32Z" fill="white" fill-opacity="0.32"/>
<g opacity="0.1">
<path d="M65.7897 318.08C64.9397 318.02 64.1997 318.71 64.1397 319.62C64.0797 320.53 64.7097 321.32 65.5597 321.38C66.4097 321.44 67.1497 320.75 67.2097 319.84C67.2697 318.93 66.6397 318.14 65.7897 318.08ZM65.5597 321.33C64.7397 321.27 64.1297 320.51 64.1997 319.63C64.2597 318.75 64.9697 318.08 65.7897 318.14C66.6097 318.2 67.2197 318.96 67.1497 319.84C67.0897 320.72 66.3797 321.39 65.5597 321.33Z" fill="#201A1A"/>
<path d="M68.6398 311.17L68.1398 303.77C68.1198 303.48 67.8898 303.25 67.5998 303.23C67.5498 303.23 67.4998 303.24 67.4598 303.28C67.4198 303.31 67.3998 303.36 67.3898 303.41L66.7398 312.59H66.6798C66.6798 312.59 66.5998 312.61 66.5898 312.65C66.2498 316.07 65.0698 317.33 64.6498 317.67C64.4898 317.8 64.3498 317.95 64.2398 318.12C63.7798 318.79 63.7098 319.33 63.7098 319.33C63.5298 321.18 64.9298 321.7 64.9298 321.7C66.3698 322.25 67.2498 321.12 67.2498 321.12C67.4098 320.79 67.6198 320.58 67.7598 320.47C67.8498 320.39 67.8998 320.28 67.8998 320.16L67.8698 319.6C67.8698 319.53 67.8498 319.47 67.8098 319.41C67.0998 318.29 67.4398 313.42 67.4898 312.76C67.4898 312.72 67.4598 312.68 67.4198 312.68L68.5698 311.4C68.6298 311.34 68.6598 311.25 68.6498 311.17H68.6398ZM67.2898 312.72L67.4098 312.74C67.4098 312.74 67.4298 312.75 67.4298 312.76C67.3998 313.14 67.3098 314.49 67.3098 315.92C67.3098 317.78 67.4598 318.97 67.7598 319.45C67.7898 319.5 67.8098 319.55 67.8098 319.61L67.8398 320.17C67.8398 320.27 67.7998 320.37 67.7198 320.43C67.5698 320.55 67.3598 320.77 67.1998 321.1C67.1798 321.13 67.0298 321.31 66.7698 321.48C66.6098 321.59 66.4398 321.67 66.2598 321.73C66.1498 321.76 66.0398 321.79 65.9198 321.8C65.8098 321.81 65.6898 321.82 65.5698 321.8C65.3698 321.79 65.1598 321.74 64.9498 321.66C64.9498 321.66 64.6098 321.53 64.2898 321.18C64.1098 320.98 63.9698 320.74 63.8798 320.47C63.7698 320.14 63.7298 319.76 63.7698 319.35C63.7698 319.34 63.7998 319.16 63.9098 318.89C63.9798 318.71 64.0998 318.46 64.2898 318.18C64.4098 318.01 64.5498 317.86 64.7098 317.72C64.8798 317.58 65.1498 317.3 65.4498 316.82C65.8798 316.12 66.4398 314.83 66.6598 312.66C66.6598 312.65 66.6698 312.64 66.6798 312.64L66.7998 312.66L67.4598 303.42C67.4598 303.35 67.5298 303.29 67.5998 303.3C67.7298 303.3 67.8398 303.36 67.9298 303.45C68.0198 303.54 68.0698 303.66 68.0798 303.78L68.5798 311.18C68.5798 311.25 68.5598 311.32 68.5098 311.37L67.2798 312.73L67.2898 312.72Z" fill="#201A1A"/>
</g>
<path d="M459.84 240.22H439.3C437.019 240.22 435.17 242.069 435.17 244.35V262.28C435.17 264.561 437.019 266.41 439.3 266.41H459.84C462.121 266.41 463.97 264.561 463.97 262.28V244.35C463.97 242.069 462.121 240.22 459.84 240.22Z" fill="#B52046"/>
<path d="M459.84 240.22H439.3C437.019 240.22 435.17 242.069 435.17 244.35V262.28C435.17 264.561 437.019 266.41 439.3 266.41H459.84C462.121 266.41 463.97 264.561 463.97 262.28V244.35C463.97 242.069 462.121 240.22 459.84 240.22Z" fill="white" fill-opacity="0.54"/>
<path d="M449.63 247.42H450C450.44 247.42 450.8 247.78 450.8 248.22H448.82C448.82 247.78 449.18 247.42 449.62 247.42H449.63Z" fill="#B52046"/>
<path d="M448.78 247.37C448.33 246.77 446.93 245.11 445.75 245.8C445.75 245.8 444.08 248.72 446.06 248.64L448.82 248.22L448.89 247.8C448.91 247.64 448.88 247.49 448.78 247.36V247.37Z" fill="#B52046"/>
<path d="M450.91 247.29C451.52 246.59 453.01 245.06 453.83 245.76C453.83 245.76 455.52 247.69 454.06 248.78C454.06 248.78 452.24 249.54 450.6 248.23V248.02C450.63 247.75 450.73 247.5 450.91 247.29Z" fill="#B52046"/>
<path d="M458.29 248.45H453.13V261.05H458.29V248.45Z" fill="#B52046"/>
<path d="M458.29 248.45H453.13V261.05H458.29V248.45Z" fill="white" fill-opacity="0.2"/>
<path opacity="0.1" d="M458.29 248.45H453.13V251.04H458.29V248.45Z" fill="#201A1A"/>
<path d="M453.4 250.6H458.54V248.23H453.4V250.6Z" fill="#B52046"/>
<path d="M453.4 250.6H458.54V248.23H453.4V250.6Z" fill="white" fill-opacity="0.2"/>
<path d="M456.43 248.22H454.97V261.06H456.43V248.22Z" fill="white"/>
<path d="M453.14 248.45H440.95V261.05H453.14V248.45Z" fill="#B52046"/>
<path d="M453.14 248.45H440.95V261.05H453.14V248.45Z" fill="white" fill-opacity="0.32"/>
<path opacity="0.1" d="M453.14 248.45H440.95V251.04H453.14V248.45Z" fill="#201A1A"/>
<path d="M453.48 248.23H440.6V250.6H453.48V248.23Z" fill="#B52046"/>
<path d="M453.48 248.23H440.6V250.6H453.48V248.23Z" fill="white" fill-opacity="0.32"/>
<path d="M447.88 248.22H446.24V261.06H447.88V248.22Z" fill="white"/>
<path d="M402.26 181.51H381.72C379.439 181.51 377.59 183.359 377.59 185.64V203.57C377.59 205.851 379.439 207.7 381.72 207.7H402.26C404.541 207.7 406.39 205.851 406.39 203.57V185.64C406.39 183.359 404.541 181.51 402.26 181.51Z" fill="#B52046"/>
<path d="M402.26 181.51H381.72C379.439 181.51 377.59 183.359 377.59 185.64V203.57C377.59 205.851 379.439 207.7 381.72 207.7H402.26C404.541 207.7 406.39 205.851 406.39 203.57V185.64C406.39 183.359 404.541 181.51 402.26 181.51Z" fill="white" fill-opacity="0.54"/>
<path d="M391.3 202.82V200.8C390.11 200.78 388.88 200.42 388.17 199.92L388.66 198.58C389.4 199.06 390.46 199.44 391.61 199.44C393.06 199.44 394.05 198.62 394.05 197.48C394.05 196.34 393.25 195.7 391.74 195.1C389.65 194.3 388.36 193.38 388.36 191.64C388.36 189.9 389.57 188.72 391.45 188.42V186.4H392.72V188.34C393.95 188.38 394.79 188.7 395.38 189.04L394.87 190.36C394.44 190.12 393.6 189.68 392.29 189.68C390.71 189.68 390.12 190.6 390.12 191.4C390.12 192.44 390.88 192.96 392.66 193.68C394.77 194.52 395.83 195.56 395.83 197.34C395.83 198.92 394.7 200.4 392.59 200.74V202.82H391.3Z" fill="#B52046"/>
<path d="M391.3 202.82V200.8C390.11 200.78 388.88 200.42 388.17 199.92L388.66 198.58C389.4 199.06 390.46 199.44 391.61 199.44C393.06 199.44 394.05 198.62 394.05 197.48C394.05 196.34 393.25 195.7 391.74 195.1C389.65 194.3 388.36 193.38 388.36 191.64C388.36 189.9 389.57 188.72 391.45 188.42V186.4H392.72V188.34C393.95 188.38 394.79 188.7 395.38 189.04L394.87 190.36C394.44 190.12 393.6 189.68 392.29 189.68C390.71 189.68 390.12 190.6 390.12 191.4C390.12 192.44 390.88 192.96 392.66 193.68C394.77 194.52 395.83 195.56 395.83 197.34C395.83 198.92 394.7 200.4 392.59 200.74V202.82H391.3Z" fill="white" fill-opacity="0.32"/>
</svg>
