<svg width="512" height="512" viewBox="0 0 512 512" fill="none" xmlns="http://www.w3.org/2000/svg">
<g opacity="0.2">
<path d="M131.16 152.84C125.48 150.17 116.09 154.51 113.1 160.86C107.39 172.99 125.87 190.55 132.59 188.66C140.1 186.55 141.58 157.74 131.16 152.83V152.84Z" stroke="#B52046" stroke-width="2" stroke-miterlimit="5" stroke-linecap="round"/>
<path d="M102.76 180.31C100.73 179.14 79.27 166.72 67.13 176.55C58.6 183.45 58.52 198.2 64.93 206.48C77.62 222.9 116.98 215.54 121.07 203.79C123.82 195.88 110.91 185.02 102.77 180.31H102.76Z" stroke="#B52046" stroke-width="2" stroke-miterlimit="5" stroke-linecap="round"/>
<path d="M130.38 383C182.62 370.03 241.98 356.83 334.15 359.08C385.7 360.34 397.38 344.34 436.45 324.45C471.27 306.72 488.37 271.47 477.87 251.5C467.27 231.33 434.97 239.36 408.51 209.34C396.46 195.67 398.58 186.08 391.63 170.92C369.61 122.91 287.06 85.38 246.35 105.24C192.57 131.48 238.55 244.85 178.43 275.82C140.41 295.41 111.66 257.8 74.1201 286.51C55.5201 300.74 32.7601 320.69 31.0001 342.35C31.0001 342.35 28.5401 395.32 130.37 383H130.38Z" stroke="#B52046" stroke-width="2" stroke-miterlimit="5" stroke-linecap="round"/>
<path d="M419 324.01C419 324.01 409.54 336.56 400.07 353.77C391.54 369.29 385.05 390.21 383.62 407.67C379.6 407.48 375.19 407.3 370.41 407.13C342.14 406.13 301.34 405.5 255.97 405.5C204.39 405.5 158.71 406.31 130.65 407.56C129.68 407.6 128.74 407.65 127.81 407.69C92.7801 364.27 22.2301 288.62 87.1501 257.5C87.1501 257.5 91.9101 256.05 99.0401 252.94C121.61 243.09 167.98 216.59 162.83 166.61C162.83 166.61 161.07 157.28 161.07 144.31C161.07 113.97 170.68 63.68 234.8 65.97C273.63 67.36 309.4 87.12 331.02 118.75C352.23 149.77 386.14 187.94 413.76 166.15C420.13 161.12 428.56 159.25 436.43 161.47C456.31 167.05 478.89 195.96 419 324V324.01Z" fill="#B52046"/>
<path d="M419 324.01C419 324.01 409.54 336.56 400.07 353.77C391.54 369.29 385.05 390.21 383.62 407.67C379.6 407.48 375.19 407.3 370.41 407.13C342.14 406.13 301.34 405.5 255.97 405.5C204.39 405.5 158.71 406.31 130.65 407.56C129.68 407.6 128.74 407.65 127.81 407.69C92.7801 364.27 22.2301 288.62 87.1501 257.5C87.1501 257.5 91.9101 256.05 99.0401 252.94C121.61 243.09 167.98 216.59 162.83 166.61C162.83 166.61 161.07 157.28 161.07 144.31C161.07 113.97 170.68 63.68 234.8 65.97C273.63 67.36 309.4 87.12 331.02 118.75C352.23 149.77 386.14 187.94 413.76 166.15C420.13 161.12 428.56 159.25 436.43 161.47C456.31 167.05 478.89 195.96 419 324V324.01Z" fill="white" fill-opacity="0.69"/>
</g>
<path d="M470.97 407.84C470.97 409.89 375.24 411.54 257.15 411.54C190.52 411.54 131.01 411.01 91.7901 410.18C82.7601 409.99 74.8001 409.78 68.0901 409.56C63.6701 409.42 59.7801 409.26 56.4701 409.11C47.9701 408.71 43.3201 408.28 43.3201 407.83C43.3201 407.26 50.8601 406.71 64.3101 406.23C69.8201 406.03 76.3201 405.84 83.7001 405.67C122.54 404.74 185.75 404.13 257.14 404.13C319.94 404.13 376.41 404.6 415.53 405.35C449.97 406.01 470.96 406.88 470.96 407.84H470.97Z" fill="#E9E8E8"/>
<path d="M216.67 193.64L236.48 226.67C237.23 227.92 236.82 229.54 235.57 230.29L206.36 247.81C205.11 248.56 203.49 248.15 202.74 246.9L179.28 207.79C178.53 206.54 178.94 204.92 180.19 204.17L203.17 190.39L203.41 190.45L216.67 193.64Z" fill="#B52046"/>
<path d="M216.67 193.64L236.48 226.67C237.23 227.92 236.82 229.54 235.57 230.29L206.36 247.81C205.11 248.56 203.49 248.15 202.74 246.9L179.28 207.79C178.53 206.54 178.94 204.92 180.19 204.17L203.17 190.39L203.41 190.45L216.67 193.64Z" fill="white" fill-opacity="0.54"/>
<path opacity="0.1" d="M216.67 193.64L210.17 197.54C209.15 198.15 207.83 197.82 207.22 196.8L203.41 190.45L216.67 193.64Z" fill="#201A1A"/>
<path d="M207.25 222.24L206.63 221.2C206.09 220.3 205.82 219.41 205.8 218.51C205.79 217.62 206.06 216.49 206.63 215.13C207.19 213.84 207.5 212.88 207.55 212.26C207.6 211.63 207.46 211.05 207.14 210.51C206.78 209.9 206.27 209.57 205.63 209.53C204.99 209.48 204.27 209.7 203.47 210.18C202.07 211.02 200.75 212.44 199.5 214.43L196.13 212.28C197.51 209.86 199.37 207.95 201.71 206.55C203.63 205.4 205.44 204.94 207.13 205.18C208.82 205.42 210.13 206.32 211.05 207.86C211.67 208.89 211.97 209.92 211.95 210.94C211.93 211.97 211.55 213.34 210.8 215.06C210.3 216.26 210.04 217.11 210 217.6C209.97 218.09 210.12 218.61 210.46 219.17L210.96 220.01L207.25 222.24ZM209.68 227.3C209.21 226.52 209.06 225.8 209.24 225.14C209.42 224.49 209.91 223.92 210.71 223.44C211.49 222.97 212.21 222.82 212.88 222.98C213.55 223.14 214.12 223.6 214.58 224.36C215.02 225.1 215.16 225.81 214.98 226.49C214.81 227.17 214.33 227.74 213.57 228.2C212.79 228.67 212.05 228.83 211.37 228.67C210.69 228.51 210.12 228.05 209.67 227.3H209.68Z" fill="#B52046"/>
<path d="M207.25 222.24L206.63 221.2C206.09 220.3 205.82 219.41 205.8 218.51C205.79 217.62 206.06 216.49 206.63 215.13C207.19 213.84 207.5 212.88 207.55 212.26C207.6 211.63 207.46 211.05 207.14 210.51C206.78 209.9 206.27 209.57 205.63 209.53C204.99 209.48 204.27 209.7 203.47 210.18C202.07 211.02 200.75 212.44 199.5 214.43L196.13 212.28C197.51 209.86 199.37 207.95 201.71 206.55C203.63 205.4 205.44 204.94 207.13 205.18C208.82 205.42 210.13 206.32 211.05 207.86C211.67 208.89 211.97 209.92 211.95 210.94C211.93 211.97 211.55 213.34 210.8 215.06C210.3 216.26 210.04 217.11 210 217.6C209.97 218.09 210.12 218.61 210.46 219.17L210.96 220.01L207.25 222.24ZM209.68 227.3C209.21 226.52 209.06 225.8 209.24 225.14C209.42 224.49 209.91 223.92 210.71 223.44C211.49 222.97 212.21 222.82 212.88 222.98C213.55 223.14 214.12 223.6 214.58 224.36C215.02 225.1 215.16 225.81 214.98 226.49C214.81 227.17 214.33 227.74 213.57 228.2C212.79 228.67 212.05 228.83 211.37 228.67C210.69 228.51 210.12 228.05 209.67 227.3H209.68Z" fill="white" fill-opacity="0.32"/>
<path d="M420.53 192.67L432.38 230.1C432.83 231.52 432.04 233.03 430.63 233.48L397.53 243.96C396.11 244.41 394.6 243.62 394.15 242.21L380.12 197.89C379.67 196.47 380.46 194.96 381.87 194.51L407.91 186.27L408.14 186.38L420.54 192.67H420.53Z" fill="#B52046"/>
<path d="M420.53 192.67L432.38 230.1C432.83 231.52 432.04 233.03 430.63 233.48L397.53 243.96C396.11 244.41 394.6 243.62 394.15 242.21L380.12 197.89C379.67 196.47 380.46 194.96 381.87 194.51L407.91 186.27L408.14 186.38L420.54 192.67H420.53Z" fill="white" fill-opacity="0.54"/>
<path opacity="0.1" d="M420.53 192.67L413.16 195C412.01 195.37 410.77 194.73 410.41 193.57L408.13 186.37L420.53 192.66V192.67Z" fill="#201A1A"/>
<path d="M417.65 220.41L413.24 221.81L406.82 216.26L404.76 224.5L400.62 225.81L403.69 214.5L395.24 207.46L399.5 206.11L405.5 211.42L407.28 203.64L411.44 202.32L408.58 213.17L417.65 220.41Z" fill="#B52046"/>
<path d="M417.65 220.41L413.24 221.81L406.82 216.26L404.76 224.5L400.62 225.81L403.69 214.5L395.24 207.46L399.5 206.11L405.5 211.42L407.28 203.64L411.44 202.32L408.58 213.17L417.65 220.41Z" fill="white" fill-opacity="0.32"/>
<path d="M304.5 130.2L292.42 167.56C291.96 168.98 290.44 169.75 289.03 169.29L256 158.61C254.58 158.15 253.81 156.63 254.27 155.22L268.57 110.99C269.03 109.57 270.55 108.8 271.96 109.26L297.95 117.66L298.07 117.88L304.51 130.2H304.5Z" fill="#B52046"/>
<path d="M304.5 130.2L292.42 167.56C291.96 168.98 290.44 169.75 289.03 169.29L256 158.61C254.58 158.15 253.81 156.63 254.27 155.22L268.57 110.99C269.03 109.57 270.55 108.8 271.96 109.26L297.95 117.66L298.07 117.88L304.51 130.2H304.5Z" fill="white" fill-opacity="0.54"/>
<path opacity="0.1" d="M304.5 130.2L297.15 127.82C296 127.45 295.37 126.21 295.74 125.06L298.06 117.88L304.5 130.2Z" fill="#201A1A"/>
<path d="M282.111 152.71L279.311 151.81L277.651 147.75L273.931 150.07L271.311 149.22L276.551 146.11L274.281 140.87L276.981 141.74L278.491 145.58L281.911 143.34L284.551 144.19L279.571 147.2L282.101 152.71H282.111Z" fill="#B52046"/>
<path d="M282.111 152.71L279.311 151.81L277.651 147.75L273.931 150.07L271.311 149.22L276.551 146.11L274.281 140.87L276.981 141.74L278.491 145.58L281.911 143.34L284.551 144.19L279.571 147.2L282.101 152.71H282.111Z" fill="white" fill-opacity="0.32"/>
<path d="M296.65 132.8L271.12 124.55C270.81 124.45 270.65 124.12 270.75 123.82C270.85 123.51 271.18 123.35 271.48 123.45L297.01 131.7C297.32 131.8 297.48 132.13 297.38 132.43C297.28 132.74 296.95 132.9 296.65 132.8Z" fill="#B52046"/>
<path d="M296.65 132.8L271.12 124.55C270.81 124.45 270.65 124.12 270.75 123.82C270.85 123.51 271.18 123.35 271.48 123.45L297.01 131.7C297.32 131.8 297.48 132.13 297.38 132.43C297.28 132.74 296.95 132.9 296.65 132.8Z" fill="white" fill-opacity="0.32"/>
<path d="M295.791 135.59L270.261 127.34C269.951 127.24 269.791 126.91 269.891 126.61C269.991 126.3 270.321 126.14 270.621 126.24L296.15 134.49C296.46 134.59 296.62 134.92 296.52 135.22C296.42 135.53 296.091 135.69 295.791 135.59Z" fill="#B52046"/>
<path d="M295.791 135.59L270.261 127.34C269.951 127.24 269.791 126.91 269.891 126.61C269.991 126.3 270.321 126.14 270.621 126.24L296.15 134.49C296.46 134.59 296.62 134.92 296.52 135.22C296.42 135.53 296.091 135.69 295.791 135.59Z" fill="white" fill-opacity="0.32"/>
<path d="M294.94 138.38L269.41 130.13C269.1 130.03 268.94 129.7 269.04 129.4C269.14 129.09 269.47 128.93 269.77 129.03L295.3 137.28C295.61 137.38 295.77 137.71 295.67 138.01C295.57 138.32 295.24 138.48 294.94 138.38Z" fill="#B52046"/>
<path d="M294.94 138.38L269.41 130.13C269.1 130.03 268.94 129.7 269.04 129.4C269.14 129.09 269.47 128.93 269.77 129.03L295.3 137.28C295.61 137.38 295.77 137.71 295.67 138.01C295.57 138.32 295.24 138.48 294.94 138.38Z" fill="white" fill-opacity="0.32"/>
<path d="M294.081 141.16L268.551 132.91C268.241 132.81 268.081 132.48 268.181 132.18C268.281 131.87 268.611 131.71 268.911 131.81L294.441 140.06C294.751 140.16 294.911 140.49 294.811 140.79C294.711 141.1 294.381 141.26 294.081 141.16Z" fill="#B52046"/>
<path d="M294.081 141.16L268.551 132.91C268.241 132.81 268.081 132.48 268.181 132.18C268.281 131.87 268.611 131.71 268.911 131.81L294.441 140.06C294.751 140.16 294.911 140.49 294.811 140.79C294.711 141.1 294.381 141.26 294.081 141.16Z" fill="white" fill-opacity="0.32"/>
<path d="M293 143.89L267.47 135.64C267.16 135.54 267 135.21 267.1 134.91C267.2 134.6 267.53 134.44 267.83 134.54L293.36 142.79C293.67 142.89 293.83 143.22 293.73 143.52C293.63 143.83 293.3 143.99 293 143.89Z" fill="#B52046"/>
<path d="M293 143.89L267.47 135.64C267.16 135.54 267 135.21 267.1 134.91C267.2 134.6 267.53 134.44 267.83 134.54L293.36 142.79C293.67 142.89 293.83 143.22 293.73 143.52C293.63 143.83 293.3 143.99 293 143.89Z" fill="white" fill-opacity="0.32"/>
<path d="M129.62 286.47L114.63 322.76C114.06 324.13 112.49 324.79 111.11 324.22L79.0201 310.97C77.6501 310.4 76.9901 308.83 77.5601 307.45L95.3101 264.49C95.8801 263.12 97.4501 262.46 98.8301 263.03L124.07 273.46L124.17 273.69L129.62 286.48V286.47Z" fill="#B52046"/>
<path d="M129.62 286.47L114.63 322.76C114.06 324.13 112.49 324.79 111.11 324.22L79.0201 310.97C77.6501 310.4 76.9901 308.83 77.5601 307.45L95.3101 264.49C95.8801 263.12 97.4501 262.46 98.8301 263.03L124.07 273.46L124.17 273.69L129.62 286.48V286.47Z" fill="white" fill-opacity="0.54"/>
<path opacity="0.1" d="M129.62 286.47L122.48 283.52C121.36 283.06 120.83 281.78 121.29 280.66L124.17 273.68L129.62 286.47Z" fill="#201A1A"/>
<path d="M105.52 307.14L102.8 306.02L101.47 301.84L97.58 303.86L95.03 302.81L100.5 300.12L98.65 294.71L101.27 295.79L102.47 299.74L106.06 297.77L108.62 298.83L103.42 301.44L105.51 307.13L105.52 307.14Z" fill="#B52046"/>
<path d="M105.52 307.14L102.8 306.02L101.47 301.84L97.58 303.86L95.03 302.81L100.5 300.12L98.65 294.71L101.27 295.79L102.47 299.74L106.06 297.77L108.62 298.83L103.42 301.44L105.51 307.13L105.52 307.14Z" fill="white" fill-opacity="0.32"/>
<path d="M121.6 288.45L96.8001 278.21C96.5001 278.09 96.3601 277.75 96.4801 277.45C96.6001 277.15 96.9401 277.01 97.2401 277.13L122.04 287.37C122.34 287.49 122.48 287.83 122.36 288.13C122.24 288.43 121.9 288.57 121.6 288.45Z" fill="#B52046"/>
<path d="M121.6 288.45L96.8001 278.21C96.5001 278.09 96.3601 277.75 96.4801 277.45C96.6001 277.15 96.9401 277.01 97.2401 277.13L122.04 287.37C122.34 287.49 122.48 287.83 122.36 288.13C122.24 288.43 121.9 288.57 121.6 288.45Z" fill="white" fill-opacity="0.32"/>
<path d="M120.52 291.16L95.72 280.92C95.42 280.8 95.28 280.46 95.4 280.16C95.52 279.86 95.86 279.72 96.16 279.84L120.96 290.08C121.26 290.2 121.4 290.54 121.28 290.84C121.16 291.14 120.82 291.28 120.52 291.16Z" fill="#B52046"/>
<path d="M120.52 291.16L95.72 280.92C95.42 280.8 95.28 280.46 95.4 280.16C95.52 279.86 95.86 279.72 96.16 279.84L120.96 290.08C121.26 290.2 121.4 290.54 121.28 290.84C121.16 291.14 120.82 291.28 120.52 291.16Z" fill="white" fill-opacity="0.32"/>
<path d="M119.44 293.87L94.6402 283.63C94.3402 283.51 94.2002 283.17 94.3202 282.87C94.4402 282.57 94.7802 282.43 95.0802 282.55L119.88 292.79C120.18 292.91 120.32 293.25 120.2 293.55C120.08 293.85 119.74 293.99 119.44 293.87Z" fill="#B52046"/>
<path d="M119.44 293.87L94.6402 283.63C94.3402 283.51 94.2002 283.17 94.3202 282.87C94.4402 282.57 94.7802 282.43 95.0802 282.55L119.88 292.79C120.18 292.91 120.32 293.25 120.2 293.55C120.08 293.85 119.74 293.99 119.44 293.87Z" fill="white" fill-opacity="0.32"/>
<path d="M118.37 296.58L93.5701 286.34C93.2701 286.22 93.1301 285.88 93.2501 285.58C93.3701 285.28 93.7101 285.14 94.0101 285.26L118.81 295.5C119.11 295.62 119.25 295.96 119.13 296.26C119.01 296.56 118.67 296.7 118.37 296.58Z" fill="#B52046"/>
<path d="M118.37 296.58L93.5701 286.34C93.2701 286.22 93.1301 285.88 93.2501 285.58C93.3701 285.28 93.7101 285.14 94.0101 285.26L118.81 295.5C119.11 295.62 119.25 295.96 119.13 296.26C119.01 296.56 118.67 296.7 118.37 296.58Z" fill="white" fill-opacity="0.32"/>
<path d="M117.08 299.21L92.2801 288.97C91.9801 288.85 91.8401 288.51 91.9601 288.21C92.0801 287.91 92.4201 287.77 92.7201 287.89L117.52 298.13C117.82 298.25 117.96 298.59 117.84 298.89C117.72 299.19 117.38 299.33 117.08 299.21Z" fill="#B52046"/>
<path d="M117.08 299.21L92.2801 288.97C91.9801 288.85 91.8401 288.51 91.9601 288.21C92.0801 287.91 92.4201 287.77 92.7201 287.89L117.52 298.13C117.82 298.25 117.96 298.59 117.84 298.89C117.72 299.19 117.38 299.33 117.08 299.21Z" fill="white" fill-opacity="0.32"/>
<path d="M239.08 293.85V281.44C239.08 278.76 240.95 276.59 243.25 276.59H286.83C289.13 276.59 291 278.76 291 281.44V406.15H153.7V307.84C153.7 302.92 157.13 298.92 161.36 298.92H234.72C237.13 298.92 239.08 296.65 239.08 293.85Z" fill="#B52046"/>
<path d="M273.01 350.08C273.01 351.07 273.88 351.86 274.94 351.86C274.98 351.86 275.02 351.86 275.07 351.86L279.56 351.59L280.36 348.62C278.31 348.67 275.79 349.02 273.01 350.08Z" fill="#DE995F"/>
<path d="M291.05 406.14H153.75L134.47 320.84C133.5 316.53 136.29 312.32 140.12 312.32H265.34C267.99 312.32 270.31 314.4 270.99 317.39L291.05 406.14Z" fill="#B52046"/>
<path d="M291.05 406.14H153.75L134.47 320.84C133.5 316.53 136.29 312.32 140.12 312.32H265.34C267.99 312.32 270.31 314.4 270.99 317.39L291.05 406.14Z" fill="white" fill-opacity="0.2"/>
<path d="M196.75 373.84H203.82L208.43 362.79L217.41 373.84H224.04L211.37 358.78L217.64 344.64H210.81L206.6 355.15L198.35 344.64H191.68L203.71 359.12L196.75 373.84Z" fill="white"/>
<path d="M288.96 298.86L284.43 301.26L279.95 294.72C273.65 292.35 271.85 282.98 271.85 282.98C271.43 279.78 271.96 278.1 272.86 277.28C273.48 276.72 274.27 276.56 275.04 276.6C276.59 276.68 277.98 277.58 278.76 278.92L282.66 285.71L282.49 281.46C282.45 280.51 283.19 279.74 284.03 279.74C284.15 279.74 284.28 279.76 284.4 279.79C285.14 282.68 285.17 286.2 285.08 288.63C285.01 290.35 284.88 291.52 284.88 291.52L288.01 296.16L288.95 298.86H288.96Z" fill="#DE995F"/>
<path d="M305.8 319.18L301.8 321.18L300.72 321.72C300.72 321.72 300.62 321.77 300.58 321.79C300.36 321.89 300.13 321.98 299.9 322.06C299.72 322.12 299.53 322.17 299.35 322.21C298.9 322.31 298.44 322.35 297.99 322.34C297.9 322.34 297.81 322.34 297.72 322.33C297.41 322.31 297.1 322.26 296.79 322.19C295.41 321.87 294.15 321.04 293.3 319.79L288.46 312.65L278.11 297.39C277.98 297.2 278.05 296.93 278.26 296.83L283.54 294.21L287.41 292.29C287.58 292.21 287.79 292.26 287.9 292.41L298.56 307.35C298.61 307.42 298.67 307.5 298.72 307.57C299.32 308.43 299.89 309.31 300.4 310.22C300.65 310.67 300.9 311.13 301.12 311.6C301.75 312.9 302.8 314.21 304.12 315.48C304.29 315.65 304.47 315.81 304.65 315.98C304.69 316.02 304.82 316.29 304.97 316.65C305.14 317.05 305.34 317.56 305.5 318.02C305.64 318.43 305.76 318.79 305.8 319.01C305.82 319.12 305.82 319.19 305.8 319.21V319.18Z" fill="white"/>
<path opacity="0.1" d="M285.1 288.63C281.11 286.28 278.9 283.61 277.75 281.05C277.56 281.42 277.35 281.79 277.13 282.16C277.13 282.16 272.86 282.51 272.87 277.26C273.49 276.7 274.28 276.54 275.05 276.58C276.6 276.66 277.99 277.56 278.77 278.9L282.67 285.69L282.5 281.44C282.46 280.49 283.2 279.72 284.04 279.72C284.16 279.72 284.29 279.74 284.41 279.77C285.15 282.66 285.18 286.18 285.09 288.61L285.1 288.63Z" fill="#201A1A"/>
<path d="M307.12 275.3L306.04 289.17C306.04 289.17 303.59 288.6 300.75 288.14C297.59 287.62 293.95 287.23 292.71 287.9L298.35 272.69L299.67 269.14C299.67 269.14 301.73 275.03 307.12 275.3Z" fill="#CC8B5B"/>
<path opacity="0.1" d="M300.75 288.13C297.59 287.61 293.95 287.22 292.71 287.89L298.35 272.68L298.93 272.8L300.74 288.13H300.75Z" fill="#201A1A"/>
<path d="M277.72 269.13C277.72 269.13 270.57 283.63 293.11 290.61C293.11 290.61 301.4 293.48 298.19 273.14C298.19 273.14 292.82 254.17 277.73 269.12L277.72 269.13Z" fill="#DE995F"/>
<path d="M279.77 272.12C279.77 272.12 279.97 276.02 277.12 280.73C277.12 280.73 268.3 281.46 276.04 265.23C276.04 265.23 281.82 251.54 297.21 262.69C297.21 262.69 300.81 272.33 302.19 273.04L297.94 273.75C297.94 273.75 290.74 265.86 289.85 273.75C289.85 273.75 290.44 276.83 292.2 278.37L291.51 279.64L287.79 277.1C287.79 277.1 282.79 271.48 279.75 272.11L279.77 272.12Z" fill="#201A1A"/>
<path d="M325.44 392.41C325.44 392.41 328.77 394.59 328.58 399.3V404.92L323.19 405.24C321.92 405.31 320.84 404.38 320.84 403.2C320.84 403.2 316.43 406.37 311.04 407.55C311.04 407.55 303.82 408.94 299.47 405.83C298.8 405.35 298.63 404.48 299.09 403.83C299.77 402.87 301.62 401.69 306.5 401.09C306.95 401.03 307.37 400.89 307.75 400.66C309.02 399.9 312.08 397.83 315.79 393.72L325.44 392.41Z" fill="#201A1A"/>
<path d="M373.12 383.39C373.12 383.39 378.31 386.02 380.03 388.78L377.45 394.62C376.94 395.78 375.47 396.3 374.25 395.76C374.25 395.76 374.34 402.4 369.97 406.86C369.64 407.19 369.2 407.41 368.72 407.47C366.69 407.74 360.77 408.3 355.82 406.45C355.82 406.45 351.8 403.82 359.94 402.01C359.94 402.01 365.62 401.65 365.13 396.21L364.74 389.96L369.64 384.07L373.12 383.39Z" fill="#201A1A"/>
<path d="M345.93 321.43C345.93 321.43 345.62 322.76 344.76 324.89C344.36 325.87 343.85 327.01 343.2 328.27C341.09 332.36 337.51 337.69 331.63 342.61C328.06 345.6 323.65 348.43 318.21 350.74C317.24 351.15 316.72 352.13 316.97 353.09C317.9 356.73 320.07 366.09 321.52 378.66C321.59 379.29 321.74 379.92 321.96 380.52L326.68 393.53L325.31 393.61L311.34 394.38L303.01 355.13C303.01 355.13 299.58 344.71 310.07 336.37C310.07 336.37 322.72 326.22 328.5 322.54C328.97 322.24 329.4 321.98 329.77 321.78L338.2 321.59L345.94 321.42L345.93 321.43Z" fill="#201A1A"/>
<path opacity="0.1" d="M316.97 353.1C317.9 356.74 320.07 366.1 321.52 378.67C321.59 379.3 321.74 379.93 321.96 380.53L326.68 393.54L325.31 393.62L320.85 380.16L316.93 357.86C314.28 350.25 317.81 349.61 317.81 349.61C321.14 348.88 330.65 341.91 330.65 341.91L335.98 328.71L343.21 328.27C339.82 334.84 332.62 344.63 318.23 350.74C317.26 351.15 316.74 352.13 316.99 353.09L316.97 353.1Z" fill="#201A1A"/>
<path d="M374.4 383.97C374.4 383.97 374.19 384.47 373.82 385.27C372.48 388.15 368.99 395 365.15 397.36L331.82 384.24C331.82 384.24 318 378.17 325.06 363.66L331.63 342.61L336.95 325.56L338.19 321.59L339.26 318.15L353.18 309.63C353.18 309.63 355.94 312.22 358.07 316.47C358.07 316.49 358.09 316.5 358.09 316.52C360.47 321.29 362.06 328.14 358.08 335.74L337.89 368.92L374.4 383.96V383.97Z" fill="#201A1A"/>
<path opacity="0.1" d="M358.07 316.49C353.28 321.28 348.75 323.77 344.76 324.9C341.84 325.73 339.2 325.83 336.96 325.58C331.93 325.01 328.83 322.66 328.83 322.66L328.49 322.56C328.96 322.26 329.39 322 329.76 321.8L338.19 321.61L339.26 318.17L353.18 309.65C353.18 309.65 355.94 312.24 358.07 316.49Z" fill="#201A1A"/>
<path d="M317.83 289.12L315.85 293.78L314.35 297.31L308.93 310.07L306.62 315.52L305.83 317.38L305.55 318.05L305.48 318L304.94 317.57L303.66 316.56L296.53 310.96C297.28 309.91 298.01 308.75 298.7 307.54C298.88 307.23 299.05 306.92 299.22 306.6C301.21 302.93 302.87 298.88 304.03 295.76C304.23 295.22 304.41 294.72 304.58 294.24C305.38 291.97 305.83 290.48 305.83 290.48L314.4 289.51L317.83 289.12Z" fill="white"/>
<path opacity="0.1" d="M315.86 293.49V293.77L314.36 297.3L308.94 310.06L306.63 315.51L305.84 317.37L305.56 318.04L305.49 317.99C305.63 318.4 305.75 318.76 305.79 318.98C305.81 319.09 305.81 319.16 305.79 319.18L301.79 321.18L303.66 316.56L304.1 315.46L306.81 308.76L307.45 303.09L304.57 294.25C305.37 291.98 305.82 290.49 305.82 290.49L314.39 289.52C314.49 291.86 314.75 293.78 315.84 293.51L315.86 293.49Z" fill="#201A1A"/>
<path d="M274.8 364.77C276.16 366.09 278.22 366.74 281.34 365.2C281.34 365.2 289.11 361.82 290.36 355.6L296.97 349.48L291.09 343.77L285.65 349.25C285.65 349.25 283.59 348.54 280.35 348.61L279.55 351.58L280.55 351.52L274.9 356.92C272.68 359.05 272.59 362.62 274.79 364.77H274.8Z" fill="#DE995F"/>
<path d="M357.71 315.81C357.71 315.81 344.17 329.16 328.39 322.63L315.25 309.66C315.25 309.66 309.03 302.19 305.66 295.93C304.59 293.95 303.76 290.14 303.54 288.68L304.54 285.55L306.43 275.4C306.43 275.4 322.1 274.17 331.78 283.92C333.8 285.95 336.01 287.82 338.34 289.54C344.2 293.87 354.5 303.03 357.71 315.82V315.81Z" fill="white"/>
<path opacity="0.1" d="M309.45 301.98C309.45 301.98 305.98 292.95 310.39 286.24L314.08 301.98H309.45Z" fill="#201A1A"/>
<path opacity="0.1" d="M319.16 313.51L322.84 301.67C324.1 297.62 323.77 292.51 323.38 290.75C322.46 286.66 318.05 279.14 309.71 286.49C310.14 288.02 310.57 289.55 311 291.08C312.64 296.91 314.29 302.73 315.93 308.56V313.55L317.51 311.89L319.16 313.51Z" fill="#201A1A"/>
<path d="M296.73 333.94L288.06 345.98L295.12 352.32C295.12 352.32 308.78 337.75 312.12 331.31L322.21 301.55C323.23 298.55 323.59 295.37 323.2 292.22C322.71 288.27 321 283.9 315.93 283.08C315.93 283.08 305.64 282.63 309.07 297.31L309.56 303.38L304.07 319.61L296.72 333.93L296.73 333.94Z" fill="white"/>
<path opacity="0.1" d="M315.94 351.62C315.94 351.62 309.77 349.99 307.61 345.09C307.61 345.09 309.67 351.8 315.94 351.62Z" fill="#201A1A"/>
<path opacity="0.1" d="M315.93 354.02C315.93 354.02 309.81 355.01 307.55 354.02C307.55 354.02 312.05 356.11 315.93 354.02Z" fill="#201A1A"/>
<path opacity="0.1" d="M337.94 368.97C337.94 368.97 334.02 368.7 328.83 372.05C328.83 372.05 333.04 368.24 337.94 368.97Z" fill="#201A1A"/>
<path opacity="0.1" d="M337.94 368.88C337.94 368.88 331.28 371.96 330.69 374.14C330.69 374.14 329.71 371.6 337.94 368.88Z" fill="#201A1A"/>
<path opacity="0.1" d="M374.4 383.97C374.4 383.97 374.19 384.47 373.82 385.27L336.82 368.88L354.41 339.42C363.03 326.28 357.19 317.35 357.19 317.35L358.1 316.53C360.48 321.3 362.07 328.15 358.09 335.75L337.9 368.93L374.41 383.97H374.4Z" fill="#201A1A"/>
<path d="M330.22 227.76H318.03C313.352 227.76 309.56 231.552 309.56 236.23V240.6C309.56 245.278 313.352 249.07 318.03 249.07H330.22C334.898 249.07 338.69 245.278 338.69 240.6V236.23C338.69 231.552 334.898 227.76 330.22 227.76Z" fill="#B52046"/>
<path d="M320.75 247.35H327.51C327.51 247.35 326.91 252.79 320.75 255.5C320.75 255.5 323.99 250.73 320.75 247.35Z" fill="#B52046"/>
<path d="M322.46 240.53V239.88C322.46 239.32 322.58 238.84 322.82 238.42C323.06 238.01 323.49 237.57 324.13 237.1C324.74 236.66 325.14 236.31 325.34 236.04C325.53 235.77 325.63 235.46 325.63 235.12C325.63 234.74 325.49 234.45 325.21 234.26C324.93 234.06 324.54 233.96 324.04 233.96C323.17 233.96 322.17 234.24 321.06 234.81L320.11 232.9C321.41 232.17 322.78 231.81 324.23 231.81C325.43 231.81 326.38 232.1 327.09 232.67C327.8 233.25 328.15 234.01 328.15 234.97C328.15 235.61 328 236.16 327.71 236.63C327.42 237.1 326.87 237.62 326.05 238.2C325.49 238.61 325.14 238.93 324.99 239.14C324.84 239.36 324.77 239.64 324.77 239.99V240.51H322.46V240.53ZM322.18 243.51C322.18 243.02 322.31 242.65 322.57 242.4C322.83 242.15 323.21 242.03 323.71 242.03C324.21 242.03 324.57 242.16 324.83 242.41C325.09 242.67 325.23 243.03 325.23 243.51C325.23 243.99 325.1 244.33 324.83 244.6C324.56 244.86 324.19 245 323.71 245C323.23 245 322.84 244.87 322.58 244.61C322.31 244.35 322.18 243.99 322.18 243.52V243.51Z" fill="white"/>
</svg>
