<svg width="512" height="512" viewBox="0 0 512 512" fill="none" xmlns="http://www.w3.org/2000/svg">
<g opacity="0.2">
<path d="M131.19 169.35C125.51 166.68 116.12 171.02 113.13 177.37C107.42 189.5 125.9 207.06 132.62 205.17C140.13 203.06 141.61 174.25 131.19 169.34V169.35Z" stroke="#B52046" stroke-width="2" stroke-miterlimit="10" stroke-linecap="round"/>
<path d="M102.79 196.82C100.76 195.65 79.3 183.23 67.16 193.06C58.63 199.96 58.55 214.71 64.96 222.99C77.65 239.41 117.01 232.05 121.1 220.3C123.85 212.39 110.94 201.53 102.8 196.82H102.79Z" stroke="#B52046" stroke-width="2" stroke-miterlimit="10" stroke-linecap="round"/>
<path d="M130.41 399.51C182.65 386.54 242.01 373.34 334.18 375.59C385.73 376.85 397.41 360.85 436.48 340.96C471.3 323.23 488.4 287.98 477.9 268.01C467.3 247.84 435 255.87 408.54 225.85C396.49 212.18 398.61 202.59 391.66 187.43C369.64 139.42 287.09 101.89 246.38 121.75C192.6 147.99 238.58 261.36 178.46 292.33C140.44 311.92 111.69 274.31 74.1501 303.02C55.5501 317.25 32.7901 337.2 31.0301 358.86C31.0301 358.86 28.5701 411.83 130.4 399.51H130.41Z" stroke="#B52046" stroke-width="2" stroke-miterlimit="10" stroke-linecap="round"/>
<path d="M419.03 340.52C419.03 340.52 409.57 353.07 400.1 370.28C391.57 385.8 385.08 406.72 383.65 424.18C379.63 423.99 375.22 423.81 370.44 423.64C342.17 422.64 301.37 422.01 256 422.01C204.42 422.01 158.74 422.82 130.68 424.07C129.71 424.11 128.77 424.16 127.84 424.2C92.8103 380.78 22.2603 305.13 87.1803 274.01C87.1803 274.01 91.9403 272.56 99.0703 269.45C121.64 259.6 168.01 233.1 162.86 183.12C162.86 183.12 161.1 173.79 161.1 160.82C161.1 130.48 170.71 80.19 234.83 82.48C273.66 83.87 309.43 103.63 331.05 135.26C352.26 166.28 386.17 204.45 413.79 182.66C420.16 177.63 428.59 175.76 436.46 177.98C456.34 183.56 478.92 212.47 419.03 340.51V340.52Z" fill="#B52046"/>
<path d="M419.03 340.52C419.03 340.52 409.57 353.07 400.1 370.28C391.57 385.8 385.08 406.72 383.65 424.18C379.63 423.99 375.22 423.81 370.44 423.64C342.17 422.64 301.37 422.01 256 422.01C204.42 422.01 158.74 422.82 130.68 424.07C129.71 424.11 128.77 424.16 127.84 424.2C92.8103 380.78 22.2603 305.13 87.1803 274.01C87.1803 274.01 91.9403 272.56 99.0703 269.45C121.64 259.6 168.01 233.1 162.86 183.12C162.86 183.12 161.1 173.79 161.1 160.82C161.1 130.48 170.71 80.19 234.83 82.48C273.66 83.87 309.43 103.63 331.05 135.26C352.26 166.28 386.17 204.45 413.79 182.66C420.16 177.63 428.59 175.76 436.46 177.98C456.34 183.56 478.92 212.47 419.03 340.51V340.52Z" fill="white" fill-opacity="0.69"/>
</g>
<path d="M470.6 425.87C470.6 427.92 374.52 429.59 256 429.59C189.13 429.59 129.4 429.06 90.0399 428.23C80.9699 428.04 72.9899 427.83 66.2499 427.61C61.8099 427.47 57.9099 427.31 54.5899 427.16C46.0599 426.76 41.3999 426.33 41.3999 425.87C41.3999 425.29 48.9599 424.75 62.4599 424.26C67.9899 424.06 74.5099 423.87 81.9199 423.69C120.9 422.75 184.35 422.15 256 422.15C319.02 422.15 375.7 422.62 414.96 423.37C449.53 424.03 470.6 424.91 470.6 425.87Z" fill="#E9E8E8"/>
<path d="M206.859 197.132C209.751 200.641 211.355 205.188 211.305 209.735C211.277 212.333 210.798 215.198 212.31 217.312C213.457 218.916 215.549 219.719 216.481 221.457C217.602 223.547 216.646 226.187 217.336 228.457C218.314 231.674 222.082 233.019 224.317 235.532C226.254 237.711 226.971 240.899 226.19 243.709C225.41 246.519 223.17 248.87 220.415 249.823C218.935 250.335 217.243 250.445 215.842 249.747C214.331 248.993 213.397 247.448 212.641 245.939C211.153 242.973 198.111 226.921 197.372 223.686" fill="#201A1A"/>
<path d="M197.371 193.348C192.038 192.489 186.912 196.03 184.664 200.942C182.417 205.854 182.356 211.441 182.19 216.84C182.025 222.24 181.645 227.876 178.889 232.522C177.14 235.471 174.431 238.057 174.006 241.459C173.626 244.506 175.202 247.573 174.679 250.598C174.223 253.232 172.216 255.523 172.296 258.194C172.391 261.408 175.697 263.83 178.911 263.916C182.125 264.002 185.128 262.318 187.648 260.322C191.736 257.081 195.051 252.87 197.239 248.135" fill="#201A1A"/>
<path d="M188.597 206.065C187.893 200.441 191.962 195.301 197.673 194.757C203.056 194.244 207.84 198.252 208.646 203.599C209.353 208.286 209.961 213.017 209.94 214.735C209.874 219.918 206.842 221.934 205.613 222.541C205.332 222.679 204.559 222.836 204.249 222.88C204.23 222.883 204.216 222.901 204.22 222.92L205.371 228.868C205.892 232.766 203.717 236.242 199.826 236.809C195.922 237.378 192.87 234.384 192.274 230.484L188.597 206.065Z" fill="#DB965F"/>
<path d="M204.213 222.885C204.213 222.885 200.867 223.657 196.259 221.728C196.259 221.728 198.248 226.01 204.523 224.488L204.213 222.885Z" fill="#DB965F"/>
<path d="M204.213 222.885C204.213 222.885 200.867 223.657 196.259 221.728C196.259 221.728 198.248 226.01 204.523 224.488L204.213 222.885Z" fill="black" fill-opacity="0.2"/>
<path d="M207.962 199.406C207.561 197.457 206.219 195.794 204.585 194.659C203.197 193.694 201.555 193.055 199.866 193.003C198.176 192.951 196.445 193.519 195.224 194.689C194.322 195.553 193.859 196.778 193.817 198.026L193.915 197.165C193.662 197.872 193.663 198.64 193.926 199.335C193.927 199.337 193.927 199.338 193.927 199.34L193.926 199.335C194.069 199.713 194.241 200.091 194.392 200.469C194.823 201.546 195.659 202.455 196.695 202.976C197.172 203.215 197.701 203.376 198.236 203.351C198.769 203.325 199.307 203.096 199.631 202.671C200.094 202.064 200.041 201.222 199.965 200.463C200.424 201.179 200.91 201.921 201.647 202.345C202.383 202.769 203.447 202.754 203.966 202.08C204.468 201.428 204.269 200.491 203.978 199.721C204.449 200.439 205.123 201.021 205.902 201.384C206.333 201.584 206.841 201.715 207.277 201.527C207.647 201.366 207.896 200.996 207.99 200.604C208.085 200.213 208.043 199.801 207.962 199.406Z" fill="#201A1A"/>
<path d="M203.511 201.015C203.455 201.017 203.465 200.285 203.228 199.149C202.99 198.032 202.425 196.453 201.101 195.286C200.449 194.71 199.698 194.312 198.969 194.135C198.239 193.955 197.545 193.977 196.986 194.086C195.853 194.316 195.304 194.853 195.27 194.797C195.259 194.785 195.377 194.641 195.648 194.445C195.917 194.249 196.351 194.014 196.936 193.864C197.518 193.72 198.254 193.672 199.037 193.848C199.821 194.02 200.624 194.437 201.313 195.046C202.713 196.281 203.266 197.954 203.451 199.106C203.545 199.692 203.566 200.172 203.562 200.502C203.557 200.834 203.531 201.016 203.511 201.015Z" fill="#455A64"/>
<path d="M260.247 272.839L236.56 263.449C236.56 263.449 224.425 247.536 224.678 247.227L216.161 256.556L228.541 273.314L257.227 280.03L270.813 280.139C269.762 274.914 260.247 272.839 260.247 272.839Z" fill="#DB965F"/>
<path d="M208.619 227.445L205.395 226.195L191.46 227.962V230.424L191.061 230.473C191.061 230.473 186.733 231.259 182.524 233.786C177.429 236.845 174.781 242.745 175.725 248.613C176.292 252.137 177.39 256.42 179.506 258.895C183.553 263.63 187.249 257.779 187.249 257.779C187.249 257.779 189.789 263.572 189.643 266.312C189.521 268.607 188.506 273.389 188.18 274.882C188.125 275.134 188.29 275.377 188.543 275.423L217.939 280.858L218.083 273.673L217.148 244.121L215.85 232.643C215.85 232.645 215.892 227.161 208.619 227.445Z" fill="white"/>
<path d="M215.399 230.736L226.607 246.93L217.583 257.922L215.399 230.736Z" fill="white"/>
<path d="M217.801 264.814C217.779 264.814 217.764 264.442 217.757 263.769C217.748 263.043 217.736 262.083 217.721 260.923C217.663 258.523 217.528 255.205 217.05 251.574C216.585 247.941 215.879 244.695 215.339 242.355C215.074 241.225 214.854 240.291 214.688 239.584C214.535 238.929 214.46 238.565 214.481 238.559C214.503 238.554 214.618 238.907 214.809 239.553C215 240.198 215.261 241.136 215.56 242.301C216.157 244.631 216.902 247.882 217.368 251.533C217.849 255.181 217.949 258.516 217.949 260.922C217.937 262.125 217.92 263.099 217.882 263.771C217.851 264.443 217.824 264.815 217.801 264.814Z" fill="#201A1A"/>
<path d="M190.222 240.191C190.22 240.243 189.371 240.232 188.007 240.305C186.642 240.376 184.762 240.564 182.721 240.984C180.681 241.408 178.88 241.984 177.6 242.46C176.319 242.935 175.544 243.282 175.522 243.235C175.512 243.216 175.696 243.108 176.037 242.93C176.378 242.75 176.883 242.515 177.517 242.249C178.786 241.715 180.595 241.098 182.656 240.67C184.717 240.245 186.623 240.092 187.999 240.078C188.687 240.07 189.244 240.085 189.628 240.116C190.011 240.144 190.223 240.169 190.222 240.191Z" fill="#FAFAFA"/>
<path d="M216.184 247.605C216.191 247.647 215.66 247.776 214.787 247.909C213.915 248.043 212.701 248.172 211.354 248.219C210.006 248.265 208.785 248.219 207.906 248.145C207.027 248.072 206.488 247.979 206.491 247.938C206.495 247.891 207.04 247.903 207.917 247.918C208.795 247.934 210.006 247.944 211.342 247.899C212.679 247.853 213.886 247.76 214.76 247.684C215.635 247.609 216.178 247.559 216.184 247.605Z" fill="#FAFAFA"/>
<path d="M221.331 240.276C221.388 240.336 220.396 241.327 218.926 242.221C217.461 243.123 216.126 243.554 216.099 243.476C216.064 243.388 217.322 242.832 218.759 241.947C220.2 241.071 221.268 240.205 221.331 240.276Z" fill="#FAFAFA"/>
<path d="M216.8 232.767C216.855 232.822 215.533 234.01 213.536 234.848C211.543 235.7 209.77 235.822 209.769 235.745C209.753 235.646 211.466 235.385 213.411 234.552C215.361 233.736 216.741 232.687 216.8 232.767Z" fill="#FAFAFA"/>
<path d="M217.412 260.142C217.421 260.163 217.213 260.27 216.83 260.448C216.448 260.63 215.881 260.862 215.171 261.122C213.753 261.644 211.734 262.226 209.449 262.58C207.162 262.929 205.062 262.979 203.552 262.907C202.797 262.872 202.187 262.821 201.768 262.762C201.349 262.708 201.119 262.667 201.121 262.645C201.126 262.593 202.056 262.668 203.558 262.68C205.059 262.694 207.137 262.608 209.401 262.263C211.664 261.913 213.671 261.372 215.099 260.908C216.527 260.445 217.392 260.094 217.412 260.142Z" fill="#FAFAFA"/>
<path d="M217.64 268.494C217.644 268.504 217.554 268.555 217.377 268.643C217.165 268.744 216.908 268.866 216.597 269.014C215.919 269.335 214.915 269.752 213.659 270.222C212.403 270.697 210.881 271.188 209.169 271.659C207.453 272.112 205.545 272.536 203.521 272.856C201.494 273.164 199.547 273.339 197.774 273.426C196 273.497 194.4 273.49 193.059 273.418C191.719 273.351 190.637 273.257 189.894 273.156C189.553 273.11 189.271 273.071 189.038 273.039C188.843 273.009 188.741 272.988 188.742 272.977C188.743 272.966 188.848 272.966 189.045 272.975C189.279 272.991 189.562 273.009 189.905 273.031C190.651 273.094 191.732 273.153 193.067 273.19C194.403 273.233 195.995 273.217 197.758 273.131C199.521 273.027 201.455 272.845 203.471 272.538C205.483 272.22 207.381 271.807 209.093 271.372C210.799 270.92 212.321 270.453 213.581 270.008C214.842 269.568 215.855 269.184 216.547 268.898C216.866 268.773 217.131 268.669 217.349 268.584C217.536 268.516 217.635 268.485 217.64 268.494Z" fill="#FAFAFA"/>
<path d="M163.588 399.451L160.259 414.503L154.193 425.648C153.755 426.451 154.09 427.457 154.921 427.839C155.387 428.052 155.922 428.03 156.365 427.773C159.187 426.143 169.54 420.093 169.722 418.978C169.932 417.687 174.288 403.334 174.288 403.334L163.588 399.451Z" fill="#201A1A"/>
<path d="M161 411L163.588 399.451L174.288 403.334L171 414.5L161 411Z" fill="#DB965F"/>
<g opacity="0.6">
<path d="M154.921 427.839L169.97 417.967L169.814 418.602C169.68 419.15 169.357 419.634 168.899 419.965C167.675 420.849 164.24 423.215 156.41 427.785C155.955 428.051 155.394 428.072 154.921 427.839Z" fill="#201A1A"/>
</g>
<path d="M212.288 405.022L211.388 417.049C211.388 417.049 223.312 422.003 223.362 424.242L199.979 423.334L200.612 404.537L212.288 405.022Z" fill="#201A1A"/>
<g opacity="0.6">
<path d="M204.197 415.755C203.74 415.861 203.407 416.358 203.495 416.819C203.582 417.281 204.085 417.623 204.543 417.525C205.002 417.427 205.42 416.843 205.281 416.394C205.143 415.946 204.531 415.575 204.109 415.781" fill="#201A1A"/>
</g>
<g opacity="0.6">
<path d="M199.979 423.335L200.117 421.442L222.484 423.02C222.484 423.02 223.508 423.513 223.362 424.242L199.979 423.335Z" fill="#201A1A"/>
</g>
<path d="M188.078 275.338C188.078 275.338 184.366 275.501 181.919 288.143C179.473 300.785 160.669 403.211 160.669 403.211L174.287 403.334L199.979 305.955L198.272 406.345L212.107 407.404C212.107 407.404 222.49 296.343 222.587 289.88C222.709 281.824 218.082 273.675 218.082 273.675L188.078 275.338Z" fill="#201A1A"/>
<path d="M206.796 274.256C206.883 274.274 205.47 281.496 203.641 290.386C201.81 299.278 200.257 306.469 200.17 306.452C200.083 306.434 201.496 299.213 203.326 290.321C205.155 281.432 206.71 274.238 206.796 274.256Z" fill="#455A64"/>
<path d="M208.92 276.06C208.897 276.028 209.289 275.912 209.712 276.29C209.906 276.471 210.097 276.774 210.083 277.161C210.076 277.552 209.779 277.934 209.386 278.095C208.995 278.264 208.515 278.21 208.23 277.942C207.943 277.682 207.86 277.334 207.866 277.068C207.891 276.502 208.248 276.302 208.254 276.341C208.297 276.373 208.053 276.604 208.093 277.061C208.114 277.28 208.208 277.545 208.422 277.716C208.627 277.891 208.962 277.925 209.262 277.799C209.561 277.673 209.771 277.41 209.789 277.14C209.814 276.869 209.691 276.615 209.55 276.448C209.249 276.1 208.913 276.113 208.92 276.06Z" fill="#455A64"/>
<path d="M208.33 281.066C208.322 281.027 208.713 281.079 208.927 281.579C209.022 281.815 209.064 282.157 208.889 282.486C208.717 282.822 208.295 283.022 207.889 282.985C207.482 282.958 207.095 282.696 206.978 282.337C206.855 281.984 206.951 281.653 207.081 281.435C207.369 280.974 207.764 280.984 207.75 281.021C207.769 281.069 207.459 281.145 207.281 281.541C207.198 281.73 207.154 281.993 207.253 282.23C207.344 282.466 207.608 282.64 207.913 282.665C208.219 282.688 208.507 282.556 208.633 282.337C208.767 282.119 208.765 281.852 208.712 281.652C208.597 281.234 208.303 281.111 208.33 281.066Z" fill="#455A64"/>
<path d="M195.279 276.187C195.298 276.193 195.249 276.42 195.117 276.82C194.986 277.22 194.756 277.786 194.399 278.451C193.697 279.777 192.388 281.488 190.448 282.765C188.508 284.044 186.419 284.573 184.924 284.696C184.172 284.762 183.561 284.75 183.142 284.713C182.723 284.676 182.495 284.631 182.497 284.612C182.5 284.552 183.427 284.657 184.899 284.471C186.362 284.294 188.384 283.742 190.271 282.499C192.158 281.255 193.462 279.615 194.202 278.34C194.953 277.06 195.222 276.166 195.279 276.187Z" fill="#455A64"/>
<path d="M221.778 285.171C221.765 285.189 221.62 285.101 221.369 284.925C221.114 284.754 220.772 284.466 220.381 284.08C219.597 283.311 218.672 282.061 218.06 280.484C217.456 278.905 217.302 277.357 217.367 276.261C217.398 275.712 217.457 275.269 217.533 274.971C217.601 274.672 217.649 274.51 217.671 274.514C217.728 274.525 217.597 275.189 217.595 276.266C217.589 277.341 217.773 278.835 218.36 280.369C218.954 281.9 219.819 283.131 220.546 283.923C221.27 284.721 221.813 285.125 221.778 285.171Z" fill="#455A64"/>
<path d="M182.663 250.976L188.714 251.31C189.096 253.272 190.424 256.271 190.424 256.271C195.295 247.817 199.071 236.491 200.008 231.939C199.871 231.484 199.71 230.981 199.508 230.419C199.275 229.77 199.474 228.541 199.585 227.859C199.748 226.846 200.032 225.482 200.117 224.851C200.376 222.928 200.686 222.626 201.357 222.843C202.27 223.139 200.983 228.245 201.731 228.356C202.133 228.416 202.624 226.666 202.767 225.231C202.91 223.795 203.559 219.38 204.033 219.086C204.728 218.655 205.335 219.337 205.159 220.766C204.982 222.213 204.757 226.527 205.516 226.585C206.263 226.643 206.891 219.323 206.891 219.323C206.891 219.323 206.772 217.73 207.651 217.768C209.235 217.837 207.997 225.554 207.862 226.285C207.767 226.794 208.59 226.887 208.662 226.335C208.736 225.767 209.119 219.015 210.731 219.069C211.969 219.111 209.772 225.428 210.467 226.893C211.162 228.358 211.645 221.92 212.827 222.008C213.267 222.042 213.592 222.128 212.784 225.771C212.35 227.729 211.074 231.329 209.958 234.31C208.085 244.413 199.864 276.731 186.977 270.816C179.766 267.505 176.4 251.115 176.4 251.115L182.663 250.976Z" fill="#DB965F"/>
<path d="M209.957 234.315C209.951 234.312 209.972 234.238 210.019 234.094C210.074 233.93 210.145 233.721 210.235 233.458C210.436 232.876 210.718 232.059 211.078 231.019C211.437 229.958 211.878 228.66 212.317 227.134C212.542 226.372 212.723 225.547 212.893 224.662C212.975 224.22 213.06 223.765 213.111 223.297C213.132 223.065 213.157 222.826 213.143 222.596C213.126 222.356 213.089 222.16 212.9 222.156C212.704 222.103 212.572 222.265 212.438 222.469C212.314 222.674 212.218 222.91 212.132 223.152C211.959 223.638 211.824 224.154 211.69 224.682C211.556 225.212 211.432 225.755 211.271 226.309C211.174 226.588 211.132 226.858 210.902 227.159C210.859 227.195 210.82 227.244 210.733 227.261C210.638 227.285 210.568 227.248 210.501 227.208C210.413 227.129 210.37 227.05 210.331 226.976C210.262 226.82 210.22 226.661 210.201 226.506C210.091 225.27 210.373 224.074 210.566 222.834C210.672 222.215 210.784 221.589 210.865 220.956C210.905 220.639 210.938 220.32 210.942 220.005C210.954 219.713 210.902 219.318 210.774 219.263C210.617 219.203 210.331 219.382 210.18 219.643C210.01 219.9 209.885 220.205 209.777 220.516C209.563 221.143 209.424 221.811 209.303 222.487C209.186 223.165 209.094 223.856 209.019 224.557C208.984 224.908 208.95 225.26 208.915 225.615L208.869 226.149C208.855 226.294 208.856 226.596 208.624 226.77C208.41 226.93 208.123 226.948 207.895 226.799C207.78 226.725 207.691 226.587 207.674 226.449C207.659 226.378 207.672 226.313 207.677 226.251L207.7 226.119C207.754 225.762 207.809 225.403 207.865 225.042C207.966 224.319 208.054 223.588 208.125 222.85C208.194 222.113 208.245 221.368 208.257 220.621C208.258 219.882 208.252 219.107 208.04 218.429C207.97 218.224 207.856 218.037 207.729 217.983C207.599 217.936 207.41 217.984 207.313 218.116C207.1 218.416 207.065 218.91 207.081 219.313L207.082 219.332L207.081 219.343C206.949 220.791 206.792 222.214 206.583 223.612C206.475 224.312 206.361 225.003 206.185 225.688C206.142 225.859 206.089 226.03 206.029 226.201C205.947 226.372 205.925 226.545 205.68 226.733C205.468 226.834 205.311 226.719 205.228 226.633C205.138 226.539 205.101 226.446 205.06 226.355C204.989 226.174 204.953 225.998 204.921 225.824C204.725 224.435 204.807 223.099 204.885 221.789C204.911 221.13 205.072 220.479 204.985 219.9C204.943 219.614 204.831 219.327 204.641 219.199C204.547 219.137 204.44 219.123 204.325 219.15C204.268 219.168 204.21 219.188 204.153 219.223C204.098 219.269 204.109 219.252 204.066 219.329C203.827 219.832 203.71 220.469 203.581 221.044C203.46 221.634 203.356 222.22 203.262 222.799C203.168 223.378 203.085 223.949 203.011 224.512C202.934 225.071 202.896 225.637 202.786 226.187C202.681 226.735 202.555 227.269 202.355 227.78C202.304 227.908 202.247 228.034 202.177 228.159C202.091 228.275 202.042 228.425 201.806 228.498C201.672 228.534 201.555 228.443 201.494 228.366C201.443 228.286 201.417 228.21 201.397 228.138C201.366 227.995 201.352 227.86 201.347 227.727C201.334 226.678 201.489 225.715 201.542 224.785C201.571 224.324 201.592 223.868 201.538 223.447C201.51 223.25 201.447 223.017 201.334 222.971C201.169 222.905 200.955 222.871 200.832 222.96C200.559 223.157 200.464 223.608 200.376 223.968C200.289 224.349 200.249 224.727 200.179 225.091C199.922 226.548 199.651 227.799 199.519 228.822C199.459 229.333 199.435 229.795 199.5 230.179C199.585 230.552 199.71 230.882 199.782 231.142C199.855 231.387 199.913 231.583 199.959 231.737C199.996 231.872 200.013 231.941 200.007 231.943C200.001 231.945 199.972 231.879 199.923 231.748C199.868 231.597 199.799 231.405 199.712 231.165C199.626 230.903 199.497 230.603 199.392 230.2C199.312 229.797 199.327 229.327 199.376 228.807C199.488 227.766 199.737 226.524 199.973 225.064C200.039 224.7 200.074 224.315 200.158 223.923C200.203 223.726 200.245 223.527 200.32 223.326C200.398 223.131 200.482 222.908 200.706 222.761C200.945 222.613 201.209 222.667 201.433 222.752C201.722 222.917 201.732 223.194 201.783 223.412C201.846 223.872 201.826 224.333 201.801 224.802C201.756 225.737 201.61 226.72 201.631 227.715C201.636 227.837 201.651 227.958 201.676 228.068C201.701 228.187 201.763 228.233 201.751 228.21C201.772 228.215 201.866 228.108 201.919 228.011C201.977 227.906 202.03 227.791 202.076 227.671C202.26 227.192 202.382 226.665 202.481 226.132C202.584 225.6 202.618 225.044 202.693 224.473C202.763 223.906 202.844 223.33 202.935 222.748C203.027 222.165 203.128 221.575 203.248 220.977C203.385 220.376 203.472 219.784 203.764 219.159C203.782 219.096 203.909 218.955 203.98 218.921C204.058 218.875 204.146 218.84 204.239 218.813C204.427 218.763 204.658 218.791 204.828 218.905C205.167 219.144 205.274 219.516 205.331 219.846C205.382 220.184 205.365 220.527 205.327 220.853C205.29 221.169 205.264 221.49 205.241 221.814C205.166 223.102 205.095 224.453 205.284 225.759C205.313 225.919 205.348 226.079 205.402 226.216C205.43 226.279 205.463 226.348 205.494 226.376C205.51 226.397 205.52 226.396 205.525 226.4L205.528 226.401L205.528 226.402C205.518 226.547 205.527 226.433 205.524 226.461C205.522 226.434 205.516 226.439 205.499 226.408C205.53 226.382 205.629 226.212 205.677 226.07C205.731 225.916 205.779 225.756 205.821 225.592C205.989 224.934 206.102 224.246 206.208 223.555C206.412 222.169 206.569 220.748 206.699 219.309V219.34C206.692 218.866 206.684 218.369 207.01 217.878C207.201 217.636 207.546 217.505 207.87 217.627C208.19 217.777 208.308 218.064 208.399 218.301C208.643 219.089 208.635 219.862 208.637 220.625C208.625 221.387 208.572 222.14 208.502 222.884C208.43 223.628 208.341 224.365 208.237 225.093C208.181 225.457 208.125 225.82 208.069 226.181C208.024 226.41 208.035 226.418 208.103 226.486C208.177 226.542 208.32 226.533 208.39 226.474C208.468 226.422 208.477 226.314 208.494 226.114L208.542 225.579C208.577 225.223 208.613 224.868 208.648 224.515C208.726 223.809 208.821 223.11 208.942 222.422C209.067 221.735 209.21 221.055 209.436 220.397C209.551 220.07 209.683 219.744 209.883 219.442C209.986 219.293 210.105 219.143 210.279 219.033C210.457 218.931 210.653 218.838 210.92 218.941C211.173 219.079 211.216 219.313 211.256 219.484C211.282 219.664 211.294 219.839 211.289 220.007C211.283 220.347 211.247 220.675 211.205 220.998C211.12 221.644 211.005 222.272 210.896 222.89C210.695 224.117 210.418 225.339 210.514 226.46C210.528 226.598 210.565 226.724 210.612 226.835C210.64 226.892 210.671 226.938 210.691 226.958C210.694 226.951 210.686 226.947 210.676 226.985C210.671 227.035 210.678 226.974 210.67 226.982C210.647 226.944 210.664 226.955 210.674 226.941C210.804 226.782 210.895 226.473 210.976 226.218C211.136 225.681 211.264 225.137 211.403 224.607C211.541 224.076 211.681 223.555 211.864 223.053C211.956 222.802 212.057 222.556 212.2 222.322C212.278 222.207 212.354 222.09 212.481 221.995C212.537 221.945 212.62 221.909 212.701 221.886C212.797 221.872 212.875 221.873 212.938 221.886C213.082 221.892 213.279 222.019 213.327 222.171C213.387 222.314 213.4 222.45 213.406 222.579C213.418 222.839 213.39 223.081 213.365 223.323C213.307 223.803 213.218 224.26 213.131 224.705C212.952 225.591 212.757 226.428 212.521 227.19C212.061 228.719 211.599 230.011 211.217 231.066C210.833 232.12 210.522 232.932 210.306 233.482C210.202 233.74 210.119 233.945 210.055 234.105C209.996 234.247 209.964 234.317 209.957 234.315Z" fill="#DB965F"/>
<path d="M209.957 234.315C209.951 234.312 209.972 234.238 210.019 234.094C210.074 233.93 210.145 233.721 210.235 233.458C210.436 232.876 210.718 232.059 211.078 231.019C211.437 229.958 211.878 228.66 212.317 227.134C212.542 226.372 212.723 225.547 212.893 224.662C212.975 224.22 213.06 223.765 213.111 223.297C213.132 223.065 213.157 222.826 213.143 222.596C213.126 222.356 213.089 222.16 212.9 222.156C212.704 222.103 212.572 222.265 212.438 222.469C212.314 222.674 212.218 222.91 212.132 223.152C211.959 223.638 211.824 224.154 211.69 224.682C211.556 225.212 211.432 225.755 211.271 226.309C211.174 226.588 211.132 226.858 210.902 227.159C210.859 227.195 210.82 227.244 210.733 227.261C210.638 227.285 210.568 227.248 210.501 227.208C210.413 227.129 210.37 227.05 210.331 226.976C210.262 226.82 210.22 226.661 210.201 226.506C210.091 225.27 210.373 224.074 210.566 222.834C210.672 222.215 210.784 221.589 210.865 220.956C210.905 220.639 210.938 220.32 210.942 220.005C210.954 219.713 210.902 219.318 210.774 219.263C210.617 219.203 210.331 219.382 210.18 219.643C210.01 219.9 209.885 220.205 209.777 220.516C209.563 221.143 209.424 221.811 209.303 222.487C209.186 223.165 209.094 223.856 209.019 224.557C208.984 224.908 208.95 225.26 208.915 225.615L208.869 226.149C208.855 226.294 208.856 226.596 208.624 226.77C208.41 226.93 208.123 226.948 207.895 226.799C207.78 226.725 207.691 226.587 207.674 226.449C207.659 226.378 207.672 226.313 207.677 226.251L207.7 226.119C207.754 225.762 207.809 225.403 207.865 225.042C207.966 224.319 208.054 223.588 208.125 222.85C208.194 222.113 208.245 221.368 208.257 220.621C208.258 219.882 208.252 219.107 208.04 218.429C207.97 218.224 207.856 218.037 207.729 217.983C207.599 217.936 207.41 217.984 207.313 218.116C207.1 218.416 207.065 218.91 207.081 219.313L207.082 219.332L207.081 219.343C206.949 220.791 206.792 222.214 206.583 223.612C206.475 224.312 206.361 225.003 206.185 225.688C206.142 225.859 206.089 226.03 206.029 226.201C205.947 226.372 205.925 226.545 205.68 226.733C205.468 226.834 205.311 226.719 205.228 226.633C205.138 226.539 205.101 226.446 205.06 226.355C204.989 226.174 204.953 225.998 204.921 225.824C204.725 224.435 204.807 223.099 204.885 221.789C204.911 221.13 205.072 220.479 204.985 219.9C204.943 219.614 204.831 219.327 204.641 219.199C204.547 219.137 204.44 219.123 204.325 219.15C204.268 219.168 204.21 219.188 204.153 219.223C204.098 219.269 204.109 219.252 204.066 219.329C203.827 219.832 203.71 220.469 203.581 221.044C203.46 221.634 203.356 222.22 203.262 222.799C203.168 223.378 203.085 223.949 203.011 224.512C202.934 225.071 202.896 225.637 202.786 226.187C202.681 226.735 202.555 227.269 202.355 227.78C202.304 227.908 202.247 228.034 202.177 228.159C202.091 228.275 202.042 228.425 201.806 228.498C201.672 228.534 201.555 228.443 201.494 228.366C201.443 228.286 201.417 228.21 201.397 228.138C201.366 227.995 201.352 227.86 201.347 227.727C201.334 226.678 201.489 225.715 201.542 224.785C201.571 224.324 201.592 223.868 201.538 223.447C201.51 223.25 201.447 223.017 201.334 222.971C201.169 222.905 200.955 222.871 200.832 222.96C200.559 223.157 200.464 223.608 200.376 223.968C200.289 224.349 200.249 224.727 200.179 225.091C199.922 226.548 199.651 227.799 199.519 228.822C199.459 229.333 199.435 229.795 199.5 230.179C199.585 230.552 199.71 230.882 199.782 231.142C199.855 231.387 199.913 231.583 199.959 231.737C199.996 231.872 200.013 231.941 200.007 231.943C200.001 231.945 199.972 231.879 199.923 231.748C199.868 231.597 199.799 231.405 199.712 231.165C199.626 230.903 199.497 230.603 199.392 230.2C199.312 229.797 199.327 229.327 199.376 228.807C199.488 227.766 199.737 226.524 199.973 225.064C200.039 224.7 200.074 224.315 200.158 223.923C200.203 223.726 200.245 223.527 200.32 223.326C200.398 223.131 200.482 222.908 200.706 222.761C200.945 222.613 201.209 222.667 201.433 222.752C201.722 222.917 201.732 223.194 201.783 223.412C201.846 223.872 201.826 224.333 201.801 224.802C201.756 225.737 201.61 226.72 201.631 227.715C201.636 227.837 201.651 227.958 201.676 228.068C201.701 228.187 201.763 228.233 201.751 228.21C201.772 228.215 201.866 228.108 201.919 228.011C201.977 227.906 202.03 227.791 202.076 227.671C202.26 227.192 202.382 226.665 202.481 226.132C202.584 225.6 202.618 225.044 202.693 224.473C202.763 223.906 202.844 223.33 202.935 222.748C203.027 222.165 203.128 221.575 203.248 220.977C203.385 220.376 203.472 219.784 203.764 219.159C203.782 219.096 203.909 218.955 203.98 218.921C204.058 218.875 204.146 218.84 204.239 218.813C204.427 218.763 204.658 218.791 204.828 218.905C205.167 219.144 205.274 219.516 205.331 219.846C205.382 220.184 205.365 220.527 205.327 220.853C205.29 221.169 205.264 221.49 205.241 221.814C205.166 223.102 205.095 224.453 205.284 225.759C205.313 225.919 205.348 226.079 205.402 226.216C205.43 226.279 205.463 226.348 205.494 226.376C205.51 226.397 205.52 226.396 205.525 226.4L205.528 226.401L205.528 226.402C205.518 226.547 205.527 226.433 205.524 226.461C205.522 226.434 205.516 226.439 205.499 226.408C205.53 226.382 205.629 226.212 205.677 226.07C205.731 225.916 205.779 225.756 205.821 225.592C205.989 224.934 206.102 224.246 206.208 223.555C206.412 222.169 206.569 220.748 206.699 219.309V219.34C206.692 218.866 206.684 218.369 207.01 217.878C207.201 217.636 207.546 217.505 207.87 217.627C208.19 217.777 208.308 218.064 208.399 218.301C208.643 219.089 208.635 219.862 208.637 220.625C208.625 221.387 208.572 222.14 208.502 222.884C208.43 223.628 208.341 224.365 208.237 225.093C208.181 225.457 208.125 225.82 208.069 226.181C208.024 226.41 208.035 226.418 208.103 226.486C208.177 226.542 208.32 226.533 208.39 226.474C208.468 226.422 208.477 226.314 208.494 226.114L208.542 225.579C208.577 225.223 208.613 224.868 208.648 224.515C208.726 223.809 208.821 223.11 208.942 222.422C209.067 221.735 209.21 221.055 209.436 220.397C209.551 220.07 209.683 219.744 209.883 219.442C209.986 219.293 210.105 219.143 210.279 219.033C210.457 218.931 210.653 218.838 210.92 218.941C211.173 219.079 211.216 219.313 211.256 219.484C211.282 219.664 211.294 219.839 211.289 220.007C211.283 220.347 211.247 220.675 211.205 220.998C211.12 221.644 211.005 222.272 210.896 222.89C210.695 224.117 210.418 225.339 210.514 226.46C210.528 226.598 210.565 226.724 210.612 226.835C210.64 226.892 210.671 226.938 210.691 226.958C210.694 226.951 210.686 226.947 210.676 226.985C210.671 227.035 210.678 226.974 210.67 226.982C210.647 226.944 210.664 226.955 210.674 226.941C210.804 226.782 210.895 226.473 210.976 226.218C211.136 225.681 211.264 225.137 211.403 224.607C211.541 224.076 211.681 223.555 211.864 223.053C211.956 222.802 212.057 222.556 212.2 222.322C212.278 222.207 212.354 222.09 212.481 221.995C212.537 221.945 212.62 221.909 212.701 221.886C212.797 221.872 212.875 221.873 212.938 221.886C213.082 221.892 213.279 222.019 213.327 222.171C213.387 222.314 213.4 222.45 213.406 222.579C213.418 222.839 213.39 223.081 213.365 223.323C213.307 223.803 213.218 224.26 213.131 224.705C212.952 225.591 212.757 226.428 212.521 227.19C212.061 228.719 211.599 230.011 211.217 231.066C210.833 232.12 210.522 232.932 210.306 233.482C210.202 233.74 210.119 233.945 210.055 234.105C209.996 234.247 209.964 234.317 209.957 234.315Z" fill="black" fill-opacity="0.2"/>
<path d="M176.332 251.676C177.502 255.805 179.789 262.186 182.247 268.913C182.602 269.885 183.954 269.949 184.397 269.013L190.424 256.271C190.424 256.271 188.973 245.803 189.096 246.173C189.219 246.542 176.662 247.527 176.662 247.527L176.332 251.676Z" fill="white"/>
<path d="M189.905 249.622C189.919 249.673 189.157 249.894 187.964 250.349C186.771 250.802 185.157 251.523 183.492 252.529C181.83 253.541 180.444 254.639 179.491 255.487C178.536 256.335 177.988 256.908 177.949 256.872C177.932 256.858 178.053 256.699 178.286 256.425C178.517 256.149 178.875 255.769 179.337 255.321C180.26 254.422 181.641 253.28 183.326 252.255C185.013 251.235 186.664 250.538 187.887 250.136C188.499 249.933 189 249.791 189.353 249.714C189.704 249.635 189.9 249.6 189.905 249.622Z" fill="#FAFAFA"/>
<path d="M192.294 252.799C192.262 252.822 191.852 252.338 191.288 251.483C190.725 250.63 190.027 249.391 189.427 247.946C188.829 246.499 188.445 245.13 188.24 244.127C188.033 243.125 187.98 242.492 188.019 242.486C188.068 242.478 188.199 243.095 188.46 244.074C188.721 245.055 189.132 246.394 189.723 247.822C190.316 249.249 190.972 250.487 191.482 251.364C191.991 252.242 192.334 252.771 192.294 252.799Z" fill="#201A1A"/>
<path d="M196.314 196.364C194.206 199.771 193.758 204.179 195.137 207.95C195.756 209.643 196.736 211.315 196.557 213.11C196.373 214.95 194.978 216.688 195.471 218.468C195.762 219.52 196.665 220.301 197.012 221.336C197.418 222.55 196.994 223.865 196.801 225.133C196.309 228.359 197.339 231.603 197.595 234.857C197.851 238.112 196.972 241.921 194.07 243.34C193.188 243.772 192.035 243.896 191.301 243.238C190.37 242.403 190.629 240.902 190.884 239.669C193.434 227.338 185.556 215.324 187.355 202.858C187.643 200.859 188.759 197.469 190.198 196.071C191.636 194.673 195.615 194.843 196.977 196.318" fill="#201A1A"/>
<path d="M184.18 232.101C184.155 232.08 184.55 231.657 185.105 230.784C185.656 229.916 186.351 228.56 186.714 226.75C186.89 225.846 186.967 224.838 186.903 223.754C186.856 222.669 186.703 221.502 186.776 220.253C186.802 219.629 186.936 218.993 187.13 218.366C187.349 217.747 187.632 217.139 187.976 216.556C188.665 215.391 189.538 214.305 190.337 213.146C191.136 211.99 191.799 210.766 192.013 209.473C192.229 208.18 191.996 206.9 191.798 205.693C191.585 204.485 191.438 203.297 191.527 202.192C191.597 201.088 191.818 200.075 192.117 199.186C192.722 197.402 193.617 196.139 194.295 195.352C194.636 194.957 194.925 194.671 195.133 194.492C195.339 194.31 195.451 194.219 195.458 194.227C195.482 194.251 195.043 194.628 194.392 195.432C193.75 196.235 192.9 197.498 192.334 199.257C192.053 200.134 191.85 201.129 191.793 202.207C191.718 203.288 191.869 204.435 192.09 205.644C192.294 206.847 192.546 208.159 192.324 209.524C192.101 210.888 191.41 212.158 190.602 213.327C189.792 214.501 188.923 215.579 188.246 216.717C187.909 217.285 187.633 217.87 187.42 218.464C187.232 219.064 187.1 219.667 187.071 220.273C186.992 221.482 187.132 222.645 187.169 223.742C187.223 224.841 187.13 225.878 186.936 226.795C186.537 228.636 185.799 229.996 185.209 230.853C184.913 231.284 184.655 231.597 184.474 231.803C184.29 232.006 184.188 232.109 184.18 232.101Z" fill="#455A64"/>
<path d="M178.337 233.023C178.328 233.018 178.394 232.876 178.528 232.61C178.679 232.318 178.878 231.934 179.127 231.454C179.643 230.449 180.415 229.004 181.174 227.137C181.918 225.278 182.655 222.948 182.678 220.291C182.682 219.63 182.634 218.953 182.528 218.27C182.422 217.586 182.262 216.887 182.159 216.158C182.061 215.432 182.013 214.658 182.206 213.893C182.397 213.126 182.879 212.443 183.46 211.915C184.621 210.859 186.022 210.172 186.746 208.936C187.487 207.721 187.65 206.297 187.838 204.986C187.998 203.661 188.252 202.385 188.686 201.264C189.105 200.137 189.665 199.158 190.249 198.324C191.425 196.65 192.733 195.596 193.673 194.97C194.147 194.657 194.531 194.438 194.801 194.31C195.068 194.177 195.211 194.113 195.216 194.123C195.233 194.153 194.664 194.423 193.744 195.072C192.834 195.724 191.568 196.791 190.436 198.453C189.873 199.281 189.335 200.248 188.936 201.357C188.521 202.462 188.284 203.696 188.131 205.024C187.949 206.336 187.799 207.799 187.014 209.1C186.23 210.431 184.78 211.138 183.678 212.15C183.123 212.658 182.692 213.273 182.515 213.972C182.337 214.672 182.376 215.406 182.471 216.115C182.569 216.827 182.725 217.524 182.831 218.223C182.937 218.923 182.982 219.617 182.974 220.293C182.934 223.006 182.16 225.358 181.384 227.222C180.591 229.093 179.787 230.524 179.237 231.512C178.966 231.981 178.75 232.356 178.585 232.64C178.432 232.897 178.347 233.029 178.337 233.023Z" fill="#455A64"/>
<path d="M322.891 218.194C322.891 218.194 322.727 218.198 322.41 218.188C322.092 218.175 321.619 218.153 321 218.196C319.77 218.264 317.924 218.496 315.75 219.406C313.6 220.315 311.084 221.92 309.083 224.602C308.091 225.937 307.261 227.543 306.756 229.364C306.269 231.187 306.104 233.208 306.336 235.29C306.599 237.364 307.233 239.511 308.396 241.482C308.973 242.465 309.657 243.42 310.492 244.262C311.3 245.128 312.253 245.895 313.327 246.479C314.399 247.06 315.626 247.425 316.883 247.375C318.128 247.334 319.414 246.895 320.326 245.986C321.244 245.083 321.698 243.758 321.699 242.435C321.705 241.103 321.243 239.777 320.449 238.661C318.85 236.413 316.264 234.901 313.512 234.086C310.734 233.277 307.683 233.255 304.762 233.965C303.306 234.344 301.885 234.899 300.549 235.64C299.212 236.385 297.996 237.356 296.931 238.478C296.678 238.771 296.39 239.037 296.165 239.354L295.47 240.293C295.064 240.96 294.648 241.625 294.336 242.349C293.682 243.778 293.225 245.31 292.997 246.888C292.583 250.044 292.965 253.294 294.24 256.13C295.472 258.971 297.572 261.409 300.188 262.878C301.494 263.608 302.937 264.079 304.401 264.158C305.861 264.249 307.318 263.872 308.558 263.16C309.795 262.45 310.828 261.383 311.37 260.097C311.909 258.812 311.899 257.345 311.434 256.068C310.976 254.779 310.119 253.677 309.118 252.793C308.111 251.91 306.937 251.248 305.711 250.813C303.226 250.002 300.579 250.045 298.212 250.683C295.838 251.329 293.722 252.552 292.06 254.113C290.401 255.684 289.237 257.612 288.534 259.579C287.112 263.545 287.474 267.571 288.695 270.647C289.952 273.75 291.948 275.958 293.77 277.418C295.61 278.889 297.284 279.682 298.433 280.134C299.013 280.355 299.459 280.511 299.765 280.598C300.069 280.692 300.222 280.749 300.222 280.749C300.222 280.749 300.063 280.713 299.756 280.629C299.446 280.553 298.995 280.407 298.41 280.195C297.249 279.76 295.556 278.981 293.692 277.516C291.845 276.06 289.816 273.846 288.528 270.714C287.276 267.606 286.892 263.532 288.319 259.503C289.026 257.504 290.203 255.539 291.889 253.934C293.576 252.34 295.725 251.091 298.142 250.427C300.552 249.772 303.248 249.718 305.802 250.547C307.064 250.992 308.27 251.669 309.308 252.576C310.339 253.484 311.23 254.62 311.712 255.969C312.201 257.305 312.216 258.855 311.648 260.213C311.077 261.571 309.996 262.686 308.71 263.426C307.423 264.169 305.904 264.562 304.383 264.469C302.865 264.388 301.375 263.902 300.035 263.153C297.35 261.648 295.206 259.157 293.947 256.259C292.646 253.366 292.256 250.059 292.678 246.843C292.91 245.235 293.377 243.673 294.045 242.215C294.364 241.476 294.788 240.796 295.204 240.115L295.915 239.155C296.145 238.831 296.439 238.559 296.697 238.26C297.786 237.113 299.029 236.122 300.392 235.364C301.756 234.609 303.204 234.044 304.686 233.66C307.66 232.939 310.765 232.963 313.597 233.792C316.404 234.629 319.035 236.162 320.691 238.492C321.512 239.647 321.998 241.042 321.988 242.436C321.985 243.819 321.507 245.223 320.524 246.187C319.547 247.155 318.192 247.609 316.892 247.649C315.578 247.699 314.301 247.314 313.201 246.714C312.096 246.11 311.127 245.324 310.307 244.44C309.458 243.58 308.765 242.606 308.182 241.605C307.006 239.599 306.37 237.419 306.11 235.315C305.882 233.203 306.057 231.154 306.559 229.309C307.078 227.465 307.927 225.84 308.939 224.494C310.978 221.79 313.528 220.188 315.702 219.29C317.9 218.392 319.761 218.179 320.996 218.131C321.619 218.098 322.092 218.131 322.411 218.155C322.73 218.175 322.891 218.194 322.891 218.194Z" fill="#263238"/>
<path d="M343.465 279.834H257.092V346.453H343.465V279.834Z" fill="#B52046"/>
<path d="M257.092 279.834L273.045 294.714H357.954L343.465 279.834H257.092Z" fill="#B52046"/>
<path d="M257.092 279.834C258.65 279.831 294.325 279.766 343.465 279.677H343.532L343.578 279.725C348.205 284.475 353.007 289.405 357.92 294.45C357.97 294.501 358.021 294.553 358.069 294.603L358.334 294.876L357.954 294.875C323.137 294.849 292.236 294.826 273.045 294.811H273.007L272.979 294.785C262.996 285.391 257.615 280.327 257.092 279.834C257.62 280.322 263.046 285.338 273.111 294.644L273.045 294.618C292.236 294.604 323.137 294.58 357.954 294.554L357.839 294.826C357.791 294.777 357.74 294.725 357.69 294.673C352.779 289.627 347.978 284.696 343.352 279.943L343.465 279.991C294.325 279.902 258.648 279.837 257.092 279.834Z" fill="#263238"/>
<path d="M283.035 310.553C282.121 310.554 281.287 311.375 281.271 312.29C281.255 313.204 282.06 314.053 282.974 314.086C283.888 314.119 284.752 313.33 284.802 312.417C284.853 311.504 284.08 310.625 283.169 310.558" fill="#263238"/>
<path d="M303.429 310.553C302.515 310.554 301.681 311.375 301.665 312.29C301.649 313.204 302.454 314.053 303.368 314.086C304.282 314.119 305.146 313.33 305.196 312.417C305.247 311.504 304.474 310.625 303.563 310.558" fill="#263238"/>
<path d="M303.56 326.5C303.468 326.538 303.331 324.833 301.851 322.671C301.123 321.598 300.033 320.462 298.587 319.54C297.15 318.618 295.325 317.955 293.353 317.883C291.379 317.847 289.521 318.409 288.034 319.251C286.54 320.092 285.39 321.167 284.604 322.198C283.007 324.276 282.778 325.971 282.688 325.927C282.677 325.925 282.695 325.825 282.738 325.636C282.79 325.45 282.83 325.162 282.964 324.818C283.187 324.115 283.64 323.129 284.424 322.061C285.202 320.99 286.362 319.871 287.889 318.993C289.406 318.115 291.32 317.524 293.362 317.562C295.403 317.636 297.281 318.332 298.747 319.291C300.222 320.251 301.32 321.433 302.038 322.544C302.763 323.655 303.161 324.664 303.345 325.378C303.46 325.729 303.484 326.018 303.526 326.207C303.559 326.397 303.571 326.498 303.56 326.5Z" fill="#263238"/>
<path opacity="0.5" d="M257.288 280.567L272.563 299.935H343.465V294.714H273.045L257.288 280.567Z" fill="black"/>
<path d="M326.433 346.301C326.344 346.301 326.273 334.713 326.273 320.423C326.273 306.127 326.344 294.542 326.433 294.542C326.522 294.542 326.593 306.127 326.593 320.423C326.593 334.713 326.522 346.301 326.433 346.301Z" fill="#263238"/>
<path d="M339.995 331.199H332.381V339.805H339.995V331.199Z" fill="#F5F5F5"/>
<path d="M257.092 279.834L239.359 294.714H257.092V279.834Z" fill="#B52046"/>
<g opacity="0.4">
<path d="M257.092 279.834L239.359 294.714H257.092V279.834Z" fill="black"/>
</g>
<path d="M346.014 346.453H246.705V423.049H346.014V346.453Z" fill="#B52046"/>
<path opacity="0.3" d="M346.014 346.453H246.705V423.049H346.014V346.453Z" fill="black"/>
<path d="M321.133 422.508C321.044 422.508 320.973 405.435 320.973 384.379C320.973 363.316 321.045 346.246 321.133 346.246C321.221 346.246 321.293 363.316 321.293 384.379C321.293 405.435 321.222 422.508 321.133 422.508Z" fill="#263238"/>
<path d="M337.594 405.614H329.98V414.221H337.594V405.614Z" fill="#F5F5F5"/>
<path d="M288.282 346.65H277.001V362.994H288.282V346.65Z" fill="#263238"/>
<path d="M288.282 406.477H277.001V422.821H288.282V406.477Z" fill="#263238"/>
<path d="M345.148 346.453C345.148 346.459 345.062 346.464 344.893 346.47C344.71 346.474 344.463 346.479 344.147 346.486C343.475 346.493 342.511 346.503 341.279 346.516C338.771 346.529 335.172 346.546 330.73 346.567C321.809 346.578 309.511 346.595 295.928 346.613C282.34 346.595 270.041 346.578 261.12 346.567C256.679 346.545 253.079 346.528 250.572 346.516C249.339 346.503 248.377 346.493 247.704 346.486C247.389 346.479 247.141 346.474 246.958 346.47C246.79 346.464 246.704 346.459 246.704 346.453C246.704 346.448 246.79 346.442 246.958 346.437C247.141 346.433 247.388 346.427 247.704 346.421C248.377 346.413 249.339 346.403 250.572 346.391C253.079 346.378 256.678 346.361 261.12 346.339C270.041 346.327 282.34 346.31 295.928 346.292C309.511 346.31 321.808 346.328 330.73 346.339C335.171 346.361 338.771 346.379 341.279 346.391C342.511 346.403 343.475 346.413 344.147 346.421C344.463 346.427 344.71 346.433 344.893 346.437C345.062 346.442 345.148 346.448 345.148 346.453Z" fill="#263238"/>
</svg>
