<svg width="30" height="30" viewBox="0 0 30 30" fill="none" xmlns="http://www.w3.org/2000/svg">
<g id="ic_paypal" clip-path="url(#clip0_3557_9713)">
<path id="Path 12504" d="M23.5318 2.25774C22.1658 0.678322 19.7068 0 16.5598 0H7.42483C7.11159 0.00406176 6.81005 0.119541 6.57435 0.325706C6.33865 0.531871 6.18424 0.815218 6.13883 1.12488L2.33183 25.7343C2.31418 25.8482 2.32101 25.9646 2.35187 26.0757C2.38274 26.1868 2.43693 26.2901 2.51083 26.3786C2.58409 26.4665 2.67585 26.5371 2.77956 26.5854C2.88327 26.6338 2.99639 26.6587 3.11083 26.6583H8.74583L10.1618 17.4955L10.1178 17.7822C10.1625 17.4722 10.3167 17.1884 10.5525 16.9821C10.7884 16.7758 11.0904 16.6606 11.4038 16.6573H14.0838C19.3488 16.6573 23.4708 14.4755 24.6738 8.16583C24.7092 7.97935 24.7405 7.79754 24.7678 7.62038C25.0007 6.69254 25.0101 5.72277 24.7952 4.7906C24.5804 3.85843 24.1474 2.99042 23.5318 2.25774Z" fill="#27346A"/>
<path id="Path 12505" d="M12.318 6.77822C12.4719 6.70324 12.6408 6.66429 12.812 6.66434H19.976C20.7667 6.65847 21.5567 6.7166 22.338 6.83816C22.5447 6.87213 22.7447 6.91142 22.938 6.95604C23.1313 7.00067 23.3207 7.04995 23.506 7.1039C23.598 7.13187 23.69 7.15984 23.776 7.18981C24.1174 7.30425 24.4486 7.44728 24.766 7.61738C24.9986 6.69014 25.0081 5.72104 24.7936 4.78944C24.5791 3.85785 24.1468 2.99026 23.532 2.25774C22.166 0.678322 19.707 0 16.56 0H7.42499C7.11174 0.00406176 6.8102 0.119541 6.57451 0.325706C6.33881 0.531871 6.1844 0.815218 6.13899 1.12488L2.33199 25.7343C2.3142 25.8481 2.32087 25.9645 2.35156 26.0756C2.38225 26.1867 2.43626 26.29 2.50999 26.3786C2.58306 26.4668 2.67473 26.5378 2.77845 26.5865C2.88217 26.6352 2.99539 26.6604 3.10999 26.6603H8.74399L11.683 7.65235C11.7104 7.46628 11.7825 7.28961 11.8931 7.13739C12.0036 6.98518 12.1494 6.86195 12.318 6.77822Z" fill="#27346A"/>
<path id="Path 12506" d="M24.67 8.26769C23.448 14.5434 19.259 16.7133 13.913 16.7133H11.191C10.8755 16.7136 10.5705 16.8265 10.331 17.0316C10.0916 17.2368 9.93337 17.5207 9.88496 17.8321L8.09596 29.1648C8.08072 29.2642 8.08712 29.3657 8.1147 29.4624C8.14228 29.559 8.1904 29.6487 8.2558 29.7251C8.32119 29.8015 8.40232 29.8629 8.49364 29.9052C8.58495 29.9475 8.68432 29.9696 8.78496 29.97H13.614C13.8905 29.9698 14.1579 29.8712 14.3681 29.6917C14.5784 29.5123 14.7176 29.2638 14.761 28.991L14.808 28.7452L15.719 22.984L15.777 22.6653C15.8203 22.3923 15.9597 22.1437 16.1702 21.9642C16.3806 21.7848 16.6483 21.6862 16.925 21.6863H17.647C22.325 21.6863 25.987 19.7882 27.057 14.2937C27.3392 13.3565 27.3987 12.3664 27.2309 11.4022C27.063 10.438 26.6723 9.52619 26.09 8.73921C25.7148 8.32157 25.2665 7.97591 24.767 7.71924C24.739 7.90605 24.709 8.07688 24.667 8.2617L24.67 8.26769Z" fill="#2790C3"/>
<path id="Path 12507" d="M23.4848 7.12202C23.2982 7.0674 23.1058 7.01845 22.9078 6.97516C22.7078 6.9322 22.5078 6.89324 22.2958 6.85928C21.5018 6.73731 20.6992 6.67885 19.8958 6.68445H12.6188C12.3422 6.68464 12.0746 6.78345 11.8644 6.9631C11.6541 7.14275 11.5149 7.39145 11.4718 7.66447L9.92683 17.4547L9.88184 17.7394C9.93024 17.428 10.0884 17.1441 10.3279 16.9389C10.5674 16.7338 10.8724 16.6208 11.1878 16.6205H13.9128C19.2608 16.6205 23.4478 14.4507 24.6698 8.17496C24.7068 7.98815 24.7368 7.80234 24.7698 7.63251C24.4468 7.4638 24.1103 7.32213 23.7638 7.20893C23.6738 7.17896 23.5768 7.15099 23.4898 7.12302" fill="#1F264F"/>
</g>
<defs>
<clipPath id="clip0_3557_9713">
<rect width="30" height="30" fill="white"/>
</clipPath>
</defs>
</svg>
