<svg width="30" height="30" viewBox="0 0 30 30" fill="none" xmlns="http://www.w3.org/2000/svg">
<g id="ic_paystack" clip-path="url(#clip0_3557_9727)">
<path id="Path 12480" d="M14.9844 14.011H1.81439C1.57195 14.035 1.32727 14.0053 1.09759 13.9241C0.867907 13.8429 0.658869 13.7121 0.485407 13.541C0.313545 13.3716 0.181928 13.1658 0.100397 12.9387C0.0188673 12.7116 -0.0104354 12.469 0.01446 12.229C0.01446 11.447 0.01446 10.6654 0.01446 9.88404C-0.00380624 9.64933 0.0296601 9.41344 0.112605 9.19312C0.195549 8.9728 0.325926 8.7734 0.49444 8.60901C0.664957 8.4426 0.869339 8.31487 1.09368 8.23462C1.31803 8.15438 1.55699 8.12353 1.79437 8.14405H28.2075C28.4471 8.12302 28.6885 8.15435 28.9149 8.23585C29.1412 8.31735 29.3471 8.44699 29.5184 8.61597C29.688 8.78343 29.8183 8.98651 29.9 9.21045C29.9816 9.4344 30.0125 9.67368 29.9904 9.91102V12.186C30.0216 12.4318 29.9958 12.6814 29.9152 12.9157C29.8346 13.1499 29.7013 13.3625 29.5254 13.537C29.3479 13.713 29.133 13.847 28.8968 13.9288C28.6605 14.0107 28.4089 14.0385 28.1605 14.01L14.9844 14.011Z" fill="#09A4DA"/>
<path id="Path 12481" d="M14.2657 15.99H26.6206C26.8601 15.9605 27.1032 15.9856 27.3316 16.0634C27.56 16.1411 27.7678 16.2695 27.9396 16.439C28.1094 16.6065 28.2383 16.811 28.3162 17.0365C28.3941 17.262 28.4188 17.5024 28.3886 17.739C28.3886 18.566 28.3886 19.4011 28.3886 20.2221C28.4016 20.4395 28.368 20.6572 28.2898 20.8606C28.2117 21.064 28.0909 21.2482 27.9356 21.401C27.7783 21.5559 27.5902 21.676 27.3835 21.7536C27.1767 21.8311 26.956 21.8643 26.7356 21.851H1.68962C1.46431 21.8598 1.23966 21.822 1.02958 21.7401C0.819507 21.6582 0.62857 21.534 0.468669 21.375C0.310345 21.2174 0.187024 21.0282 0.106731 20.8197C0.0264379 20.6112 -0.00908932 20.3882 0.00260492 20.165C0.00260492 19.349 0.00260492 18.5331 0.00260492 17.7171C-0.0149112 17.4856 0.0181962 17.2531 0.0995288 17.0357C0.180861 16.8182 0.308541 16.6211 0.473674 16.458C0.640745 16.2934 0.840945 16.1663 1.06095 16.0851C1.28096 16.0039 1.51574 15.9704 1.74968 15.9869L14.2657 15.99Z" fill="#09A4DA"/>
<path id="Path 12482" d="M14.2298 6.16692H1.82977C1.58435 6.19378 1.33601 6.16565 1.10284 6.08453C0.869668 6.0034 0.657497 5.87132 0.481747 5.69793C0.307689 5.52625 0.175148 5.31712 0.0940517 5.08648C0.0129556 4.85584 -0.0145779 4.60983 0.0137294 4.367C0.0137294 3.59766 0.0137294 2.8276 0.0137294 2.05694C-0.00301089 1.81942 0.0320211 1.58115 0.116269 1.35845C0.200516 1.13575 0.332012 0.933865 0.501767 0.766899C0.673084 0.598144 0.878223 0.46769 1.1037 0.384086C1.32917 0.300482 1.56983 0.265645 1.80975 0.281913H26.6447C26.8784 0.262637 27.1135 0.293744 27.3342 0.3731C27.5548 0.452456 27.7559 0.578295 27.9238 0.741996C28.09 0.904024 28.2186 1.1006 28.3005 1.3178C28.3824 1.53501 28.4156 1.76751 28.3978 1.99895C28.3978 2.80429 28.3978 3.60933 28.3978 4.41399C28.4289 4.65041 28.4048 4.89072 28.3274 5.11626C28.2501 5.34181 28.1214 5.54638 27.9517 5.71392C27.7796 5.88348 27.5715 6.01194 27.3427 6.08953C27.1139 6.16712 26.8705 6.19182 26.6308 6.16192L14.2298 6.16692Z" fill="#09A4DA"/>
<path id="Path 12483" d="M8.5522 29.717H1.90523C1.64808 29.7514 1.38647 29.7257 1.14082 29.6423C0.895176 29.5588 0.672133 29.4195 0.489211 29.2355C0.306289 29.0515 0.168435 28.8278 0.0863789 28.5817C0.00432325 28.3356 -0.019732 28.0738 0.0161885 27.8168V25.5419C0.0005986 25.3144 0.0338872 25.0861 0.113723 24.8725C0.193558 24.6588 0.31809 24.4647 0.479079 24.3032C0.640068 24.1416 0.833709 24.0163 1.04707 23.9357C1.26044 23.8551 1.48854 23.8211 1.71614 23.8359H15.4442C15.6687 23.8163 15.8949 23.8464 16.1065 23.924C16.3181 24.0017 16.51 24.1249 16.6687 24.2851C16.8273 24.4452 16.9486 24.6384 17.0242 24.8508C17.0999 25.0631 17.1278 25.2895 17.1062 25.5138V27.9638C17.1287 28.2006 17.0984 28.4396 17.0175 28.6633C16.9366 28.887 16.8071 29.0899 16.6383 29.2575C16.4694 29.4251 16.2655 29.5532 16.0412 29.6325C15.8169 29.7118 15.5778 29.74 15.3411 29.7158C13.0765 29.7191 10.8135 29.7196 8.5522 29.717Z" fill="#09A4DA"/>
</g>
<defs>
<clipPath id="clip0_3557_9727">
<rect width="30" height="30" fill="white"/>
</clipPath>
</defs>
</svg>
