<svg width="30" height="30" viewBox="0 0 30 30" fill="none" xmlns="http://www.w3.org/2000/svg">
<g id="ic_razorpay">
<path id="Path 12460" d="M14.2826 29.9918L15.1637 26.7698L17.7227 17.3808L19.7847 9.81885C19.7918 9.80192 19.7955 9.7837 19.7955 9.76532C19.7955 9.74694 19.7918 9.72875 19.7847 9.71182L11.3477 15.0748C11.4027 14.8668 11.4477 14.6868 11.4987 14.5128C11.932 12.9495 12.3653 11.3875 12.7986 9.82684C12.8074 9.78771 12.8245 9.75086 12.8484 9.71866C12.8723 9.68646 12.9027 9.6596 12.9376 9.63983L20.9247 4.55585L28.0006 0.0558472L28.0807 0.00683594V0.163849C27.8077 1.30385 27.4747 2.42684 27.1707 3.55884C26.9267 4.46584 26.6767 5.37184 26.4307 6.27884C26.08 7.56751 25.7283 8.85518 25.3756 10.1418C25.0943 11.1752 24.8126 12.2085 24.5306 13.2418L23.3866 17.4108L22.5476 20.4868L21.4796 24.4008L20.5416 27.8458C20.3506 28.5248 20.1736 29.2028 19.9846 29.8798C19.977 29.9233 19.9581 29.964 19.9297 29.9978L14.2826 29.9918Z" fill="#3394FE"/>
<path id="Path 12461" d="M1.91309 29.9922C1.97409 29.6542 2.07905 29.3283 2.16705 28.9983C2.83972 26.4783 3.51443 23.9582 4.1911 21.4382C4.2008 21.3987 4.21823 21.3614 4.24243 21.3286C4.26664 21.2958 4.29712 21.2681 4.33209 21.2472L17.3391 12.8552L18.1611 12.3252C18.1151 12.5042 18.0771 12.6572 18.0351 12.8102L13.4771 29.8833C13.4604 29.9196 13.4546 29.9598 13.4601 29.9993L1.91309 29.9922Z" fill="#072654"/>
</g>
</svg>
