<svg width="30" height="30" viewBox="0 0 30 30" fill="none" xmlns="http://www.w3.org/2000/svg">
<g id="ic_stripe" clip-path="url(#clip0_3557_9741)">
<path id="Exclusion 1" d="M23.2335 13.9611C23.106 13.2167 22.7246 12.5393 22.1544 12.0441C21.7198 11.6506 21.1586 11.4261 20.5725 11.4111C20.301 11.4164 20.0316 11.4602 19.7725 11.5411C19.4497 11.644 19.1562 11.8227 18.9165 12.0621V12.0431L18.8795 11.9131V11.894C18.8605 11.82 18.8605 11.7641 18.8425 11.6711C18.8245 11.5781 18.7865 11.5591 18.6935 11.5591H16.9995C16.9805 11.5781 16.9805 11.5961 16.9805 11.6521V21.1071C16.9805 21.1261 16.9805 21.1631 16.9995 21.1631C17.0185 21.1631 17.0185 21.1821 17.0365 21.1821H17.0554C17.7814 21.0331 18.3774 20.9031 18.9554 20.7911C18.9874 20.7883 19.0169 20.7732 19.0378 20.7489C19.0588 20.7246 19.0695 20.6931 19.0675 20.6611V18.5211C19.0485 18.4841 19.0484 18.4651 19.0864 18.4471H19.1055C19.1195 18.4493 19.1325 18.4559 19.1425 18.4661L19.1794 18.4851C19.5709 18.7842 20.0461 18.9534 20.5385 18.9691C20.9899 18.9487 21.4301 18.8212 21.8225 18.597C22.4109 18.2457 22.8484 17.6889 23.0505 17.0341C23.39 16.0454 23.4532 14.983 23.2335 13.9611ZM20.9255 16.6041C20.832 16.757 20.7007 16.8833 20.5443 16.9708C20.3879 17.0584 20.2117 17.1043 20.0325 17.1041H20.0134C19.8509 17.1148 19.6879 17.0923 19.5344 17.038C19.3809 16.9836 19.2401 16.8986 19.1205 16.7881C19.0866 16.753 19.0666 16.7068 19.0645 16.6581V15.9321C19.0645 15.2061 19.0455 14.4801 19.0455 13.7551C19.046 13.7236 19.0527 13.6924 19.0654 13.6636C19.0781 13.6347 19.0966 13.6087 19.1195 13.587C19.3587 13.3694 19.6711 13.2498 19.9945 13.2521C20.1789 13.252 20.3605 13.2976 20.5229 13.3849C20.6854 13.4721 20.8237 13.5983 20.9255 13.7521C21.1399 14.0817 21.2677 14.46 21.2975 14.8521C21.3122 14.9567 21.3186 15.0624 21.3165 15.1681C21.328 15.6736 21.1921 16.1715 20.9255 16.6011V16.6041Z" fill="#6772E4"/>
<path id="Exclusion 2" d="M29.6191 13.4958C29.4313 12.8692 29.0453 12.3204 28.519 11.9319C28.0616 11.5922 27.5068 11.4094 26.9371 11.4109C26.622 11.407 26.308 11.4509 26.006 11.5409C25.5883 11.6589 25.2032 11.8713 24.8805 12.1617C24.5579 12.4521 24.3063 12.8127 24.1451 13.2158C23.8077 13.9292 23.6601 14.7177 23.717 15.5049C23.7418 15.9357 23.8232 16.3613 23.959 16.7709C24.1093 17.2967 24.403 17.7703 24.8073 18.1385C25.2116 18.5068 25.7104 18.7552 26.248 18.8558C26.5485 18.9144 26.8538 18.9455 27.16 18.9488C27.36 18.9488 27.588 18.9299 27.793 18.9119C28.3393 18.8599 28.8702 18.702 29.356 18.4469C29.383 18.4374 29.4064 18.4199 29.423 18.3966C29.4397 18.3733 29.4488 18.3455 29.449 18.3169V16.7348L29.412 16.7539H29.393L29.319 16.7909C28.7589 17.0497 28.1491 17.1832 27.532 17.1819C27.3313 17.1884 27.1305 17.1761 26.9321 17.1449C26.647 17.1201 26.3795 16.9967 26.1756 16.7959C25.9717 16.5951 25.8442 16.3294 25.815 16.0448C25.806 16.031 25.8012 16.0148 25.8012 15.9983C25.8012 15.9818 25.806 15.9657 25.815 15.9519C25.834 15.9329 25.852 15.9328 25.908 15.9328H29.668C29.854 15.9328 29.8541 15.9328 29.8541 15.7468V15.6349C29.9234 14.9121 29.8409 14.1829 29.612 13.4939L29.6191 13.4958ZM27.907 14.4078C27.888 14.4268 27.8701 14.4269 27.8331 14.4269H25.804C25.804 14.4079 25.785 14.3898 25.804 14.3708C25.787 14.1579 25.8261 13.9442 25.9175 13.7512C26.009 13.5582 26.1495 13.3926 26.325 13.2709C26.4843 13.1625 26.6724 13.104 26.865 13.1029C27.0918 13.1098 27.3102 13.1896 27.488 13.3304C27.6658 13.4713 27.7934 13.6657 27.852 13.8849C27.8858 14.0322 27.9104 14.1815 27.926 14.3319C27.925 14.3519 27.909 14.3888 27.909 14.4078H27.907Z" fill="#6772E4"/>
<path id="Path 12464" d="M0.192026 16.512C0.365026 16.592 0.533064 16.6759 0.706064 16.7479C1.23229 16.9819 1.79544 17.1216 2.37 17.1609C2.54507 17.1722 2.7208 17.1526 2.88905 17.1029C2.97558 17.0846 3.05455 17.0407 3.11573 16.9768C3.17692 16.9129 3.21749 16.8322 3.23207 16.745C3.24847 16.6591 3.23969 16.5703 3.20667 16.4894C3.17366 16.4084 3.1178 16.3388 3.04603 16.2889C2.83472 16.1401 2.60114 16.0257 2.35401 15.9499C1.97193 15.8238 1.59882 15.6721 1.23707 15.496C0.841365 15.3091 0.515293 15.0013 0.30604 14.6169C0.144324 14.2807 0.0798616 13.9059 0.120005 13.5349C0.148966 13.032 0.359338 12.5566 0.712046 12.1969C1.07263 11.8365 1.5364 11.5971 2.03907 11.512C2.99329 11.3337 3.97817 11.4226 4.88502 11.7689C4.93002 11.7859 4.9651 11.7989 4.9651 11.8619V13.7339C4.92549 13.7286 4.88776 13.7139 4.85511 13.6909C4.22841 13.3784 3.53735 13.2164 2.83705 13.2179C2.71449 13.2163 2.59272 13.2376 2.47804 13.2809C2.42978 13.2964 2.38505 13.3214 2.34645 13.3542C2.30784 13.3871 2.2761 13.4272 2.25306 13.4724C2.23002 13.5176 2.21612 13.5669 2.21217 13.6174C2.20821 13.668 2.21437 13.7188 2.23011 13.767C2.25057 13.8323 2.28861 13.8907 2.3401 13.9359C2.49472 14.0714 2.67685 14.1718 2.87403 14.23C3.23103 14.366 3.60201 14.4679 3.95301 14.6239C4.37229 14.7843 4.74037 15.0553 5.01808 15.4079C5.26473 15.7635 5.38899 16.1896 5.37208 16.6219C5.3812 16.9149 5.32861 17.2066 5.21766 17.4779C5.10671 17.7492 4.93984 17.9942 4.72804 18.1969C4.34111 18.5535 3.85634 18.7862 3.33607 18.865C2.30362 19.0427 1.24184 18.9187 0.278086 18.5079C0.256905 18.5043 0.237823 18.4931 0.224375 18.4763C0.210927 18.4595 0.204045 18.4384 0.205088 18.417V16.543L0.192026 16.512Z" fill="#6772E4"/>
<path id="Path 12465" d="M5.7615 13.634V10.304C5.7615 10.222 5.78048 10.19 5.86148 10.172C6.47048 10.047 7.07442 9.91705 7.68142 9.78505C7.76342 9.76605 7.78152 9.78496 7.78152 9.87196V11.458C7.78152 11.54 7.8015 11.564 7.8815 11.564H9.2405C9.3185 11.564 9.34841 11.5791 9.34841 11.6641V13.231C9.34841 13.305 9.32644 13.331 9.25344 13.324H7.88345C7.80345 13.324 7.77749 13.345 7.77749 13.424V16.3001C7.75825 16.4996 7.8189 16.6986 7.94619 16.8534C8.07348 17.0083 8.25697 17.1063 8.45645 17.126C8.50233 17.1306 8.54863 17.1306 8.59451 17.126C8.81956 17.128 9.04324 17.0908 9.25552 17.016C9.32052 16.994 9.34651 16.99 9.34451 17.074V18.5911C9.34776 18.6168 9.34175 18.6428 9.32766 18.6646C9.31357 18.6863 9.29229 18.7024 9.26748 18.71C8.99955 18.8242 8.71482 18.8941 8.42446 18.917C8.02125 18.9753 7.61041 18.9519 7.21646 18.848C6.8325 18.7339 6.49043 18.5096 6.23269 18.203C5.97495 17.8964 5.81291 17.5209 5.76651 17.1231C5.73698 16.662 5.7306 16.1997 5.74746 15.738V13.6381L5.7615 13.634Z" fill="#6772E4"/>
<path id="Path 12466" d="M11.9261 12.16C12.0728 11.8833 12.3158 11.6697 12.6091 11.5599C12.9237 11.4542 13.2631 11.4466 13.5822 11.538C13.6016 11.5402 13.6194 11.5502 13.6316 11.5656C13.6438 11.5809 13.6495 11.6005 13.6472 11.62V13.385C13.6472 13.459 13.6172 13.45 13.5612 13.439C13.1734 13.3388 12.7619 13.3929 12.4132 13.59C12.3802 13.611 12.3481 13.635 12.3131 13.657C12.232 13.7083 12.1662 13.7805 12.1226 13.866C12.0789 13.9515 12.0591 14.0471 12.0652 14.143C12.0802 15.652 12.0652 17.164 12.0652 18.673C12.0652 18.773 12.0412 18.798 11.9392 18.798H10.0952C10.0192 18.798 9.99512 18.779 9.99512 18.698V11.6589C9.99512 11.5829 10.0142 11.559 10.0952 11.559H11.6952C11.7662 11.559 11.7951 11.574 11.8121 11.652C11.8441 11.812 11.8851 11.972 11.9261 12.16Z" fill="#6772E4"/>
<path id="Path 12467" d="M16.2205 15.1883V18.6802C16.2205 18.7802 16.1925 18.7992 16.0995 18.7952H14.2644C14.1774 18.7952 14.1455 18.7803 14.1455 18.6833V11.6723C14.1455 11.5723 14.1774 11.5582 14.2644 11.5602H16.0995C16.1925 11.5602 16.2205 11.5803 16.2205 11.6773C16.2191 12.8406 16.2191 14.0109 16.2205 15.1883Z" fill="#6772E4"/>
<path id="Path 12468" d="M16.2166 9.65307V10.4161C16.2189 10.4281 16.2186 10.4403 16.2157 10.4521C16.2128 10.464 16.2073 10.4751 16.1997 10.4846C16.1921 10.4941 16.1825 10.5019 16.1716 10.5073C16.1607 10.5128 16.1488 10.5157 16.1366 10.5161C15.5006 10.6501 14.8636 10.7821 14.2286 10.9161C14.1506 10.9331 14.1406 10.9161 14.1406 10.8431V9.33812C14.1406 9.27512 14.1557 9.23809 14.2227 9.23009C14.8593 9.09676 15.4953 8.9634 16.1306 8.83007C16.2126 8.81107 16.2166 8.83904 16.2146 8.90404C16.2146 9.13804 16.2166 9.40207 16.2166 9.65307Z" fill="#6772E4"/>
</g>
<defs>
<clipPath id="clip0_3557_9741">
<rect width="30" height="30" fill="white"/>
</clipPath>
</defs>
</svg>
