<svg width="22" height="24" viewBox="0 0 22 24" fill="none" xmlns="http://www.w3.org/2000/svg">
<g id="Group 1">
<path id="Vector" d="M0.917902 24C0.494609 24 0.150024 23.6554 0.150024 23.2321C0.150024 20.7159 1.12715 18.3383 2.90094 16.5367C4.68386 14.7264 7.04748 13.7296 9.55652 13.7296H12.4361C14.9451 13.7296 17.3087 14.7264 19.0916 16.5367C20.8654 18.3378 21.8426 20.7159 21.8426 23.2321C21.8426 23.6554 21.498 24 21.0747 24H0.917902ZM9.55652 15.2654C5.57364 15.2654 2.13499 18.4041 1.72705 22.4114L1.72177 22.4642H20.2703L20.265 22.4114C19.8576 18.4045 16.4185 15.2654 12.4356 15.2654H9.55604H9.55652Z" fill="#201A1A" fill-opacity="0.67"/>
<path id="Vector_2" d="M10.9963 13.0539C10.9473 13.0539 10.8984 13.0534 10.8494 13.0525C9.16823 13.0155 7.58304 12.3355 6.38515 11.1381C5.18774 9.94065 4.50769 8.35498 4.47074 6.67381C4.43186 4.90434 5.09272 3.23228 6.33188 1.96577C7.572 0.697808 9.22822 0 10.9963 0C11.0452 0 11.0942 0.000479923 11.1431 0.00143977C12.8243 0.0383939 14.4095 0.718445 15.6074 1.91585C16.8048 3.11326 17.4848 4.69893 17.5218 6.3801C17.5606 8.14958 16.8998 9.82163 15.6606 11.0886C14.421 12.3561 12.7643 13.0539 10.9967 13.0539H10.9963ZM10.9963 1.53575C10.9415 1.53575 10.8859 1.53671 10.8307 1.53863C8.21126 1.62358 6.09288 3.74244 6.00793 6.36138C5.96378 7.72484 6.46194 9.01536 7.41123 9.99632C8.361 10.9778 9.63423 11.5182 10.9963 11.5182C11.051 11.5182 11.1066 11.5172 11.1618 11.5153C13.7812 11.4303 15.8996 9.31147 15.9846 6.69253C16.0287 5.32907 15.5306 4.03855 14.5813 3.05759C13.6315 2.07615 12.3583 1.53575 10.9963 1.53575Z" fill="#201A1A" fill-opacity="0.67"/>
</g>
</svg>
